<?xml version="1.0" encoding="UTF-8"?>
<svg xmlns="http://www.w3.org/2000/svg" width="70" height="70" viewBox="0 0 70 70" fill="none">
  <g clip-path="url(#clip0_1322_1534)">
    <path d="M18.0645 58.7097C15.669 58.7097 13.3716 57.7581 11.6777 56.0642C9.98383 54.3703 9.03223 52.0729 9.03223 49.6774V44.0323C9.03223 43.7328 9.15119 43.4457 9.36293 43.2339C9.57466 43.0222 9.86182 42.9032 10.1613 42.9032C11.0868 42.9069 12.0038 42.7261 12.8587 42.3713C13.7136 42.0166 14.4893 41.495 15.1403 40.8371L16.1338 39.8436C16.3266 39.651 16.5825 39.5347 16.8543 39.516C17.1262 39.4973 17.3956 39.5776 17.6129 39.742L18.5161 40.4193C20.6658 42.0316 23.2805 42.9032 25.9677 42.9032C26.2671 42.9032 26.5543 43.0222 26.766 43.2339C26.9778 43.4457 27.0967 43.7328 27.0967 44.0323V49.6774C27.0967 52.0729 26.1451 54.3703 24.4513 56.0642C22.7574 57.7581 20.46 58.7097 18.0645 58.7097ZM11.2903 45.0936V49.6774C11.2903 51.474 12.004 53.1971 13.2744 54.4675C14.5448 55.7379 16.2679 56.4516 18.0645 56.4516C19.8611 56.4516 21.5842 55.7379 22.8546 54.4675C24.125 53.1971 24.8387 51.474 24.8387 49.6774V45.1613C22.0568 44.9471 19.3937 43.9445 17.1613 42.271L17.0371 42.1806L16.7435 42.4855C15.2662 43.9369 13.3474 44.8546 11.2903 45.0936Z" fill="black"></path>
    <path d="M29.3549 48.5484C29.0555 48.5484 28.7683 48.4294 28.5566 48.2177C28.3449 48.006 28.2259 47.7188 28.2259 47.4194V39.6516C28.2255 38.5747 27.8653 37.5288 27.2026 36.6799C26.5398 35.831 25.6125 35.2278 24.5679 34.9661C24.2944 34.8969 24.0567 34.7277 23.9017 34.4919C23.308 33.6055 22.505 32.8791 21.5637 32.377C20.6224 31.8748 19.5718 31.6124 18.505 31.6129C15.6942 31.6159 12.9993 32.7338 11.0118 34.7214C9.02424 36.7089 7.90632 39.4037 7.90333 42.2145V47.4194C7.90333 47.7188 7.78436 48.006 7.57263 48.2177C7.36089 48.4294 7.07373 48.5484 6.7743 48.5484C6.47486 48.5484 6.1877 48.4294 5.97597 48.2177C5.76423 48.006 5.64526 47.7188 5.64526 47.4194V42.2145C5.64825 38.8049 7.00408 35.5357 9.41509 33.1247C11.8261 30.7137 15.0953 29.3578 18.505 29.3548C19.8704 29.3535 21.217 29.6725 22.4367 30.2863C23.6563 30.9 24.715 31.7914 25.5275 32.8887C26.9663 33.3446 28.2225 34.2471 29.1137 35.4652C30.0049 36.6832 30.4849 38.1536 30.484 39.6629V47.4194C30.484 47.7188 30.365 48.006 30.1533 48.2177C29.9415 48.4294 29.6544 48.5484 29.3549 48.5484Z" fill="black"></path>
    <path d="M27.0969 70C26.839 70.0075 26.5862 69.9265 26.3808 69.7704C26.1754 69.6142 26.0296 69.3924 25.9678 69.1419L24.8388 64.6258C24.7797 64.34 24.8336 64.0424 24.9892 63.7955C25.1448 63.5485 25.39 63.3714 25.6733 63.3013C25.9566 63.2312 26.2561 63.2736 26.5088 63.4195C26.7616 63.5654 26.9481 63.8035 27.0291 64.0839L28.1582 68.6C28.2298 68.8905 28.1832 69.1974 28.0287 69.4536C27.8742 69.7097 27.6243 69.8941 27.334 69.9661L27.0969 70Z" fill="black"></path>
    <path d="M9.03231 70H8.76135C8.47102 69.9279 8.22113 69.7436 8.0666 69.4874C7.91207 69.2313 7.86552 68.9243 7.93715 68.6339L9.06618 64.1177C9.09694 63.9689 9.1574 63.8279 9.24397 63.703C9.33054 63.5781 9.44143 63.472 9.56999 63.391C9.69855 63.31 9.84216 63.2558 9.99217 63.2316C10.1422 63.2074 10.2955 63.2138 10.443 63.2503C10.5905 63.2868 10.7291 63.3527 10.8506 63.444C10.972 63.5353 11.0737 63.6503 11.1497 63.7819C11.2257 63.9135 11.2743 64.059 11.2926 64.2099C11.311 64.3607 11.2987 64.5137 11.2565 64.6597L10.1275 69.1758C10.0606 69.4143 9.91718 69.6242 9.71928 69.7731C9.52138 69.922 9.27999 70.0018 9.03231 70Z" fill="black"></path>
    <path d="M35.0001 70H1.12911C0.953838 70 0.780979 69.9592 0.624206 69.8808C0.467434 69.8024 0.331069 69.6886 0.225903 69.5484C0.122475 69.4095 0.0523902 69.2487 0.0210659 69.0783C-0.0102584 68.908 -0.00198693 68.7328 0.0452536 68.5662L1.54685 63.3049C1.83183 62.3073 2.38616 61.4077 3.14899 60.7046C3.91182 60.0015 4.85367 59.5222 5.87106 59.3194L14.4517 57.6032C14.5999 57.5736 14.7526 57.5734 14.9009 57.6028C15.0493 57.6321 15.1904 57.6904 15.3162 57.7743C15.442 57.8581 15.5501 57.966 15.6342 58.0916C15.7183 58.2172 15.7769 58.3582 15.8065 58.5065C15.8362 58.6547 15.8364 58.8074 15.807 58.9557C15.7777 59.104 15.7194 59.2451 15.6355 59.371C15.5517 59.4968 15.4438 59.6048 15.3182 59.6889C15.1926 59.7731 15.0516 59.8316 14.9033 59.8613L6.31137 61.5774C5.70025 61.699 5.13448 61.9867 4.67633 62.409C4.21818 62.8313 3.88542 63.3718 3.71461 63.971L2.58558 67.7871H33.4533L32.3243 63.971C32.1535 63.3718 31.8207 62.8313 31.3625 62.409C30.9044 61.9867 30.3386 61.699 29.7275 61.5774L21.2259 59.8387C20.9264 59.7788 20.6631 59.6024 20.4937 59.3484C20.3243 59.0943 20.2628 58.7833 20.3227 58.4839C20.3826 58.1844 20.559 57.921 20.813 57.7517C21.0671 57.5823 21.3781 57.5208 21.6775 57.5807L30.2581 59.2968C31.2755 59.4996 32.2174 59.9789 32.9802 60.682C33.743 61.3851 34.2974 62.2847 34.5823 63.2823L36.0839 68.5435C36.1312 68.7102 36.1395 68.8854 36.1081 69.0558C36.0768 69.2261 36.0067 69.3869 35.9033 69.5258C35.8005 69.6702 35.6652 69.7884 35.5083 69.8707C35.3514 69.9531 35.1773 69.9974 35.0001 70Z" fill="black"></path>
    <path d="M25.9677 51.9355C25.6682 51.9355 25.3811 51.8165 25.1693 51.6048C24.9576 51.3931 24.8386 51.1059 24.8386 50.8065C24.8386 50.507 24.9576 50.2199 25.1693 50.0081C25.3811 49.7964 25.6682 49.6774 25.9677 49.6774C26.5665 49.6774 27.1409 49.4395 27.5643 49.0161C27.9878 48.5926 28.2257 48.0182 28.2257 47.4194C28.2257 46.8205 27.9878 46.2461 27.5643 45.8227C27.1409 45.3992 26.5665 45.1613 25.9677 45.1613C25.6682 45.1613 25.3811 45.0423 25.1693 44.8306C24.9576 44.6189 24.8386 44.3317 24.8386 44.0323C24.8386 43.7328 24.9576 43.4457 25.1693 43.2339C25.3811 43.0222 25.6682 42.9032 25.9677 42.9032C27.1654 42.9032 28.3141 43.379 29.161 44.226C30.008 45.0729 30.4838 46.2216 30.4838 47.4194C30.4838 48.6171 30.008 49.7658 29.161 50.6127C28.3141 51.4597 27.1654 51.9355 25.9677 51.9355Z" fill="black"></path>
    <path d="M10.1614 51.9355C8.96364 51.9355 7.81494 51.4597 6.968 50.6127C6.12107 49.7658 5.64526 48.6171 5.64526 47.4194C5.64526 46.2216 6.12107 45.0729 6.968 44.226C7.81494 43.379 8.96364 42.9032 10.1614 42.9032C10.4608 42.9032 10.748 43.0222 10.9597 43.2339C11.1715 43.4457 11.2904 43.7328 11.2904 44.0323C11.2904 44.3317 11.1715 44.6189 10.9597 44.8306C10.748 45.0423 10.4608 45.1613 10.1614 45.1613C9.56252 45.1613 8.98817 45.3992 8.5647 45.8227C8.14123 46.2461 7.90333 46.8205 7.90333 47.4194C7.90333 48.0182 8.14123 48.5926 8.5647 49.0161C8.98817 49.4395 9.56252 49.6774 10.1614 49.6774C10.4608 49.6774 10.748 49.7964 10.9597 50.0081C11.1715 50.2199 11.2904 50.507 11.2904 50.8065C11.2904 51.1059 11.1715 51.3931 10.9597 51.6048C10.748 51.8165 10.4608 51.9355 10.1614 51.9355Z" fill="black"></path>
    <path d="M18.0645 65.4839C17.8685 65.4838 17.676 65.4328 17.5057 65.3358C17.3355 65.2388 17.1934 65.0992 17.0935 64.9307L13.7064 59.2855C13.603 59.1112 13.5484 58.9123 13.5483 58.7097V57.5806C13.5483 57.2812 13.6673 56.9941 13.879 56.7823C14.0908 56.5706 14.3779 56.4516 14.6774 56.4516H21.4516C21.751 56.4516 22.0382 56.5706 22.2499 56.7823C22.4616 56.9941 22.5806 57.2812 22.5806 57.5806V58.7097C22.5805 58.9123 22.5259 59.1112 22.4225 59.2855L19.0354 64.9307C18.9355 65.0992 18.7934 65.2388 18.6232 65.3358C18.453 65.4328 18.2604 65.4838 18.0645 65.4839ZM15.9984 58.7097L18.0645 62.1645L20.1306 58.7097H15.9984Z" fill="black"></path>
    <path d="M60.9677 40.6452C60.7098 40.6527 60.4571 40.5717 60.2517 40.4155C60.0462 40.2594 59.9005 40.0376 59.8387 39.7871L58.7096 35.271C58.6506 34.9851 58.7045 34.6876 58.8601 34.4406C59.0157 34.1937 59.2608 34.0166 59.5442 33.9465C59.8275 33.8764 60.1269 33.9187 60.3797 34.0646C60.6325 34.2105 60.819 34.4487 60.9 34.7291L62.029 39.2452C62.1006 39.5356 62.0541 39.8426 61.8996 40.0987C61.745 40.3549 61.4951 40.5392 61.2048 40.6113L60.9677 40.6452Z" fill="black"></path>
    <path d="M42.9032 40.6452H42.6322C42.3419 40.5731 42.092 40.3887 41.9374 40.1326C41.7829 39.8765 41.7364 39.5695 41.808 39.279L42.937 34.7629C42.9678 34.6141 43.0282 34.4731 43.1148 34.3482C43.2014 34.2233 43.3123 34.1172 43.4408 34.0362C43.5694 33.9552 43.713 33.901 43.863 33.8768C44.013 33.8526 44.1664 33.8589 44.3139 33.8954C44.4614 33.9319 44.6 33.9978 44.7214 34.0892C44.8428 34.1805 44.9446 34.2954 45.0205 34.427C45.0965 34.5586 45.1451 34.7042 45.1635 34.855C45.1818 35.0059 45.1695 35.1589 45.1274 35.3048L43.9983 39.821C43.9315 40.0594 43.788 40.2693 43.5901 40.4183C43.3922 40.5672 43.1508 40.6469 42.9032 40.6452Z" fill="black"></path>
    <path d="M68.8709 40.6452H35C34.8247 40.6452 34.6518 40.6044 34.4951 40.526C34.3383 40.4476 34.2019 40.3338 34.0968 40.1936C33.9933 40.0547 33.9232 39.8938 33.8919 39.7235C33.8606 39.5532 33.8689 39.3779 33.9161 39.2113L35.4177 33.95C35.7027 32.9525 36.257 32.0528 37.0198 31.3497C37.7827 30.6467 38.7245 30.1674 39.7419 29.9645L48.3225 28.2484C48.4708 28.2187 48.6235 28.2186 48.7718 28.2479C48.9201 28.2773 49.0612 28.3355 49.187 28.4194C49.3128 28.5033 49.4209 28.6111 49.505 28.7367C49.5892 28.8624 49.6477 29.0034 49.6774 29.1516C49.707 29.2999 49.7072 29.4525 49.6779 29.6009C49.6485 29.7492 49.5903 29.8903 49.5064 30.0161C49.4225 30.1419 49.3147 30.25 49.189 30.3341C49.0634 30.4182 48.9224 30.4768 48.7742 30.5064L40.1822 32.2226C39.5711 32.3441 39.0053 32.6318 38.5472 33.0541C38.089 33.4764 37.7563 34.0169 37.5855 34.6161L36.4564 38.4323H67.3242L66.1951 34.6161C66.0243 34.0169 65.6915 33.4764 65.2334 33.0541C64.7752 32.6318 64.2095 32.3441 63.5983 32.2226L55.0967 30.4839C54.7973 30.424 54.5339 30.2476 54.3645 29.9935C54.1951 29.7394 54.1336 29.4285 54.1935 29.129C54.2534 28.8296 54.4298 28.5662 54.6839 28.3968C54.938 28.2274 55.2489 28.1659 55.5484 28.2258L64.129 29.9419C65.1464 30.1448 66.0882 30.6241 66.8511 31.3271C67.6139 32.0302 68.1682 32.9299 68.4532 33.9274L69.9548 39.1887C70.002 39.3553 70.0103 39.5306 69.979 39.7009C69.9477 39.8712 69.8776 40.0321 69.7741 40.171C69.6714 40.3153 69.5361 40.4335 69.3792 40.5159C69.2222 40.5983 69.0481 40.6426 68.8709 40.6452Z" fill="black"></path>
    <path d="M51.9356 33.871C50.7378 33.871 49.5891 33.3952 48.7422 32.5482C47.8952 31.7013 47.4194 30.5526 47.4194 29.3548V28.2258C47.4194 27.9264 47.5384 27.6392 47.7501 27.4275C47.9619 27.2157 48.249 27.0968 48.5485 27.0968H55.3227C55.6221 27.0968 55.9093 27.2157 56.121 27.4275C56.3327 27.6392 56.4517 27.9264 56.4517 28.2258V29.3548C56.4517 30.5526 55.9759 31.7013 55.129 32.5482C54.282 33.3952 53.1333 33.871 51.9356 33.871ZM49.6775 29.3548C49.6775 29.9537 49.9154 30.5281 50.3389 30.9515C50.7623 31.375 51.3367 31.6129 51.9356 31.6129C52.5344 31.6129 53.1088 31.375 53.5323 30.9515C53.9557 30.5281 54.1936 29.9537 54.1936 29.3548H49.6775Z" fill="black"></path>
    <path d="M64.3549 56.4516H48.5485C48.249 56.4516 47.9619 56.3326 47.7501 56.1209C47.5384 55.9092 47.4194 55.622 47.4194 55.3226C47.4194 55.0231 47.5384 54.736 47.7501 54.5242C47.9619 54.3125 48.249 54.1935 48.5485 54.1935H64.3549C64.6544 54.1935 64.9415 54.3125 65.1532 54.5242C65.365 54.736 65.4839 55.0231 65.4839 55.3226C65.4839 55.622 65.365 55.9092 65.1532 56.1209C64.9415 56.3326 64.6544 56.4516 64.3549 56.4516Z" fill="black"></path>
    <path d="M64.3549 60.9678H48.5485C48.249 60.9678 47.9619 60.8488 47.7501 60.637C47.5384 60.4253 47.4194 60.1382 47.4194 59.8387C47.4194 59.5393 47.5384 59.2521 47.7501 59.0404C47.9619 58.8287 48.249 58.7097 48.5485 58.7097H64.3549C64.6544 58.7097 64.9415 58.8287 65.1532 59.0404C65.365 59.2521 65.4839 59.5393 65.4839 59.8387C65.4839 60.1382 65.365 60.4253 65.1532 60.637C64.9415 60.8488 64.6544 60.9678 64.3549 60.9678Z" fill="black"></path>
    <path d="M66.613 70H46.2904C45.3921 70 44.5306 69.6431 43.8954 69.0079C43.2602 68.3727 42.9033 67.5112 42.9033 66.6129V63.8355L33.2501 57.3887C33.0499 57.2542 32.898 57.059 32.8167 56.8319C32.7355 56.6048 32.7291 56.3576 32.7985 56.1266C32.868 55.8956 33.0095 55.6929 33.2025 55.5482C33.3956 55.4035 33.6298 55.3244 33.871 55.3226H42.9033V53.0645C42.9033 52.1662 43.2602 51.3047 43.8954 50.6695C44.5306 50.0343 45.3921 49.6774 46.2904 49.6774H66.613C67.5113 49.6774 68.3728 50.0343 69.008 50.6695C69.6432 51.3047 70.0001 52.1662 70.0001 53.0645V66.6129C70.0001 67.5112 69.6432 68.3727 69.008 69.0079C68.3728 69.6431 67.5113 70 66.613 70ZM37.5968 57.5806L44.6533 62.2887C44.8086 62.391 44.9363 62.53 45.0249 62.6935C45.1135 62.857 45.1604 63.0398 45.1614 63.2258V66.6129C45.1614 66.9123 45.2803 67.1995 45.4921 67.4112C45.7038 67.623 45.991 67.7419 46.2904 67.7419H66.613C66.9124 67.7419 67.1996 67.623 67.4113 67.4112C67.623 67.1995 67.742 66.9123 67.742 66.6129V53.0645C67.742 52.7651 67.623 52.4779 67.4113 52.2662C67.1996 52.0544 66.9124 51.9355 66.613 51.9355H46.2904C45.991 51.9355 45.7038 52.0544 45.4921 52.2662C45.2803 52.4779 45.1614 52.7651 45.1614 53.0645V56.4516C45.1614 56.751 45.0424 57.0382 44.8307 57.2499C44.6189 57.4617 44.3318 57.5806 44.0323 57.5806H37.5968Z" fill="black"></path>
    <path d="M51.9354 65.4839C52.559 65.4839 53.0645 64.9784 53.0645 64.3548C53.0645 63.7313 52.559 63.2258 51.9354 63.2258C51.3119 63.2258 50.8064 63.7313 50.8064 64.3548C50.8064 64.9784 51.3119 65.4839 51.9354 65.4839Z" fill="black"></path>
    <path d="M56.4515 65.4839C57.0751 65.4839 57.5806 64.9784 57.5806 64.3548C57.5806 63.7313 57.0751 63.2258 56.4515 63.2258C55.828 63.2258 55.3225 63.7313 55.3225 64.3548C55.3225 64.9784 55.828 65.4839 56.4515 65.4839Z" fill="black"></path>
    <path d="M60.9677 65.4839C61.5912 65.4839 62.0967 64.9784 62.0967 64.3548C62.0967 63.7313 61.5912 63.2258 60.9677 63.2258C60.3441 63.2258 59.8386 63.7313 59.8386 64.3548C59.8386 64.9784 60.3441 65.4839 60.9677 65.4839Z" fill="black"></path>
    <path d="M21.4516 6.77419H5.64515C5.34571 6.77419 5.05855 6.65523 4.84682 6.44349C4.63508 6.23176 4.51611 5.9446 4.51611 5.64516C4.51611 5.34572 4.63508 5.05857 4.84682 4.84683C5.05855 4.6351 5.34571 4.51613 5.64515 4.51613H21.4516C21.751 4.51613 22.0382 4.6351 22.2499 4.84683C22.4617 5.05857 22.5806 5.34572 22.5806 5.64516C22.5806 5.9446 22.4617 6.23176 22.2499 6.44349C22.0382 6.65523 21.751 6.77419 21.4516 6.77419Z" fill="black"></path>
    <path d="M21.4516 11.2903H5.64515C5.34571 11.2903 5.05855 11.1714 4.84682 10.9596C4.63508 10.7479 4.51611 10.4607 4.51611 10.1613C4.51611 9.86185 4.63508 9.57469 4.84682 9.36296C5.05855 9.15122 5.34571 9.03226 5.64515 9.03226H21.4516C21.751 9.03226 22.0382 9.15122 22.2499 9.36296C22.4617 9.57469 22.5806 9.86185 22.5806 10.1613C22.5806 10.4607 22.4617 10.7479 22.2499 10.9596C22.0382 11.1714 21.751 11.2903 21.4516 11.2903Z" fill="black"></path>
    <path d="M23.7097 20.3226H3.3871C2.48878 20.3226 1.62728 19.9657 0.992072 19.3305C0.356868 18.6953 0 17.8338 0 16.9355V3.3871C0 2.48878 0.356868 1.62728 0.992072 0.992072C1.62728 0.356868 2.48878 0 3.3871 0H23.7097C24.608 0 25.4695 0.356868 26.1047 0.992072C26.7399 1.62728 27.0968 2.48878 27.0968 3.3871V6.25485L34.6048 12.6903C34.7802 12.8403 34.9055 13.0405 34.9636 13.2639C35.0218 13.4872 35.0101 13.723 34.9302 13.9395C34.8502 14.156 34.7058 14.3429 34.5164 14.4748C34.327 14.6067 34.1018 14.6774 33.871 14.6774H27.0968V16.9355C27.0968 17.8338 26.7399 18.6953 26.1047 19.3305C25.4695 19.9657 24.608 20.3226 23.7097 20.3226ZM3.3871 2.25806C3.08766 2.25806 2.8005 2.37703 2.58877 2.58877C2.37703 2.8005 2.25806 3.08766 2.25806 3.3871V16.9355C2.25806 17.2349 2.37703 17.5221 2.58877 17.7338C2.8005 17.9455 3.08766 18.0645 3.3871 18.0645H23.7097C24.0091 18.0645 24.2963 17.9455 24.508 17.7338C24.7197 17.5221 24.8387 17.2349 24.8387 16.9355V13.5484C24.8387 13.2489 24.9577 12.9618 25.1694 12.7501C25.3811 12.5383 25.6683 12.4194 25.9677 12.4194H30.8226L25.2339 7.63227C25.1099 7.52627 25.0105 7.39467 24.9422 7.24654C24.874 7.09842 24.8387 6.93727 24.8387 6.77419V3.3871C24.8387 3.08766 24.7197 2.8005 24.508 2.58877C24.2963 2.37703 24.0091 2.25806 23.7097 2.25806H3.3871Z" fill="black"></path>
    <path d="M18.0646 15.8065C18.6881 15.8065 19.1936 15.301 19.1936 14.6774C19.1936 14.0539 18.6881 13.5484 18.0646 13.5484C17.441 13.5484 16.9355 14.0539 16.9355 14.6774C16.9355 15.301 17.441 15.8065 18.0646 15.8065Z" fill="black"></path>
    <path d="M13.5485 15.8065C14.172 15.8065 14.6775 15.301 14.6775 14.6774C14.6775 14.0539 14.172 13.5484 13.5485 13.5484C12.9249 13.5484 12.4194 14.0539 12.4194 14.6774C12.4194 15.301 12.9249 15.8065 13.5485 15.8065Z" fill="black"></path>
    <path d="M9.03235 15.8065C9.6559 15.8065 10.1614 15.301 10.1614 14.6774C10.1614 14.0539 9.6559 13.5484 9.03235 13.5484C8.40881 13.5484 7.90332 14.0539 7.90332 14.6774C7.90332 15.301 8.40881 15.8065 9.03235 15.8065Z" fill="black"></path>
    <path d="M60.9677 15.8065C61.5912 15.8065 62.0967 15.301 62.0967 14.6774C62.0967 14.0539 61.5912 13.5484 60.9677 13.5484C60.3441 13.5484 59.8386 14.0539 59.8386 14.6774C59.8386 15.301 60.3441 15.8065 60.9677 15.8065Z" fill="black"></path>
    <path d="M42.9032 15.8065C43.5267 15.8065 44.0322 15.301 44.0322 14.6774C44.0322 14.0539 43.5267 13.5484 42.9032 13.5484C42.2797 13.5484 41.7742 14.0539 41.7742 14.6774C41.7742 15.301 42.2797 15.8065 42.9032 15.8065Z" fill="black"></path>
    <path d="M51.9356 22.5806C50.7378 22.5806 49.5891 22.1048 48.7422 21.2579C47.8952 20.411 47.4194 19.2623 47.4194 18.0645C47.4194 17.7651 47.5384 17.4779 47.7501 17.2662C47.9619 17.0545 48.249 16.9355 48.5485 16.9355C48.8479 16.9355 49.1351 17.0545 49.3468 17.2662C49.5585 17.4779 49.6775 17.7651 49.6775 18.0645C49.6775 18.5111 49.8099 18.9477 50.0581 19.319C50.3062 19.6904 50.6588 19.9798 51.0714 20.1507C51.484 20.3216 51.9381 20.3663 52.3761 20.2792C52.8141 20.1921 53.2165 19.977 53.5323 19.6612C53.8481 19.3454 54.0631 18.943 54.1502 18.505C54.2374 18.067 54.1926 17.613 54.0217 17.2004C53.8508 16.7878 53.5614 16.4351 53.1901 16.187C52.8187 15.9389 52.3822 15.8065 51.9356 15.8065C51.0424 15.8065 50.1692 15.5416 49.4265 15.0453C48.6839 14.5491 48.105 13.8438 47.7632 13.0186C47.4214 12.1934 47.332 11.2853 47.5062 10.4093C47.6805 9.53322 48.1106 8.72852 48.7422 8.09693C49.3738 7.46534 50.1785 7.03524 51.0545 6.86099C51.9305 6.68673 52.8386 6.77614 53.6638 7.11795C54.489 7.45977 55.1943 8.03861 55.6906 8.78128C56.1868 9.52396 56.4517 10.3971 56.4517 11.2903C56.4517 11.5898 56.3327 11.8769 56.121 12.0887C55.9093 12.3004 55.6221 12.4194 55.3227 12.4194C55.0232 12.4194 54.7361 12.3004 54.5243 12.0887C54.3126 11.8769 54.1936 11.5898 54.1936 11.2903C54.1936 10.8437 54.0612 10.4071 53.8131 10.0358C53.5649 9.66447 53.2123 9.37506 52.7997 9.20415C52.3871 9.03325 51.9331 8.98851 51.4951 9.07564C51.057 9.16276 50.6547 9.37783 50.3389 9.69363C50.0231 10.0094 49.808 10.4118 49.7209 10.8498C49.6337 11.2878 49.6785 11.7419 49.8494 12.1545C50.0203 12.5671 50.3097 12.9197 50.681 13.1678C51.0524 13.4159 51.489 13.5484 51.9356 13.5484C53.1333 13.5484 54.282 14.0242 55.129 14.8711C55.9759 15.7181 56.4517 16.8668 56.4517 18.0645C56.4517 19.2623 55.9759 20.411 55.129 21.2579C54.282 22.1048 53.1333 22.5806 51.9356 22.5806Z" fill="black"></path>
    <path d="M51.9354 9.03226C51.636 9.03226 51.3488 8.91329 51.1371 8.70156C50.9254 8.48982 50.8064 8.20266 50.8064 7.90323V5.64516C50.8064 5.34572 50.9254 5.05857 51.1371 4.84683C51.3488 4.6351 51.636 4.51613 51.9354 4.51613C52.2349 4.51613 52.522 4.6351 52.7338 4.84683C52.9455 5.05857 53.0645 5.34572 53.0645 5.64516V7.90323C53.0645 8.20266 52.9455 8.48982 52.7338 8.70156C52.522 8.91329 52.2349 9.03226 51.9354 9.03226Z" fill="black"></path>
    <path d="M51.9354 24.8387C51.636 24.8387 51.3488 24.7197 51.1371 24.508C50.9254 24.2963 50.8064 24.0091 50.8064 23.7097V21.4516C50.8064 21.1522 50.9254 20.865 51.1371 20.6533C51.3488 20.4416 51.636 20.3226 51.9354 20.3226C52.2349 20.3226 52.522 20.4416 52.7338 20.6533C52.9455 20.865 53.0645 21.1522 53.0645 21.4516V23.7097C53.0645 24.0091 52.9455 24.2963 52.7338 24.508C52.522 24.7197 52.2349 24.8387 51.9354 24.8387Z" fill="black"></path>
    <path d="M51.9355 29.3548C48.6449 29.3566 45.4492 28.2527 42.8615 26.2202C40.2737 24.1877 38.4439 21.3445 37.666 18.1472C36.8881 14.95 37.2072 11.584 38.572 8.58986C39.9368 5.59569 42.2681 3.14698 45.1917 1.63688C48.1153 0.126776 51.4614 -0.357092 54.693 0.262935C57.9246 0.882963 60.8542 2.57092 63.0112 5.05581C65.1683 7.5407 66.4278 10.6784 66.5875 13.965C66.7473 17.2517 65.7979 20.4967 63.8919 23.179C63.8055 23.3003 63.696 23.4032 63.5696 23.4819C63.4432 23.5607 63.3026 23.6136 63.1557 23.6377C63.0087 23.6619 62.8585 23.6567 62.7136 23.6225C62.5687 23.5884 62.432 23.5259 62.3113 23.4387C62.0697 23.2643 61.9068 23.0015 61.8581 22.7076C61.8095 22.4136 61.879 22.1123 62.0516 21.8694C63.8563 19.3314 64.6417 16.208 64.252 13.1183C63.8624 10.0285 62.3261 7.19793 59.9478 5.1875C57.5694 3.17707 54.5226 2.13353 51.4111 2.26372C48.2996 2.39391 45.3506 3.68834 43.1485 5.89042C40.9464 8.09251 39.652 11.0415 39.5218 14.153C39.3916 17.2645 40.4351 20.3114 42.4456 22.6897C44.456 25.068 47.2866 26.6043 50.3763 26.994C53.4661 27.3836 56.5894 26.5983 59.1274 24.7935C59.3703 24.621 59.6716 24.5514 59.9656 24.6001C60.2596 24.6487 60.5224 24.8116 60.6968 25.0532C60.784 25.1739 60.8464 25.3106 60.8806 25.4555C60.9148 25.6004 60.9199 25.7507 60.8958 25.8976C60.8717 26.0445 60.8187 26.1852 60.74 26.3115C60.6613 26.4379 60.5583 26.5474 60.4371 26.6339C57.9575 28.4076 54.9842 29.3593 51.9355 29.3548Z" fill="black"></path>
  </g>
  <defs>
    <clipPath id="clip0_1322_1534">
      <rect width="70" height="70" fill="white"></rect>
    </clipPath>
  </defs>
</svg>
