<?xml version="1.0" encoding="UTF-8"?>
<svg xmlns="http://www.w3.org/2000/svg" width="70" height="70" viewBox="0 0 70 70" fill="none">
  <g clip-path="url(#clip0_1322_1671)">
    <path d="M52.4548 12.7016C52.2819 12.7021 52.1125 12.6529 51.9668 12.56C51.8211 12.4671 51.705 12.3342 51.6325 12.1773C51.56 12.0204 51.534 11.846 51.5577 11.6747C51.5814 11.5035 51.6537 11.3427 51.766 11.2113L57.4112 4.67424C57.6818 4.3612 57.8266 3.9589 57.8177 3.54521V3.4323C57.8177 2.99213 57.6428 2.56997 57.3315 2.25872C57.0203 1.94747 56.5982 1.77262 56.158 1.77262C55.7326 1.78049 55.3273 1.95478 55.029 2.2581L52.658 4.61777C52.1563 5.11521 51.479 5.39508 50.7725 5.3968C50.2781 5.39841 49.7931 5.26184 49.3722 5.0025C48.9512 4.74316 48.6111 4.37138 48.3902 3.92908L47.8709 2.89035C47.701 2.55571 47.4418 2.27467 47.1219 2.07834C46.8021 1.88202 46.4341 1.7781 46.0588 1.7781C45.6835 1.7781 45.3155 1.88202 44.9957 2.07834C44.6758 2.27467 44.4166 2.55571 44.2467 2.89035L43.7273 3.92908C43.5064 4.37138 43.1663 4.74316 42.7454 5.0025C42.3245 5.26184 41.8395 5.39841 41.3451 5.3968C40.6386 5.39508 39.9612 5.11521 39.4596 4.61777L37.0886 2.2581C36.7903 1.95478 36.385 1.78049 35.9596 1.77262C35.5194 1.77262 35.0973 1.94747 34.786 2.25872C34.4748 2.56997 34.2999 2.99213 34.2999 3.4323V3.75969C34.3026 4.07173 34.3925 4.37679 34.5596 4.64034L36.9983 8.54681C37.0621 8.64763 37.1053 8.76001 37.1257 8.87755C37.146 8.9951 37.1429 9.11552 37.1167 9.23189C37.0905 9.34826 37.0416 9.45832 36.9729 9.5558C36.9041 9.65329 36.8169 9.73627 36.716 9.80002C36.5124 9.92878 36.266 9.97138 36.031 9.91845C35.7959 9.86551 35.5916 9.72138 35.4628 9.51777L32.866 5.64519C32.5276 5.0909 32.348 4.4543 32.3467 3.80486V3.47744C32.348 2.79129 32.5522 2.12088 32.9337 1.55056C33.3152 0.980235 33.8569 0.535531 34.4905 0.272401C35.1242 0.00926972 35.8216 -0.0605141 36.4949 0.0718361C37.1681 0.204186 37.7872 0.532731 38.2741 1.01615L40.6451 3.38713C40.7427 3.47757 40.8596 3.5447 40.9869 3.58349C41.1142 3.62227 41.2487 3.6317 41.3801 3.61105C41.5116 3.59041 41.6367 3.54025 41.746 3.46431C41.8553 3.38837 41.946 3.28863 42.0112 3.17261L42.5306 2.13392C42.8514 1.49737 43.3428 0.962376 43.9498 0.588597C44.5568 0.214818 45.2556 0.0169143 45.9685 0.0169143C46.6813 0.0169143 47.3802 0.214818 47.9872 0.588597C48.5942 0.962376 49.0855 1.49737 49.4064 2.13392L49.9257 3.17261C49.9909 3.28863 50.0816 3.38837 50.1909 3.46431C50.3002 3.54025 50.4253 3.59041 50.5568 3.61105C50.6883 3.6317 50.8227 3.62227 50.95 3.58349C51.0773 3.5447 51.1942 3.47757 51.2918 3.38713L53.6515 1.02745C54.1385 0.544032 54.7575 0.215453 55.4308 0.083103C56.104 -0.0492472 56.8014 0.0205366 57.4351 0.283667C58.0688 0.546798 58.6104 0.991536 58.9919 1.56186C59.3734 2.13218 59.5777 2.80259 59.5789 3.48874V3.60165C59.5792 4.42999 59.2828 5.23104 58.7435 5.85971L53.0983 12.3968C53.0186 12.4902 52.9201 12.5656 52.8092 12.6181C52.6982 12.6707 52.5775 12.6991 52.4548 12.7016Z" fill="black"></path>
    <path d="M52.3082 23.5968H43.2759C42.5543 23.5968 41.8622 23.3101 41.3519 22.7998C40.8416 22.2895 40.5549 21.5974 40.5549 20.8758C40.5549 20.1541 40.8416 19.462 41.3519 18.9518C41.8622 18.4415 42.5543 18.1548 43.2759 18.1548H52.3082C53.0298 18.1548 53.7219 18.4415 54.2322 18.9518C54.7425 19.462 55.0291 20.1541 55.0291 20.8758C55.0291 21.5974 54.7425 22.2895 54.2322 22.7998C53.7219 23.3101 53.0298 23.5968 52.3082 23.5968ZM43.2759 19.9726C43.0364 19.9726 42.8066 20.0677 42.6372 20.2371C42.4678 20.4065 42.3727 20.6362 42.3727 20.8758C42.3727 21.1153 42.4678 21.3451 42.6372 21.5145C42.8066 21.6839 43.0364 21.779 43.2759 21.779H52.3082C52.5477 21.779 52.7775 21.6839 52.9468 21.5145C53.1162 21.3451 53.2114 21.1153 53.2114 20.8758C53.2114 20.6362 53.1162 20.4065 52.9468 20.2371C52.7775 20.0677 52.5477 19.9726 52.3082 19.9726H43.2759Z" fill="black"></path>
    <path d="M52.308 19.9726H43.2757C42.5829 19.928 41.933 19.6213 41.4581 19.1149C40.9833 18.6085 40.719 17.9402 40.719 17.246C40.719 16.5517 40.9833 15.8835 41.4581 15.3771C41.933 14.8706 42.5829 14.564 43.2757 14.5193H46.9112C47.1348 14.5443 47.3413 14.6508 47.4913 14.8185C47.6413 14.9862 47.7242 15.2033 47.7242 15.4282C47.7242 15.6532 47.6413 15.8703 47.4913 16.038C47.3413 16.2056 47.1348 16.3121 46.9112 16.3371H43.2757C43.0521 16.3621 42.8456 16.4686 42.6956 16.6362C42.5456 16.8039 42.4626 17.021 42.4626 17.246C42.4626 17.4709 42.5456 17.6881 42.6956 17.8557C42.8456 18.0234 43.0521 18.1299 43.2757 18.1548H52.308C52.4358 18.1691 52.5653 18.1563 52.6878 18.1171C52.8104 18.0779 52.9233 18.0133 53.0192 17.9276C53.115 17.8418 53.1917 17.7367 53.2443 17.6193C53.2968 17.5018 53.3239 17.3746 53.3239 17.246C53.3239 17.1173 53.2968 16.9901 53.2443 16.8726C53.1917 16.7552 53.115 16.6502 53.0192 16.5644C52.9233 16.4786 52.8104 16.414 52.6878 16.3749C52.5653 16.3357 52.4358 16.3228 52.308 16.3371H50.4902C50.2666 16.3121 50.0601 16.2056 49.9101 16.038C49.7601 15.8703 49.6772 15.6532 49.6772 15.4282C49.6772 15.2033 49.7601 14.9862 49.9101 14.8185C50.0601 14.6508 50.2666 14.5443 50.4902 14.5193H52.308C53.0008 14.564 53.6506 14.8706 54.1255 15.3771C54.6004 15.8835 54.8647 16.5517 54.8647 17.246C54.8647 17.9402 54.6004 18.6085 54.1255 19.1149C53.6506 19.6213 53.0008 19.928 52.308 19.9726Z" fill="black"></path>
    <path d="M46.8662 16.3371H43.2307C42.5091 16.3371 41.817 16.0504 41.3067 15.5401C40.7964 15.0299 40.5098 14.3378 40.5098 13.6161C40.5098 12.8945 40.7964 12.2024 41.3067 11.6921C41.817 11.1818 42.5091 10.8951 43.2307 10.8951H46.8662C47.1058 10.8951 47.3355 10.9903 47.5049 11.1597C47.6743 11.3291 47.7694 11.5588 47.7694 11.7984C47.7694 12.0379 47.6743 12.2677 47.5049 12.4371C47.3355 12.6064 47.1058 12.7016 46.8662 12.7016H43.2307C43.0071 12.7266 42.8006 12.8331 42.6506 13.0007C42.5006 13.1684 42.4177 13.3855 42.4177 13.6105C42.4177 13.8354 42.5006 14.0525 42.6506 14.2202C42.8006 14.3879 43.0071 14.4944 43.2307 14.5193H46.8662C47.0898 14.5443 47.2963 14.6508 47.4463 14.8185C47.5963 14.9861 47.6793 15.2032 47.6793 15.4282C47.6793 15.6532 47.5963 15.8703 47.4463 16.0379C47.2963 16.2056 47.0898 16.3121 46.8662 16.3371Z" fill="black"></path>
    <path d="M52.3081 16.3371H50.4904C50.2668 16.3121 50.0603 16.2056 49.9103 16.0379C49.7603 15.8703 49.6773 15.6532 49.6773 15.4282C49.6773 15.2032 49.7603 14.9861 49.9103 14.8185C50.0603 14.6508 50.2668 14.5443 50.4904 14.5193H52.3081C52.436 14.5336 52.5654 14.5208 52.688 14.4816C52.8105 14.4424 52.9234 14.3778 53.0193 14.2921C53.1152 14.2063 53.1919 14.1012 53.2444 13.9838C53.297 13.8663 53.3241 13.7391 53.3241 13.6105C53.3241 13.4818 53.297 13.3546 53.2444 13.2372C53.1919 13.1197 53.1152 13.0146 53.0193 12.9289C52.9234 12.8431 52.8105 12.7785 52.688 12.7394C52.5654 12.7002 52.436 12.6873 52.3081 12.7016H50.4904C50.2508 12.7016 50.0211 12.6064 49.8517 12.4371C49.6823 12.2677 49.5872 12.0379 49.5872 11.7984C49.5872 11.5588 49.6823 11.3291 49.8517 11.1597C50.0211 10.9903 50.2508 10.8951 50.4904 10.8951H52.3081C53.0298 10.8951 53.7219 11.1818 54.2322 11.6921C54.7424 12.2024 55.0291 12.8945 55.0291 13.6161C55.0291 14.3378 54.7424 15.0299 54.2322 15.5401C53.7219 16.0504 53.0298 16.3371 52.3081 16.3371Z" fill="black"></path>
    <path d="M52.308 27.2323H43.2757C42.5829 27.1877 41.933 26.881 41.4581 26.3746C40.9833 25.8681 40.719 25.1999 40.719 24.5056C40.719 23.8114 40.9833 23.1432 41.4581 22.6367C41.933 22.1303 42.5829 21.8237 43.2757 21.7791H52.308C53.0008 21.8237 53.6506 22.1303 54.1255 22.6367C54.6004 23.1432 54.8647 23.8114 54.8647 24.5056C54.8647 25.1999 54.6004 25.8681 54.1255 26.3746C53.6506 26.881 53.0008 27.1877 52.308 27.2323ZM43.2757 23.5968C43.0521 23.6217 42.8456 23.7282 42.6956 23.8959C42.5456 24.0636 42.4626 24.2807 42.4626 24.5056C42.4626 24.7306 42.5456 24.9477 42.6956 25.1154C42.8456 25.2831 43.0521 25.3896 43.2757 25.4145H52.308C52.4358 25.4288 52.5653 25.4159 52.6878 25.3768C52.8104 25.3376 52.9233 25.273 53.0192 25.1872C53.115 25.1015 53.1917 24.9964 53.2443 24.879C53.2968 24.7615 53.3239 24.6343 53.3239 24.5056C53.3239 24.377 53.2968 24.2498 53.2443 24.1324C53.1917 24.0149 53.115 23.9099 53.0192 23.8241C52.9233 23.7383 52.8104 23.6737 52.6878 23.6345C52.5653 23.5954 52.4358 23.5825 52.308 23.5968H43.2757Z" fill="black"></path>
    <path d="M45.0484 27.2322H39.1549C37.4856 27.2282 35.8622 26.6857 34.5259 25.6855C33.5007 24.9226 32.2586 24.5072 30.9807 24.5H22.3549C22.1153 24.5 21.8856 24.4048 21.7162 24.2354C21.5468 24.0661 21.4517 23.8363 21.4517 23.5967V11.7984C21.4517 11.5588 21.5468 11.3291 21.7162 11.1597C21.8856 10.9903 22.1153 10.8951 22.3549 10.8951H30.8678C32.2064 10.892 33.5042 10.4342 34.5484 9.59675L35.3613 8.95319C36.7253 7.85801 38.4218 7.26062 40.171 7.25964H48.6839C49.0412 7.25964 49.3951 7.33005 49.7252 7.46679C50.0553 7.60353 50.3553 7.80393 50.6079 8.0566C50.8606 8.30926 51.061 8.60922 51.1978 8.93934C51.3345 9.26946 51.4049 9.62329 51.4049 9.98062V14.4967C51.3603 15.1896 51.0536 15.8394 50.5472 16.3143C50.0407 16.7892 49.3725 17.0535 48.6783 17.0535C47.984 17.0535 47.3158 16.7892 46.8094 16.3143C46.3029 15.8394 45.9963 15.1896 45.9517 14.4967V11.7758C45.9766 11.5522 46.0831 11.3456 46.2508 11.1956C46.4185 11.0456 46.6356 10.9627 46.8605 10.9627C47.0855 10.9627 47.3026 11.0456 47.4703 11.1956C47.638 11.3456 47.7444 11.5522 47.7694 11.7758V14.4967C47.7551 14.6246 47.768 14.754 47.8072 14.8766C47.8463 14.9991 47.9109 15.112 47.9967 15.2079C48.0825 15.3038 48.1875 15.3805 48.305 15.4331C48.4224 15.4856 48.5496 15.5127 48.6783 15.5127C48.8069 15.5127 48.9341 15.4856 49.0516 15.4331C49.169 15.3805 49.2741 15.3038 49.3599 15.2079C49.4456 15.112 49.5102 14.9991 49.5494 14.8766C49.5885 14.754 49.6014 14.6246 49.5871 14.4967V9.98062C49.5871 9.74107 49.492 9.51134 49.3226 9.34195C49.1532 9.17256 48.9235 9.0774 48.6839 9.0774H40.171C38.8345 9.08172 37.5383 9.53499 36.4904 10.3645L35.6775 11.0193C34.3099 12.1065 32.6149 12.6993 30.8678 12.7016H23.2694V22.6935H30.9807C32.6488 22.6935 34.2723 23.232 35.6097 24.229C36.6315 24.9984 37.8758 25.4145 39.1549 25.4145H45.0484C45.272 25.4395 45.4786 25.5459 45.6286 25.7136C45.7786 25.8813 45.8615 26.0984 45.8615 26.3234C45.8615 26.5483 45.7786 26.7654 45.6286 26.9331C45.4786 27.1008 45.272 27.2073 45.0484 27.2322Z" fill="black"></path>
    <path d="M60.3355 42.9032H60.2114C60.0934 42.8879 59.9796 42.8495 59.8765 42.7901C59.7734 42.7307 59.6831 42.6515 59.6107 42.557C59.5383 42.4626 59.4853 42.3548 59.4547 42.2398C59.4241 42.1249 59.4165 42.005 59.4323 41.8871C59.8386 38.9516 59.3384 35.962 57.9986 33.3187C56.6588 30.6754 54.5433 28.5045 51.9355 27.0968C51.8165 27.0487 51.7089 26.9761 51.6197 26.8837C51.5306 26.7913 51.4618 26.6812 51.4181 26.5605C51.3743 26.4398 51.3564 26.3112 51.3656 26.1831C51.3748 26.0551 51.4109 25.9304 51.4715 25.8172C51.5321 25.704 51.6158 25.6048 51.7173 25.5261C51.8187 25.4474 51.9356 25.3909 52.0604 25.3604C52.1851 25.3299 52.3148 25.326 52.4412 25.3489C52.5675 25.3718 52.6876 25.4211 52.7936 25.4935C55.734 27.0741 58.1222 29.5142 59.6392 32.4878C61.1563 35.4615 61.7301 38.8272 61.2839 42.1355C61.2481 42.3577 61.1315 42.559 60.9565 42.7006C60.7815 42.8423 60.5604 42.9144 60.3355 42.9032Z" fill="black"></path>
    <path d="M38.5904 25.8887C38.4755 25.6771 38.282 25.5194 38.0516 25.4496C37.8212 25.3799 37.5726 25.4038 37.3597 25.5161C33.668 27.4873 30.8749 30.8017 29.5581 34.7742C29.6047 34.8057 29.6465 34.8437 29.6823 34.8871L30.6871 36.1855V36.2758L30.8452 36.5919C31.3118 34.5801 32.2029 32.6911 33.4589 31.0516C34.7148 29.4121 36.3065 28.0599 38.1275 27.0855C38.3463 26.9867 38.5174 26.8058 38.604 26.5819C38.6906 26.358 38.6857 26.109 38.5904 25.8887Z" fill="black"></path>
    <path d="M38.2065 30.2807C38.0525 30.0969 37.8326 29.9809 37.594 29.9576C37.3554 29.9344 37.1172 30.0058 36.9307 30.1565C34.3804 32.2787 32.7599 35.3131 32.4146 38.6129C33.0856 38.958 33.6806 39.434 34.1645 40.0129C34.1645 40.0129 34.1645 39.9565 34.1645 39.9339C34.1635 38.3334 34.5163 36.7526 35.1974 35.3043C35.8786 33.8561 36.8714 32.5763 38.1049 31.5565C38.1955 31.4795 38.2701 31.3854 38.3242 31.2796C38.3784 31.1737 38.4112 31.0582 38.4206 30.9397C38.4301 30.8211 38.416 30.7019 38.3793 30.5888C38.3425 30.4757 38.2838 30.371 38.2065 30.2807Z" fill="black"></path>
    <path d="M62.9775 32.6742C62.8375 32.6733 62.6995 32.6403 62.5742 32.5777C62.4489 32.515 62.3397 32.4244 62.255 32.3129L56.813 25.0532C56.7389 24.9584 56.6842 24.8498 56.652 24.7337C56.6198 24.6177 56.6108 24.4965 56.6255 24.377C56.6402 24.2574 56.6782 24.142 56.7375 24.0372C56.7968 23.9324 56.8762 23.8403 56.9711 23.7661C57.066 23.692 57.1745 23.6373 57.2906 23.6051C57.4066 23.5729 57.5279 23.5639 57.6474 23.5786C57.7669 23.5933 57.8823 23.6314 57.9871 23.6907C58.092 23.75 58.1841 23.8293 58.2582 23.9242L62.9775 30.2242L67.6969 23.9242C67.8444 23.7343 68.0601 23.6092 68.2982 23.5755C68.5363 23.5418 68.7782 23.6021 68.9727 23.7436C69.1651 23.8893 69.292 24.1053 69.3259 24.3443C69.3597 24.5832 69.2977 24.8259 69.1533 25.0194L63.7114 32.279C63.6285 32.3977 63.5189 32.4953 63.3915 32.5639C63.264 32.6325 63.1222 32.6703 62.9775 32.6742Z" fill="black"></path>
    <path d="M62.9775 31.771C62.8579 31.771 62.7396 31.7473 62.6292 31.7012C62.5189 31.6551 62.4188 31.5875 62.3348 31.5025C62.2508 31.4174 62.1845 31.3165 62.1398 31.2056C62.0951 31.0947 62.0728 30.976 62.0743 30.8565V11.7984C62.0992 11.5748 62.2058 11.3683 62.3734 11.2183C62.5411 11.0683 62.7582 10.9854 62.9832 10.9854C63.2081 10.9854 63.4252 11.0683 63.5929 11.2183C63.7606 11.3683 63.8671 11.5748 63.892 11.7984V30.8565C63.892 31.099 63.7957 31.3317 63.6242 31.5032C63.4527 31.6747 63.2201 31.771 62.9775 31.771Z" fill="black"></path>
    <path d="M5.64515 45.1613C5.34571 45.1613 5.05853 45.0423 4.8468 44.8306C4.63506 44.6189 4.51611 44.3317 4.51611 44.0323V35C4.51611 34.7006 4.63506 34.4134 4.8468 34.2017C5.05853 33.9899 5.34571 33.871 5.64515 33.871H10.1613C10.4607 33.871 10.7479 33.9899 10.9596 34.2017C11.1714 34.4134 11.2903 34.7006 11.2903 35V39.5161C11.2903 39.8156 11.1714 40.1027 10.9596 40.3145C10.7479 40.5262 10.4607 40.6452 10.1613 40.6452C9.86184 40.6452 9.57466 40.5262 9.36293 40.3145C9.15119 40.1027 9.03224 39.8156 9.03224 39.5161V36.129H6.77418V44.0323C6.77418 44.3317 6.65523 44.6189 6.44349 44.8306C6.23176 45.0423 5.94458 45.1613 5.64515 45.1613Z" fill="black"></path>
    <path d="M41.6388 53.0645C40.7044 53.0631 39.8081 52.694 39.1436 52.0371L22.5807 35.4629L6.01782 52.0371C5.34484 52.6409 4.46604 52.9637 3.56224 52.9393C2.65844 52.9148 1.7984 52.5448 1.15908 51.9055C0.519767 51.2662 0.149797 50.4061 0.12532 49.5023C0.100843 48.5985 0.423723 47.7198 1.0275 47.0468L21.7791 26.2952C21.8841 26.1893 22.0089 26.1053 22.1465 26.048C22.2841 25.9907 22.4317 25.9612 22.5807 25.9612C22.7298 25.9612 22.8773 25.9907 23.0149 26.048C23.1525 26.1053 23.2774 26.1893 23.3823 26.2952L44.1339 47.0468C44.6228 47.5415 44.9549 48.1696 45.0884 48.8522C45.222 49.5348 45.1511 50.2417 44.8847 50.8842C44.6183 51.5267 44.1682 52.0763 43.5908 52.4642C43.0134 52.852 42.3344 53.0609 41.6388 53.0645ZM22.5807 32.7419C22.7293 32.7411 22.8766 32.7695 23.0142 32.8257C23.1517 32.8819 23.2768 32.9647 23.3823 33.0694L40.7468 50.4339C40.8631 50.5524 41.0019 50.6465 41.1551 50.7105C41.3083 50.7745 41.4728 50.8071 41.6388 50.8064C41.9742 50.8064 42.2958 50.6732 42.5329 50.4361C42.7701 50.1989 42.9033 49.8773 42.9033 49.5419C42.904 49.3759 42.8713 49.2114 42.8073 49.0582C42.7433 48.905 42.6493 48.7662 42.5307 48.65L22.5807 28.6887L2.63072 48.65C2.51215 48.7662 2.41809 48.905 2.3541 49.0582C2.2901 49.2114 2.25747 49.3759 2.25814 49.5419C2.25814 49.8773 2.39136 50.1989 2.6285 50.4361C2.86564 50.6732 3.18728 50.8064 3.52265 50.8064C3.68868 50.8071 3.85315 50.7745 4.00635 50.7105C4.15955 50.6465 4.29838 50.5524 4.4146 50.4339L21.7791 33.0694C21.8846 32.9647 22.0097 32.8819 22.1473 32.8257C22.2848 32.7695 22.4321 32.7411 22.5807 32.7419Z" fill="black"></path>
    <path d="M38.3872 70H6.7743C6.47486 70 6.18768 69.881 5.97595 69.6693C5.76421 69.4576 5.64526 69.1704 5.64526 68.871V49.6774C5.64526 49.378 5.76421 49.0908 5.97595 48.8791C6.18768 48.6674 6.47486 48.5484 6.7743 48.5484C7.07373 48.5484 7.36091 48.6674 7.57264 48.8791C7.78438 49.0908 7.90333 49.378 7.90333 49.6774V67.7419H37.2582V49.6774C37.2582 49.378 37.3771 49.0908 37.5889 48.8791C37.8006 48.6674 38.0878 48.5484 38.3872 48.5484C38.6866 48.5484 38.9738 48.6674 39.1855 48.8791C39.3973 49.0908 39.5162 49.378 39.5162 49.6774V68.871C39.5162 69.1704 39.3973 69.4576 39.1855 69.6693C38.9738 69.881 38.6866 70 38.3872 70Z" fill="black"></path>
    <path d="M30.4838 65.4839H14.6774C14.3779 65.4839 14.0908 65.3649 13.879 65.1532C13.6673 64.9414 13.5483 64.6543 13.5483 64.3548V50.8065C13.5483 50.507 13.6673 50.2199 13.879 50.0081C14.0908 49.7964 14.3779 49.6774 14.6774 49.6774H30.4838C30.7833 49.6774 31.0704 49.7964 31.2822 50.0081C31.4939 50.2199 31.6129 50.507 31.6129 50.8065V64.3548C31.6129 64.6543 31.4939 64.9414 31.2822 65.1532C31.0704 65.3649 30.7833 65.4839 30.4838 65.4839ZM15.8064 63.2258H29.3548V51.9355H15.8064V63.2258Z" fill="black"></path>
    <path d="M61.3515 41.0855C60.7785 41.6189 60.0853 42.0062 59.3306 42.2145C58.7055 44.3258 57.6524 46.2858 56.237 47.9726C54.1826 50.4562 51.4214 52.2561 48.3199 53.1333C45.2184 54.0105 41.9234 53.9235 38.8725 52.8839C38.8384 53.5001 38.7168 54.1084 38.5112 54.6903C41.8848 55.7743 45.5059 55.8223 48.907 54.8281C52.3081 53.8339 55.3332 51.8432 57.5919 49.1129C59.5205 46.8175 60.8475 44.0782 61.4532 41.1419L61.3515 41.0855Z" fill="black"></path>
  </g>
  <defs>
    <clipPath id="clip0_1322_1671">
      <rect width="69.3339" height="70" fill="white"></rect>
    </clipPath>
  </defs>
</svg>
