<?xml version="1.0" encoding="UTF-8"?>
<svg xmlns="http://www.w3.org/2000/svg" width="56" height="46" viewBox="0 0 56 46" fill="none">
  <g clip-path="url(#clip0_1246_896)">
    <path d="M32 36H25C24.7348 36 24.4804 35.8946 24.2929 35.7071C24.1054 35.5196 24 35.2652 24 35C24 34.7348 24.1054 34.4805 24.2929 34.2929C24.4804 34.1054 24.7348 34 25 34H32C32.5304 34 33.0391 33.7893 33.4142 33.4142C33.7893 33.0392 34 32.5304 34 32C34 31.4696 33.7893 30.9609 33.4142 30.5858C33.0391 30.2107 32.5304 30 32 30H24.61C22.4534 29.9971 20.3445 30.6339 18.55 31.83C18.3873 31.9393 18.196 31.9985 18 32H13C12.7348 32 12.4804 31.8946 12.2929 31.7071C12.1054 31.5196 12 31.2652 12 31C12 30.7348 12.1054 30.4805 12.2929 30.2929C12.4804 30.1054 12.7348 30 13 30H17.7C19.7667 28.6906 22.1635 27.9969 24.61 28H32C33.0609 28 34.0783 28.4214 34.8284 29.1716C35.5786 29.9217 36 30.9391 36 32C36 33.0609 35.5786 34.0783 34.8284 34.8284C34.0783 35.5786 33.0609 36 32 36Z" fill="white"></path>
    <path d="M42.8599 46H20.2199C18.5891 46.0007 16.9888 45.5583 15.59 44.72L12.4899 42.86C12.2897 42.7144 12.1507 42.4997 12.0996 42.2574C12.0486 42.0152 12.0892 41.7627 12.2136 41.5486C12.3381 41.3346 12.5374 41.1744 12.7732 41.0989C13.009 41.0234 13.2643 41.0381 13.4899 41.14L16.59 43C17.6801 43.6551 18.9281 44.0008 20.2 44H42.84C44.022 44.0022 45.1926 43.7701 46.2843 43.3169C47.376 42.8638 48.367 42.1986 49.2 41.36L53.4699 37.1C53.7918 36.7708 53.9744 36.3303 53.9799 35.87V35.74C53.9799 35.2785 53.7966 34.836 53.4703 34.5096C53.144 34.1833 52.7014 34 52.2399 34H52.1099C51.6496 34.0055 51.2091 34.1882 50.88 34.51L46.88 38.51C46.4148 38.974 45.8627 39.3418 45.2553 39.5923C44.6478 39.8428 43.997 39.9712 43.34 39.97H32.6599C32.0029 39.9712 31.3521 39.8428 30.7446 39.5923C30.1372 39.3418 29.5851 38.974 29.1199 38.51L26.2899 35.68C26.1016 35.4917 25.9959 35.2363 25.9959 34.97C25.9959 34.7037 26.1016 34.4483 26.2899 34.26C26.4782 34.0717 26.7336 33.9659 26.9999 33.9659C27.2662 33.9659 27.5217 34.0717 27.71 34.26L30.5399 37.09C31.102 37.6528 31.8645 37.9693 32.6599 37.97H43.34C44.1354 37.9693 44.8979 37.6528 45.46 37.09L49.46 33.09C50.1607 32.3899 51.1094 31.9946 52.0999 31.99H52.2299C53.221 31.9926 54.1708 32.3875 54.8716 33.0883C55.5724 33.7892 55.9673 34.7389 55.9699 35.73V35.86C55.9653 36.8505 55.57 37.7992 54.8699 38.5L50.6099 42.77C49.5951 43.7931 48.3879 44.6052 47.0578 45.1596C45.7277 45.714 44.301 45.9996 42.8599 46Z" fill="white"></path>
    <path d="M13 46H1C0.734784 46 0.480444 45.8946 0.292908 45.7071C0.105371 45.5196 0 45.2652 0 45V29C0 28.7348 0.105371 28.4804 0.292908 28.2929C0.480444 28.1054 0.734784 28 1 28H13C13.2652 28 13.5196 28.1054 13.7071 28.2929C13.8946 28.4804 14 28.7348 14 29V45C14 45.2652 13.8946 45.5196 13.7071 45.7071C13.5196 45.8946 13.2652 46 13 46ZM2 44H12V30H2V44Z" fill="white"></path>
    <path d="M38 39.9999C37.8089 39.9999 37.6217 39.9452 37.4607 39.8421C37.2997 39.739 37.1717 39.5919 37.0917 39.4183C37.0117 39.2447 36.9832 39.0517 37.0095 38.8624C37.0358 38.673 37.1158 38.4952 37.24 38.3499L42.42 32.3499C42.9171 31.7698 43.5799 31.3559 44.3193 31.1637C45.0586 30.9716 45.8391 31.0104 46.5557 31.2751C47.2723 31.5397 47.8907 32.0174 48.3277 32.644C48.7647 33.2706 48.9993 34.016 49 34.7799V35.9999C49 36.2652 48.8947 36.5195 48.7071 36.707C48.5196 36.8946 48.2653 36.9999 48 36.9999C47.7348 36.9999 47.4805 36.8946 47.293 36.707C47.1054 36.5195 47 36.2652 47 35.9999V34.7399C47 34.2784 46.8167 33.8359 46.4904 33.5096C46.1641 33.1833 45.7215 32.9999 45.2601 32.9999C45.0088 32.999 44.7604 33.0532 44.5324 33.1586C44.3043 33.264 44.1022 33.418 43.94 33.6099L38.7601 39.6099C38.67 39.727 38.5552 39.8227 38.4238 39.8902C38.2924 39.9576 38.1477 39.9951 38 39.9999Z" fill="white"></path>
    <path d="M14 23V3C14 2.20435 14.3161 1.4413 14.8787 0.878693C15.4413 0.316083 16.2044 0 17 0H49C49.7957 0 50.5587 0.316083 51.1213 0.878693C51.6839 1.4413 52 2.20435 52 3V23C52 23.7956 51.6839 24.5587 51.1213 25.1213C50.5587 25.6839 49.7957 26 49 26H17C16.2044 26 15.4413 25.6839 14.8787 25.1213C14.3161 24.5587 14 23.7956 14 23ZM50 3C50 2.73478 49.8946 2.48044 49.7071 2.29291C49.5196 2.10537 49.2652 2 49 2H17C16.7348 2 16.4804 2.10537 16.2929 2.29291C16.1054 2.48044 16 2.73478 16 3V23C16 23.2652 16.1054 23.5196 16.2929 23.7071C16.4804 23.8946 16.7348 24 17 24H49C49.2652 24 49.5196 23.8946 49.7071 23.7071C49.8946 23.5196 50 23.2652 50 23V3Z" fill="white"></path>
    <path d="M18.0001 18C17.9959 17.2256 18.2165 16.4667 18.6353 15.8153C19.0541 15.1639 19.653 14.648 20.3593 14.3304C21.0655 14.0127 21.8487 13.9069 22.614 14.0258C23.3792 14.1447 24.0934 14.4831 24.67 15C24.7736 15.0935 24.8566 15.2076 24.9134 15.3351C24.9702 15.4625 24.9997 15.6005 25.0001 15.74C24.9997 15.8795 24.9702 16.0175 24.9134 16.1449C24.8566 16.2724 24.7736 16.3865 24.67 16.48C24.4572 16.6677 24.2868 16.8985 24.17 17.1571C24.0533 17.4158 23.9929 17.6963 23.9929 17.98C23.9929 18.2638 24.0533 18.5443 24.17 18.8029C24.2868 19.0615 24.4572 19.2923 24.67 19.48C24.7736 19.5735 24.8566 19.6877 24.9134 19.8151C24.9702 19.9425 24.9997 20.0805 25.0001 20.22C24.9997 20.3596 24.9702 20.4975 24.9134 20.6249C24.8566 20.7524 24.7736 20.8665 24.67 20.96C24.0934 21.4769 23.3792 21.8154 22.614 21.9342C21.8487 22.0531 21.0655 21.9473 20.3593 21.6296C19.653 21.312 19.0541 20.7961 18.6353 20.1447C18.2165 19.4933 17.9959 18.7344 18.0001 17.96V18ZM22.5101 16.07C22.3443 16.0222 22.1725 15.9986 22.0001 16C21.4696 16 20.9609 16.2107 20.5859 16.5858C20.2108 16.9609 20.0001 17.4696 20.0001 18C20.0001 18.5304 20.2108 19.0392 20.5859 19.4142C20.9609 19.7893 21.4696 20 22.0001 20C22.1725 20.0014 22.3443 19.9778 22.5101 19.93C22.1844 19.3389 22.0137 18.6749 22.0137 18C22.0137 17.3251 22.1844 16.6612 22.5101 16.07Z" fill="white"></path>
    <path d="M23 20.22C23.0007 19.9721 23.0933 19.7333 23.26 19.55C23.438 19.3541 23.6863 19.2368 23.9506 19.2237C24.2149 19.2105 24.4735 19.3027 24.67 19.48C24.9587 19.7346 25.3147 19.9004 25.6953 19.9577C26.0759 20.015 26.465 19.9612 26.8158 19.8028C27.1666 19.6445 27.4643 19.3882 27.6731 19.0649C27.8819 18.7416 27.9929 18.3649 27.9929 17.98C27.9929 17.5951 27.8819 17.2184 27.6731 16.895C27.4643 16.5717 27.1666 16.3155 26.8158 16.1571C26.465 15.9987 26.0759 15.9449 25.6953 16.0022C25.3147 16.0595 24.9587 16.2254 24.67 16.48C24.5746 16.5773 24.4602 16.654 24.334 16.7055C24.2078 16.757 24.0725 16.7822 23.9362 16.7795C23.7999 16.7767 23.6656 16.7462 23.5416 16.6897C23.4176 16.6331 23.3064 16.5519 23.2149 16.4509C23.1234 16.3498 23.0535 16.2311 23.0095 16.1021C22.9656 15.9731 22.9485 15.8364 22.9593 15.7006C22.9701 15.5647 23.0085 15.4324 23.0723 15.3119C23.136 15.1915 23.2238 15.0853 23.33 15C23.9035 14.4788 24.6159 14.1353 25.3808 14.0114C26.1457 13.8875 26.9302 13.9884 27.6388 14.302C28.3475 14.6155 28.9498 15.1281 29.3726 15.7775C29.7954 16.4269 30.0205 17.1851 30.0205 17.96C30.0205 18.7348 29.7954 19.4931 29.3726 20.1424C28.9498 20.7918 28.3475 21.3044 27.6388 21.6179C26.9302 21.9315 26.1457 22.0324 25.3808 21.9085C24.6159 21.7846 23.9035 21.4412 23.33 20.92C23.2313 20.8311 23.1512 20.7234 23.0946 20.6032C23.0379 20.483 23.0058 20.3527 23 20.22Z" fill="white"></path>
    <path d="M34 21C34 20.7348 34.1054 20.4804 34.2929 20.2929C34.4804 20.1054 34.7348 20 35 20H47C47.2652 20 47.5196 20.1054 47.7071 20.2929C47.8946 20.4804 48 20.7348 48 21C48 21.2652 47.8946 21.5196 47.7071 21.7071C47.5196 21.8946 47.2652 22 47 22H35C34.7348 22 34.4804 21.8946 34.2929 21.7071C34.1054 21.5196 34 21.2652 34 21Z" fill="white"></path>
    <path d="M34 14C34 13.7348 34.1054 13.4804 34.2929 13.2929C34.4804 13.1054 34.7348 13 35 13H47C47.2652 13 47.5196 13.1054 47.7071 13.2929C47.8946 13.4804 48 13.7348 48 14C48 14.2652 47.8946 14.5196 47.7071 14.7071C47.5196 14.8946 47.2652 15 47 15H35C34.7348 15 34.4804 14.8946 34.2929 14.7071C34.1054 14.5196 34 14.2652 34 14Z" fill="white"></path>
    <path d="M40 17C40 16.7348 40.1054 16.4804 40.2929 16.2929C40.4804 16.1054 40.7348 16 41 16H47C47.2652 16 47.5196 16.1054 47.7071 16.2929C47.8946 16.4804 48 16.7348 48 17C48 17.2652 47.8946 17.5196 47.7071 17.7071C47.5196 17.8946 47.2652 18 47 18H41C40.7348 18 40.4804 17.8946 40.2929 17.7071C40.1054 17.5196 40 17.2652 40 17Z" fill="white"></path>
  </g>
  <defs>
    <clipPath id="clip0_1246_896">
      <rect width="56" height="46" fill="white"></rect>
    </clipPath>
  </defs>
</svg>
