<?xml version="1.0" encoding="UTF-8"?>
<svg xmlns="http://www.w3.org/2000/svg" width="70" height="70" viewBox="0 0 70 70" fill="none">
  <g clip-path="url(#clip0_1322_1479)">
    <path d="M5.64515 45.1613C5.34571 45.1613 5.05853 45.0423 4.8468 44.8306C4.63506 44.6189 4.51611 44.3317 4.51611 44.0323V35C4.51611 34.7006 4.63506 34.4134 4.8468 34.2017C5.05853 33.9899 5.34571 33.871 5.64515 33.871H10.1613C10.4607 33.871 10.7479 33.9899 10.9596 34.2017C11.1714 34.4134 11.2903 34.7006 11.2903 35V39.5161C11.2903 39.8156 11.1714 40.1027 10.9596 40.3145C10.7479 40.5262 10.4607 40.6452 10.1613 40.6452C9.86184 40.6452 9.57466 40.5262 9.36293 40.3145C9.15119 40.1027 9.03224 39.8156 9.03224 39.5161V36.129H6.77418V44.0323C6.77418 44.3317 6.65523 44.6189 6.44349 44.8306C6.23176 45.0423 5.94458 45.1613 5.64515 45.1613Z" fill="black"></path>
    <path d="M68.8709 60.9677H38.387C38.0876 60.9677 37.8004 60.8488 37.5887 60.637C37.377 60.4253 37.258 60.1381 37.258 59.8387C37.258 59.5393 37.377 59.2521 37.5887 59.0404C37.8004 58.8286 38.0876 58.7097 38.387 58.7097H67.7419V2.25806H20.3225V30.4839C20.3225 30.7833 20.2036 31.0705 19.9918 31.2822C19.7801 31.4939 19.4929 31.6129 19.1935 31.6129C18.894 31.6129 18.6069 31.4939 18.3951 31.2822C18.1834 31.0705 18.0645 30.7833 18.0645 30.4839V1.12903C18.0645 0.829594 18.1834 0.542437 18.3951 0.330702C18.6069 0.118968 18.894 0 19.1935 0H68.8709C69.1703 0 69.4575 0.118968 69.6693 0.330702C69.881 0.542437 69.9999 0.829594 69.9999 1.12903V59.8387C69.9999 60.1381 69.881 60.4253 69.6693 60.637C69.4575 60.8488 69.1703 60.9677 68.8709 60.9677Z" fill="black"></path>
    <path d="M41.6388 53.0645C40.7044 53.0631 39.8081 52.694 39.1436 52.0371L22.5807 35.4629L6.01781 52.0371C5.34483 52.6409 4.46602 52.9637 3.56223 52.9393C2.65843 52.9148 1.79839 52.5448 1.15907 51.9055C0.519755 51.2662 0.149797 50.4061 0.12532 49.5023C0.100843 48.5985 0.42371 47.7198 1.02749 47.0468L21.7791 26.2952C21.8841 26.1893 22.0089 26.1053 22.1465 26.048C22.2841 25.9907 22.4317 25.9612 22.5807 25.9612C22.7298 25.9612 22.8773 25.9907 23.0149 26.048C23.1525 26.1053 23.2774 26.1893 23.3823 26.2952L44.1339 47.0468C44.6228 47.5415 44.9549 48.1696 45.0884 48.8522C45.222 49.5348 45.1511 50.2417 44.8847 50.8842C44.6183 51.5267 44.1682 52.0763 43.5908 52.4642C43.0134 52.852 42.3343 53.0609 41.6388 53.0645ZM22.5807 32.7419C22.7293 32.7411 22.8766 32.7695 23.0142 32.8257C23.1517 32.8819 23.2768 32.9647 23.3823 33.0694L40.7468 50.4339C40.8631 50.5524 41.0019 50.6465 41.1551 50.7105C41.3083 50.7745 41.4727 50.8071 41.6388 50.8064C41.9741 50.8064 42.2958 50.6732 42.5329 50.4361C42.7701 50.1989 42.9033 49.8773 42.9033 49.5419C42.904 49.3759 42.8713 49.2114 42.8073 49.0582C42.7433 48.905 42.6493 48.7662 42.5307 48.65L22.5807 28.6887L2.63071 48.65C2.51214 48.7662 2.41808 48.905 2.35408 49.0582C2.29009 49.2114 2.25746 49.3759 2.25813 49.5419C2.25813 49.8773 2.39136 50.1989 2.6285 50.4361C2.86564 50.6732 3.18728 50.8064 3.52265 50.8064C3.68867 50.8071 3.85315 50.7745 4.00635 50.7105C4.15955 50.6465 4.29836 50.5524 4.41458 50.4339L21.7791 33.0694C21.8846 32.9647 22.0097 32.8819 22.1473 32.8257C22.2848 32.7695 22.4321 32.7411 22.5807 32.7419Z" fill="black"></path>
    <path d="M38.3872 70H6.7743C6.47486 70 6.18768 69.881 5.97595 69.6693C5.76421 69.4576 5.64526 69.1704 5.64526 68.871V49.6774C5.64526 49.378 5.76421 49.0908 5.97595 48.8791C6.18768 48.6674 6.47486 48.5484 6.7743 48.5484C7.07373 48.5484 7.36091 48.6674 7.57264 48.8791C7.78438 49.0908 7.90333 49.378 7.90333 49.6774V67.7419H37.2582V49.6774C37.2582 49.378 37.3771 49.0908 37.5889 48.8791C37.8006 48.6674 38.0878 48.5484 38.3872 48.5484C38.6866 48.5484 38.9738 48.6674 39.1855 48.8791C39.3973 49.0908 39.5162 49.378 39.5162 49.6774V68.871C39.5162 69.1704 39.3973 69.4576 39.1855 69.6693C38.9738 69.881 38.6866 70 38.3872 70Z" fill="black"></path>
    <path d="M39.5161 20.3226H23.7096C23.4102 20.3226 23.123 20.2036 22.9113 19.9919C22.6995 19.7801 22.5806 19.493 22.5806 19.1935V5.64515C22.5806 5.34571 22.6995 5.05855 22.9113 4.84682C23.123 4.63508 23.4102 4.51611 23.7096 4.51611H39.5161C39.8155 4.51611 40.1027 4.63508 40.3144 4.84682C40.5261 5.05855 40.6451 5.34571 40.6451 5.64515V19.1935C40.6451 19.493 40.5261 19.7801 40.3144 19.9919C40.1027 20.2036 39.8155 20.3226 39.5161 20.3226ZM24.8386 18.0645H38.387V6.77418H24.8386V18.0645Z" fill="black"></path>
    <path d="M44.0324 6.77418C44.6559 6.77418 45.1614 6.26869 45.1614 5.64515C45.1614 5.0216 44.6559 4.51611 44.0324 4.51611C43.4088 4.51611 42.9033 5.0216 42.9033 5.64515C42.9033 6.26869 43.4088 6.77418 44.0324 6.77418Z" fill="black"></path>
    <path d="M64.3549 20.3226C64.9784 20.3226 65.4839 19.8171 65.4839 19.1935C65.4839 18.57 64.9784 18.0645 64.3549 18.0645C63.7313 18.0645 63.2258 18.57 63.2258 19.1935C63.2258 19.8171 63.7313 20.3226 64.3549 20.3226Z" fill="black"></path>
    <path d="M64.3549 6.77418H48.5485C48.249 6.77418 47.9619 6.65521 47.7501 6.44348C47.5384 6.23174 47.4194 5.94458 47.4194 5.64515C47.4194 5.34571 47.5384 5.05855 47.7501 4.84682C47.9619 4.63508 48.249 4.51611 48.5485 4.51611H64.3549C64.6544 4.51611 64.9415 4.63508 65.1533 4.84682C65.365 5.05855 65.4839 5.34571 65.4839 5.64515C65.4839 5.94458 65.365 6.23174 65.1533 6.44348C64.9415 6.65521 64.6544 6.77418 64.3549 6.77418Z" fill="black"></path>
    <path d="M64.3549 11.2904H44.0324C43.7329 11.2904 43.4457 11.1714 43.234 10.9596C43.0223 10.7479 42.9033 10.4608 42.9033 10.1613C42.9033 9.86188 43.0223 9.57472 43.234 9.36299C43.4457 9.15126 43.7329 9.03229 44.0324 9.03229H64.3549C64.6544 9.03229 64.9415 9.15126 65.1533 9.36299C65.365 9.57472 65.484 9.86188 65.484 10.1613C65.484 10.4608 65.365 10.7479 65.1533 10.9596C64.9415 11.1714 64.6544 11.2904 64.3549 11.2904Z" fill="black"></path>
    <path d="M64.3549 15.8065H44.0324C43.7329 15.8065 43.4457 15.6875 43.234 15.4758C43.0223 15.264 42.9033 14.9769 42.9033 14.6774C42.9033 14.378 43.0223 14.0908 43.234 13.8791C43.4457 13.6674 43.7329 13.5484 44.0324 13.5484H64.3549C64.6544 13.5484 64.9415 13.6674 65.1533 13.8791C65.365 14.0908 65.484 14.378 65.484 14.6774C65.484 14.9769 65.365 15.264 65.1533 15.4758C64.9415 15.6875 64.6544 15.8065 64.3549 15.8065Z" fill="black"></path>
    <path d="M59.8388 20.3226H44.0324C43.7329 20.3226 43.4457 20.2036 43.234 19.9919C43.0223 19.7801 42.9033 19.493 42.9033 19.1935C42.9033 18.8941 43.0223 18.607 43.234 18.3952C43.4457 18.1835 43.7329 18.0645 44.0324 18.0645H59.8388C60.1382 18.0645 60.4254 18.1835 60.6372 18.3952C60.8489 18.607 60.9678 18.8941 60.9678 19.1935C60.9678 19.493 60.8489 19.7801 60.6372 19.9919C60.4254 20.2036 60.1382 20.3226 59.8388 20.3226Z" fill="black"></path>
    <path d="M64.3548 38.3871H42.9032C42.6038 38.3871 42.3166 38.2681 42.1049 38.0564C41.8931 37.8447 41.7742 37.5575 41.7742 37.2581C41.7742 36.9586 41.8931 36.6715 42.1049 36.4597C42.3166 36.248 42.6038 36.129 42.9032 36.129H64.3548C64.6543 36.129 64.9414 36.248 65.1532 36.4597C65.3649 36.6715 65.4838 36.9586 65.4838 37.2581C65.4838 37.5575 65.3649 37.8447 65.1532 38.0564C64.9414 38.2681 64.6543 38.3871 64.3548 38.3871Z" fill="black"></path>
    <path d="M64.3548 33.871H38.3871C38.0877 33.871 37.8005 33.752 37.5887 33.5403C37.377 33.3285 37.2581 33.0414 37.2581 32.7419C37.2581 32.4425 37.377 32.1554 37.5887 31.9436C37.8005 31.7319 38.0877 31.6129 38.3871 31.6129H64.3548C64.6543 31.6129 64.9414 31.7319 65.1532 31.9436C65.3649 32.1554 65.4839 32.4425 65.4839 32.7419C65.4839 33.0414 65.3649 33.3285 65.1532 33.5403C64.9414 33.752 64.6543 33.871 64.3548 33.871Z" fill="black"></path>
    <path d="M64.3549 56.4516H48.5485C48.249 56.4516 47.9619 56.3327 47.7501 56.1209C47.5384 55.9092 47.4194 55.622 47.4194 55.3226V41.7742C47.4194 41.4748 47.5384 41.1876 47.7501 40.9759C47.9619 40.7641 48.249 40.6452 48.5485 40.6452H64.3549C64.6544 40.6452 64.9415 40.7641 65.1533 40.9759C65.365 41.1876 65.4839 41.4748 65.4839 41.7742V55.3226C65.4839 55.622 65.365 55.9092 65.1533 56.1209C64.9415 56.3327 64.6544 56.4516 64.3549 56.4516ZM49.6775 54.1936H63.2259V42.9032H49.6775V54.1936Z" fill="black"></path>
    <path d="M64.3547 29.3549H30.4838C30.1843 29.3549 29.8972 29.2359 29.6854 29.0242C29.4737 28.8124 29.3547 28.5253 29.3547 28.2258C29.3547 27.9264 29.4737 27.6392 29.6854 27.4275C29.8972 27.2158 30.1843 27.0968 30.4838 27.0968H64.3547C64.6542 27.0968 64.9413 27.2158 65.1531 27.4275C65.3648 27.6392 65.4838 27.9264 65.4838 28.2258C65.4838 28.5253 65.3648 28.8124 65.1531 29.0242C64.9413 29.2359 64.6542 29.3549 64.3547 29.3549Z" fill="black"></path>
    <path d="M64.3547 24.8387H30.4838C30.1843 24.8387 29.8972 24.7197 29.6854 24.508C29.4737 24.2963 29.3547 24.0091 29.3547 23.7097C29.3547 23.4102 29.4737 23.1231 29.6854 22.9113C29.8972 22.6996 30.1843 22.5806 30.4838 22.5806H64.3547C64.6542 22.5806 64.9413 22.6996 65.1531 22.9113C65.3648 23.1231 65.4838 23.4102 65.4838 23.7097C65.4838 24.0091 65.3648 24.2963 65.1531 24.508C64.9413 24.7197 64.6542 24.8387 64.3547 24.8387Z" fill="black"></path>
    <path d="M31.6129 54.1936C32.2365 54.1936 32.742 53.6881 32.742 53.0645C32.742 52.441 32.2365 51.9355 31.6129 51.9355C30.9894 51.9355 30.4839 52.441 30.4839 53.0645C30.4839 53.6881 30.9894 54.1936 31.6129 54.1936Z" fill="black"></path>
    <path d="M13.5485 54.1936C14.172 54.1936 14.6775 53.6881 14.6775 53.0645C14.6775 52.441 14.172 51.9355 13.5485 51.9355C12.9249 51.9355 12.4194 52.441 12.4194 53.0645C12.4194 53.6881 12.9249 54.1936 13.5485 54.1936Z" fill="black"></path>
    <path d="M22.5806 60.9677C21.3828 60.9677 20.2341 60.4919 19.3872 59.645C18.5403 58.798 18.0645 57.6494 18.0645 56.4516C18.0645 56.1522 18.1834 55.865 18.3951 55.6533C18.6069 55.4415 18.894 55.3226 19.1935 55.3226C19.4929 55.3226 19.7801 55.4415 19.9918 55.6533C20.2036 55.865 20.3225 56.1522 20.3225 56.4516C20.3225 56.8982 20.455 57.3348 20.7031 57.7061C20.9512 58.0775 21.3039 58.3669 21.7165 58.5378C22.1291 58.7087 22.5831 58.7534 23.0211 58.6663C23.4591 58.5792 23.8615 58.3641 24.1773 58.0483C24.4931 57.7325 24.7081 57.3301 24.7953 56.8921C24.8824 56.4541 24.8377 56.0001 24.6668 55.5875C24.4959 55.1749 24.2064 54.8222 23.8351 54.5741C23.4638 54.326 23.0272 54.1935 22.5806 54.1935C21.6874 54.1935 20.8142 53.9287 20.0716 53.4324C19.3289 52.9362 18.75 52.2309 18.4082 51.4057C18.0664 50.5804 17.977 49.6724 18.1512 48.7963C18.3255 47.9203 18.7556 47.1156 19.3872 46.484C20.0188 45.8524 20.8235 45.4223 21.6995 45.2481C22.5756 45.0738 23.4836 45.1632 24.3088 45.505C25.134 45.8469 25.8394 46.4257 26.3356 47.1684C26.8318 47.911 27.0967 48.7842 27.0967 49.6774C27.0967 49.9768 26.9778 50.264 26.766 50.4757C26.5543 50.6875 26.2671 50.8064 25.9677 50.8064C25.6682 50.8064 25.3811 50.6875 25.1693 50.4757C24.9576 50.264 24.8386 49.9768 24.8386 49.6774C24.8386 49.2308 24.7062 48.7942 24.4581 48.4229C24.21 48.0516 23.8573 47.7621 23.4447 47.5912C23.0321 47.4203 22.5781 47.3756 22.1401 47.4627C21.702 47.5498 21.2997 47.7649 20.9839 48.0807C20.6681 48.3965 20.453 48.7989 20.3659 49.2369C20.2788 49.6749 20.3235 50.1289 20.4944 50.5415C20.6653 50.9542 20.9547 51.3068 21.3261 51.5549C21.6974 51.803 22.134 51.9355 22.5806 51.9355C23.7783 51.9355 24.927 52.4113 25.774 53.2582C26.6209 54.1051 27.0967 55.2538 27.0967 56.4516C27.0967 57.6494 26.6209 58.798 25.774 59.645C24.927 60.4919 23.7783 60.9677 22.5806 60.9677Z" fill="black"></path>
    <path d="M22.5807 47.4194C22.2813 47.4194 21.9941 47.3004 21.7823 47.0887C21.5706 46.8769 21.4517 46.5898 21.4517 46.2903V44.0323C21.4517 43.7328 21.5706 43.4457 21.7823 43.2339C21.9941 43.0222 22.2813 42.9032 22.5807 42.9032C22.8801 42.9032 23.1673 43.0222 23.379 43.2339C23.5908 43.4457 23.7097 43.7328 23.7097 44.0323V46.2903C23.7097 46.5898 23.5908 46.8769 23.379 47.0887C23.1673 47.3004 22.8801 47.4194 22.5807 47.4194Z" fill="black"></path>
    <path d="M22.5807 63.2258C22.2813 63.2258 21.9941 63.1068 21.7823 62.8951C21.5706 62.6834 21.4517 62.3962 21.4517 62.0968V59.8387C21.4517 59.5393 21.5706 59.2521 21.7823 59.0404C21.9941 58.8287 22.2813 58.7097 22.5807 58.7097C22.8801 58.7097 23.1673 58.8287 23.379 59.0404C23.5908 59.2521 23.7097 59.5393 23.7097 59.8387V62.0968C23.7097 62.3962 23.5908 62.6834 23.379 62.8951C23.1673 63.1068 22.8801 63.2258 22.5807 63.2258Z" fill="black"></path>
    <path d="M38.3871 65.4839H31.6129C31.3135 65.4839 31.0263 65.3649 30.8146 65.1532C30.6028 64.9414 30.4839 64.6543 30.4839 64.3548C30.4839 64.0554 30.6028 63.7682 30.8146 63.5565C31.0263 63.3448 31.3135 63.2258 31.6129 63.2258H38.3871C38.6866 63.2258 38.9737 63.3448 39.1855 63.5565C39.3972 63.7682 39.5161 64.0554 39.5161 64.3548C39.5161 64.6543 39.3972 64.9414 39.1855 65.1532C38.9737 65.3649 38.6866 65.4839 38.3871 65.4839Z" fill="black"></path>
    <path d="M13.5485 65.4839H6.7743C6.47486 65.4839 6.18768 65.3649 5.97595 65.1532C5.76421 64.9414 5.64526 64.6543 5.64526 64.3548C5.64526 64.0554 5.76421 63.7682 5.97595 63.5565C6.18768 63.3448 6.47486 63.2258 6.7743 63.2258H13.5485C13.8479 63.2258 14.1351 63.3448 14.3468 63.5565C14.5586 63.7682 14.6775 64.0554 14.6775 64.3548C14.6775 64.6543 14.5586 64.9414 14.3468 65.1532C14.1351 65.3649 13.8479 65.4839 13.5485 65.4839Z" fill="black"></path>
  </g>
  <defs>
    <clipPath id="clip0_1322_1479">
      <rect width="70" height="70" fill="white"></rect>
    </clipPath>
  </defs>
</svg>
