<?xml version="1.0" encoding="UTF-8"?>
<svg xmlns="http://www.w3.org/2000/svg" width="61" height="62" viewBox="0 0 61 62" fill="none">
  <g clip-path="url(#clip0_1246_907)">
    <path d="M46 30C43.0333 30 40.1332 29.1203 37.6664 27.4721C35.1997 25.8238 33.2771 23.4811 32.1418 20.7402C31.0065 17.9994 30.7095 14.9834 31.2882 12.0737C31.867 9.16397 33.2956 6.4912 35.3934 4.39342C37.4912 2.29563 40.1639 0.867 43.0736 0.288222C45.9834 -0.290556 48.9994 0.00651479 51.7403 1.14183C54.4811 2.27714 56.8238 4.19972 58.4721 6.66646C60.1203 9.13319 61 12.0333 61 15C61 18.9783 59.4197 22.7936 56.6066 25.6066C53.7936 28.4197 49.9783 30 46 30ZM46 2.00001C43.4288 2.00001 40.9154 2.76244 38.7776 4.1909C36.6398 5.61936 34.9735 7.64969 33.9896 10.0251C33.0056 12.4006 32.7482 15.0145 33.2498 17.5362C33.7514 20.058 34.9895 22.3743 36.8076 24.1924C38.6257 26.0105 40.9421 27.2486 43.4638 27.7502C45.9856 28.2518 48.5995 27.9944 50.9749 27.0105C53.3503 26.0265 55.3807 24.3603 56.8091 22.2224C58.2376 20.0846 59 17.5712 59 15C59 11.5522 57.6304 8.2456 55.1924 5.80763C52.7544 3.36966 49.4478 2.00001 46 2.00001Z" fill="white"></path>
    <path d="M50 20C49.7836 20 49.5731 19.9298 49.4 19.8L45.4 16.8C45.2758 16.7068 45.175 16.5861 45.1056 16.4472C45.0361 16.3083 45 16.1552 45 16V9C45 8.73478 45.1054 8.48044 45.2929 8.29291C45.4804 8.10537 45.7348 8 46 8C46.2652 8 46.5196 8.10537 46.7071 8.29291C46.8946 8.48044 47 8.73478 47 9V15.5L50.6 18.2C50.8122 18.3591 50.9524 18.596 50.9899 18.8586C51.0275 19.1211 50.9591 19.3878 50.8 19.6C50.7069 19.7242 50.5861 19.825 50.4472 19.8944C50.3084 19.9638 50.1552 20 50 20Z" fill="white"></path>
    <path d="M46 6C45.7348 6 45.4804 5.89463 45.2929 5.70709C45.1054 5.51956 45 5.26522 45 5V1C45 0.734784 45.1054 0.480444 45.2929 0.292908C45.4804 0.105371 45.7348 0 46 0C46.2652 0 46.5196 0.105371 46.7071 0.292908C46.8946 0.480444 47 0.734784 47 1V5C47 5.26522 46.8946 5.51956 46.7071 5.70709C46.5196 5.89463 46.2652 6 46 6Z" fill="white"></path>
    <path d="M38.93 8.93002C38.7984 8.93078 38.668 8.90557 38.5461 8.8558C38.4243 8.80604 38.3135 8.73273 38.22 8.64005L35.39 5.81003C35.2017 5.62172 35.0959 5.36634 35.0959 5.10004C35.0959 4.83373 35.2017 4.57835 35.39 4.39005C35.5783 4.20174 35.8338 4.09595 36.1001 4.09595C36.3664 4.09595 36.6217 4.20174 36.81 4.39005L39.64 7.22003C39.7338 7.31299 39.8082 7.42358 39.8589 7.54544C39.9097 7.6673 39.9358 7.79801 39.9358 7.93002C39.9358 8.06204 39.9097 8.19275 39.8589 8.31461C39.8082 8.43646 39.7338 8.54708 39.64 8.64005C39.5466 8.73273 39.4358 8.80604 39.3139 8.8558C39.1921 8.90557 39.0616 8.93078 38.93 8.93002Z" fill="white"></path>
    <path d="M36 16H32C31.7348 16 31.4804 15.8946 31.2929 15.7071C31.1054 15.5196 31 15.2652 31 15C31 14.7348 31.1054 14.4804 31.2929 14.2929C31.4804 14.1054 31.7348 14 32 14H36C36.2652 14 36.5196 14.1054 36.7071 14.2929C36.8946 14.4804 37 14.7348 37 15C37 15.2652 36.8946 15.5196 36.7071 15.7071C36.5196 15.8946 36.2652 16 36 16Z" fill="white"></path>
    <path d="M36.1 25.9C35.9684 25.9008 35.838 25.8755 35.7161 25.8257C35.5943 25.776 35.4835 25.7027 35.39 25.61C35.2963 25.517 35.2219 25.4065 35.1711 25.2846C35.1204 25.1627 35.0942 25.032 35.0942 24.9C35.0942 24.768 35.1204 24.6373 35.1711 24.5154C35.2219 24.3936 35.2963 24.283 35.39 24.19L38.22 21.36C38.4083 21.1717 38.6637 21.0659 38.93 21.0659C39.1963 21.0659 39.4517 21.1717 39.64 21.36C39.8283 21.5483 39.9341 21.8037 39.9341 22.07C39.9341 22.3363 39.8283 22.5917 39.64 22.78L36.81 25.61C36.7166 25.7027 36.6058 25.776 36.4839 25.8257C36.3621 25.8755 36.2316 25.9008 36.1 25.9Z" fill="white"></path>
    <path d="M46 30C45.7348 30 45.4804 29.8946 45.2929 29.7071C45.1054 29.5196 45 29.2652 45 29V25C45 24.7348 45.1054 24.4804 45.2929 24.2929C45.4804 24.1054 45.7348 24 46 24C46.2652 24 46.5196 24.1054 46.7071 24.2929C46.8946 24.4804 47 24.7348 47 25V29C47 29.2652 46.8946 29.5196 46.7071 29.7071C46.5196 29.8946 46.2652 30 46 30Z" fill="white"></path>
    <path d="M55.9 25.9C55.7684 25.9008 55.638 25.8755 55.5161 25.8257C55.3943 25.776 55.2835 25.7027 55.19 25.61L52.36 22.78C52.1717 22.5917 52.0659 22.3363 52.0659 22.07C52.0659 21.8037 52.1717 21.5483 52.36 21.36C52.5483 21.1717 52.8037 21.0659 53.07 21.0659C53.3363 21.0659 53.5917 21.1717 53.78 21.36L56.61 24.19C56.7037 24.283 56.7781 24.3936 56.8289 24.5154C56.8797 24.6373 56.9058 24.768 56.9058 24.9C56.9058 25.032 56.8797 25.1627 56.8289 25.2846C56.7781 25.4065 56.7037 25.517 56.61 25.61C56.5166 25.7027 56.4058 25.776 56.2839 25.8257C56.1621 25.8755 56.0316 25.9008 55.9 25.9Z" fill="white"></path>
    <path d="M60 16H56C55.7348 16 55.4804 15.8946 55.2929 15.7071C55.1054 15.5196 55 15.2652 55 15C55 14.7348 55.1054 14.4804 55.2929 14.2929C55.4804 14.1054 55.7348 14 56 14H60C60.2652 14 60.5196 14.1054 60.7071 14.2929C60.8946 14.4804 61 14.7348 61 15C61 15.2652 60.8946 15.5196 60.7071 15.7071C60.5196 15.8946 60.2652 16 60 16Z" fill="white"></path>
    <path d="M53.07 8.93002C52.9384 8.93078 52.8079 8.90557 52.6861 8.8558C52.5643 8.80604 52.4534 8.73273 52.36 8.64005C52.2663 8.54708 52.1919 8.43646 52.1411 8.31461C52.0903 8.19275 52.0642 8.06204 52.0642 7.93002C52.0642 7.79801 52.0903 7.6673 52.1411 7.54544C52.1919 7.42358 52.2663 7.31299 52.36 7.22003L55.19 4.39005C55.3783 4.20174 55.6337 4.09595 55.9 4.09595C56.1663 4.09595 56.4217 4.20174 56.61 4.39005C56.7983 4.57835 56.9041 4.83373 56.9041 5.10004C56.9041 5.36634 56.7983 5.62172 56.61 5.81003L53.78 8.64005C53.6866 8.73273 53.5757 8.80604 53.4539 8.8558C53.3321 8.90557 53.2016 8.93078 53.07 8.93002Z" fill="white"></path>
    <path d="M21 52H17C15.6739 52 14.4021 51.4732 13.4645 50.5355C12.5268 49.5978 12 48.3261 12 47C12 46.7348 12.1054 46.4804 12.2929 46.2929C12.4804 46.1054 12.7348 46 13 46C13.2652 46 13.5196 46.1054 13.7071 46.2929C13.8946 46.4804 14 46.7348 14 47C14 47.7956 14.3161 48.5587 14.8787 49.1213C15.4413 49.6839 16.2044 50 17 50H21C21.7956 50 22.5587 49.6839 23.1213 49.1213C23.6839 48.5587 24 47.7956 24 47C24 46.2044 23.6839 45.4413 23.1213 44.8787C22.5587 44.3161 21.7956 44 21 44H17C15.6739 44 14.4021 43.4732 13.4645 42.5355C12.5268 41.5978 12 40.3261 12 39C12 37.6739 12.5268 36.4022 13.4645 35.4645C14.4021 34.5268 15.6739 34 17 34H21C22.3261 34 23.5979 34.5268 24.5355 35.4645C25.4732 36.4022 26 37.6739 26 39C26 39.2652 25.8946 39.5196 25.7071 39.7071C25.5196 39.8946 25.2652 40 25 40C24.7348 40 24.4804 39.8946 24.2929 39.7071C24.1054 39.5196 24 39.2652 24 39C24 38.2044 23.6839 37.4413 23.1213 36.8787C22.5587 36.3161 21.7956 36 21 36H17C16.2044 36 15.4413 36.3161 14.8787 36.8787C14.3161 37.4413 14 38.2044 14 39C14 39.7956 14.3161 40.5587 14.8787 41.1213C15.4413 41.6839 16.2044 42 17 42H21C22.3261 42 23.5979 42.5268 24.5355 43.4645C25.4732 44.4022 26 45.6739 26 47C26 48.3261 25.4732 49.5978 24.5355 50.5355C23.5979 51.4732 22.3261 52 21 52Z" fill="white"></path>
    <path d="M19 36C18.7348 36 18.4804 35.8946 18.2929 35.7071C18.1054 35.5196 18 35.2652 18 35V31C18 30.7348 18.1054 30.4804 18.2929 30.2929C18.4804 30.1054 18.7348 30 19 30C19.2652 30 19.5196 30.1054 19.7071 30.2929C19.8946 30.4804 20 30.7348 20 31V35C20 35.2652 19.8946 35.5196 19.7071 35.7071C19.5196 35.8946 19.2652 36 19 36Z" fill="white"></path>
    <path d="M19 56C18.7348 56 18.4804 55.8946 18.2929 55.7071C18.1054 55.5196 18 55.2652 18 55V51C18 50.7348 18.1054 50.4804 18.2929 50.2929C18.4804 50.1054 18.7348 50 19 50C19.2652 50 19.5196 50.1054 19.7071 50.2929C19.8946 50.4804 20 50.7348 20 51V55C20 55.2652 19.8946 55.5196 19.7071 55.7071C19.5196 55.8946 19.2652 56 19 56Z" fill="white"></path>
    <path d="M19 62C15.2422 62 11.5687 60.8857 8.44417 58.7979C5.31964 56.7102 2.88436 53.7428 1.4463 50.271C0.00823092 46.7992 -0.36803 42.9789 0.365089 39.2933C1.09821 35.6077 2.90778 32.2222 5.56498 29.565C8.22218 26.9078 11.6077 25.0982 15.2933 24.3651C18.9789 23.632 22.7992 24.0083 26.271 25.4463C29.7428 26.8844 32.7102 29.3196 34.7979 32.4442C36.8857 35.5687 38 39.2422 38 43C38.0135 47.3102 36.5448 51.494 33.84 54.85C33.7579 54.9531 33.6563 55.039 33.5411 55.1029C33.4258 55.1667 33.2991 55.2072 33.1681 55.2221C33.0372 55.2369 32.9046 55.2258 32.778 55.1894C32.6513 55.153 32.5331 55.0921 32.43 55.01C32.3269 54.928 32.241 54.8264 32.1772 54.7111C32.1133 54.5958 32.0728 54.4691 32.058 54.3382C32.0431 54.2072 32.0542 54.0747 32.0906 53.948C32.127 53.8214 32.1879 53.7031 32.27 53.6C34.6954 50.6008 36.0127 46.8572 36 43C36 39.6377 35.003 36.351 33.135 33.5553C31.267 30.7597 28.612 28.5808 25.5056 27.2941C22.3993 26.0074 18.9812 25.6707 15.6835 26.3267C12.3858 26.9826 9.35669 28.6017 6.97919 30.9792C4.6017 33.3567 2.9826 36.3858 2.32665 39.6835C1.6707 42.9812 2.00737 46.3993 3.29406 49.5056C4.58075 52.612 6.75968 55.2671 9.55532 57.135C12.351 59.003 15.6377 60 19 60C22.8572 60.0127 26.6008 58.6954 29.6 56.2701C29.8082 56.1043 30.0737 56.028 30.3381 56.058C30.6026 56.088 30.8442 56.2218 31.01 56.43C31.1758 56.6382 31.252 56.9038 31.222 57.1682C31.192 57.4326 31.0582 57.6743 30.85 57.8401C27.4941 60.5448 23.3102 62.0135 19 62Z" fill="white"></path>
    <path d="M31 44C31.5523 44 32 43.5523 32 43C32 42.4477 31.5523 42 31 42C30.4477 42 30 42.4477 30 43C30 43.5523 30.4477 44 31 44Z" fill="white"></path>
    <path d="M7 44C7.55228 44 8 43.5523 8 43C8 42.4477 7.55228 42 7 42C6.44772 42 6 42.4477 6 43C6 43.5523 6.44772 44 7 44Z" fill="white"></path>
    <path d="M43.8101 52C43.6138 51.9998 43.4219 51.9419 43.2583 51.8334C43.0947 51.725 42.9666 51.5708 42.8901 51.39C42.7868 51.146 42.7847 50.871 42.884 50.6254C42.9834 50.3797 43.1762 50.1836 43.4201 50.08C47.7468 48.2336 51.4355 45.1563 54.0277 41.2307C56.6199 37.3051 58.0012 32.7042 58.0001 28C58.0001 27.7348 58.1054 27.4804 58.2929 27.2929C58.4805 27.1054 58.7348 27 59.0001 27C59.2653 27 59.5196 27.1054 59.7072 27.2929C59.8947 27.4804 60.0001 27.7348 60.0001 28C60.0017 33.0957 58.506 38.0796 55.6987 42.3323C52.8915 46.585 48.8964 49.9189 44.2101 51.92C44.0829 51.9714 43.9472 51.9985 43.8101 52Z" fill="white"></path>
    <path d="M9.49999 24H9.29999C9.17128 23.9738 9.04901 23.9224 8.94014 23.8489C8.83128 23.7754 8.73796 23.6812 8.66553 23.5716C8.5931 23.462 8.54297 23.3392 8.51799 23.2103C8.49302 23.0813 8.4937 22.9487 8.51999 22.82C9.52052 18.0139 11.8567 13.5875 15.2602 10.0496C18.6636 6.51174 22.9962 4.00589 27.76 2.82001C27.888 2.78849 28.021 2.78249 28.1514 2.80237C28.2817 2.82225 28.4069 2.8676 28.5197 2.93585C28.6325 3.0041 28.7308 3.09393 28.8089 3.20016C28.8871 3.30639 28.9435 3.42695 28.975 3.55499C29.0065 3.68303 29.0125 3.81603 28.9926 3.94638C28.9727 4.07673 28.9274 4.2019 28.8591 4.31473C28.7909 4.42755 28.7011 4.52583 28.5948 4.60394C28.4886 4.68206 28.368 4.73847 28.24 4.76999C23.8359 5.86397 19.8311 8.18169 16.6884 11.4553C13.5457 14.729 11.3934 18.8249 10.48 23.27C10.4203 23.4829 10.2918 23.67 10.1145 23.8021C9.93714 23.9342 9.72106 24.0038 9.49999 24Z" fill="white"></path>
    <path d="M30 6C29.4067 6 28.8266 5.82406 28.3333 5.49441C27.8399 5.16477 27.4554 4.69622 27.2284 4.14804C27.0013 3.59986 26.9419 2.99668 27.0576 2.41473C27.1734 1.83279 27.4591 1.29825 27.8787 0.878691C28.2982 0.459133 28.8328 0.173402 29.4147 0.057646C29.9967 -0.0581097 30.5999 0.00129844 31.1481 0.228361C31.6962 0.455424 32.1648 0.839933 32.4944 1.33328C32.8241 1.82663 33 2.40665 33 3C33 3.79565 32.6839 4.5587 32.1213 5.12131C31.5587 5.68391 30.7956 6 30 6ZM30 2C29.8022 2 29.6089 2.05863 29.4444 2.16852C29.28 2.2784 29.1518 2.43458 29.0761 2.61731C29.0004 2.80003 28.9806 3.00112 29.0192 3.1951C29.0578 3.38908 29.153 3.56724 29.2929 3.70709C29.4327 3.84694 29.6109 3.94219 29.8049 3.98077C29.9989 4.01936 30.2 3.99958 30.3827 3.92389C30.5654 3.8482 30.7216 3.72002 30.8315 3.55557C30.9413 3.39112 31 3.19778 31 3C31 2.73478 30.8946 2.48044 30.7071 2.29291C30.5196 2.10537 30.2652 2 30 2Z" fill="white"></path>
    <path d="M42 55C41.4067 55 40.8266 54.8241 40.3333 54.4944C39.8399 54.1648 39.4554 53.6963 39.2284 53.1481C39.0013 52.5999 38.9419 51.9967 39.0576 51.4148C39.1734 50.8328 39.4591 50.2982 39.8787 49.8787C40.2982 49.4591 40.8328 49.1734 41.4147 49.0576C41.9967 48.9419 42.5999 49.0013 43.1481 49.2284C43.6962 49.4554 44.1648 49.84 44.4944 50.3333C44.8241 50.8267 45 51.4067 45 52C45 52.7957 44.6839 53.5588 44.1213 54.1214C43.5587 54.684 42.7956 55 42 55ZM42 51C41.8022 51 41.6089 51.0587 41.4444 51.1685C41.28 51.2784 41.1518 51.4346 41.0761 51.6173C41.0004 51.8001 40.9806 52.0011 41.0192 52.1951C41.0578 52.3891 41.153 52.5673 41.2929 52.7071C41.4327 52.847 41.6109 52.9422 41.8049 52.9808C41.9989 53.0194 42.2 52.9996 42.3827 52.9239C42.5654 52.8482 42.7216 52.72 42.8315 52.5556C42.9413 52.3911 43 52.1978 43 52C43 51.7348 42.8946 51.4805 42.7071 51.2929C42.5196 51.1054 42.2652 51 42 51Z" fill="white"></path>
  </g>
  <defs>
    <clipPath id="clip0_1246_907">
      <rect width="61" height="62" fill="white"></rect>
    </clipPath>
  </defs>
</svg>
