<?xml version="1.0" encoding="UTF-8"?>
<svg xmlns="http://www.w3.org/2000/svg" width="70" height="70" viewBox="0 0 70 70" fill="none">
  <g clip-path="url(#clip0_1322_1622)">
    <path d="M59.1388 15.8065C59.7623 15.8065 60.2678 15.301 60.2678 14.6774C60.2678 14.0539 59.7623 13.5484 59.1388 13.5484C58.5153 13.5484 58.0098 14.0539 58.0098 14.6774C58.0098 15.301 58.5153 15.8065 59.1388 15.8065Z" fill="black"></path>
    <path d="M41.0741 15.8065C41.6976 15.8065 42.2031 15.301 42.2031 14.6774C42.2031 14.0539 41.6976 13.5484 41.0741 13.5484C40.4506 13.5484 39.9451 14.0539 39.9451 14.6774C39.9451 15.301 40.4506 15.8065 41.0741 15.8065Z" fill="black"></path>
    <path d="M50.1065 22.5806C48.9087 22.5806 47.76 22.1048 46.9131 21.2579C46.0661 20.411 45.5903 19.2623 45.5903 18.0645C45.5903 17.7651 45.7093 17.4779 45.921 17.2661C46.1328 17.0544 46.4199 16.9355 46.7194 16.9355C47.0188 16.9355 47.306 17.0544 47.5177 17.2661C47.7294 17.4779 47.8484 17.7651 47.8484 18.0645C47.8484 18.5111 47.9808 18.9477 48.229 19.319C48.4771 19.6904 48.8297 19.9798 49.2423 20.1507C49.6549 20.3216 50.109 20.3663 50.547 20.2792C50.985 20.192 51.3874 19.977 51.7032 19.6612C52.019 19.3454 52.234 18.943 52.3211 18.505C52.4083 18.067 52.3636 17.613 52.1926 17.2004C52.0217 16.7878 51.7323 16.4351 51.361 16.187C50.9896 15.9389 50.5531 15.8064 50.1065 15.8064C49.2133 15.8064 48.3401 15.5416 47.5974 15.0453C46.8548 14.5491 46.2759 13.8438 45.9341 13.0186C45.5923 12.1933 45.5029 11.2853 45.6771 10.4093C45.8514 9.53322 46.2815 8.72852 46.9131 8.09693C47.5447 7.46534 48.3494 7.0352 49.2254 6.86095C50.1015 6.68669 51.0095 6.77613 51.8347 7.11795C52.6599 7.45976 53.3653 8.03861 53.8615 8.78128C54.3577 9.52395 54.6226 10.3971 54.6226 11.2903C54.6226 11.5898 54.5036 11.8769 54.2919 12.0886C54.0802 12.3004 53.793 12.4193 53.4936 12.4193C53.1941 12.4193 52.9069 12.3004 52.6952 12.0886C52.4835 11.8769 52.3645 11.5898 52.3645 11.2903C52.3645 10.8437 52.2321 10.4071 51.984 10.0358C51.7359 9.66446 51.3832 9.37502 50.9706 9.20412C50.558 9.03321 50.104 8.9885 49.6659 9.07563C49.2279 9.16276 48.8256 9.37783 48.5098 9.69362C48.194 10.0094 47.9789 10.4117 47.8918 10.8498C47.8047 11.2878 47.8494 11.7418 48.0203 12.1544C48.1912 12.567 48.4806 12.9197 48.852 13.1678C49.2233 13.4159 49.6599 13.5484 50.1065 13.5484C51.3042 13.5484 52.4529 14.0242 53.2999 14.8711C54.1468 15.7181 54.6226 16.8668 54.6226 18.0645C54.6226 19.2623 54.1468 20.411 53.2999 21.2579C52.4529 22.1048 51.3042 22.5806 50.1065 22.5806Z" fill="black"></path>
    <path d="M50.1066 9.03227C49.8071 9.03227 49.52 8.91331 49.3082 8.70157C49.0965 8.48984 48.9775 8.20268 48.9775 7.90324V5.64518C48.9775 5.34574 49.0965 5.05855 49.3082 4.84681C49.52 4.63508 49.8071 4.51614 50.1066 4.51614C50.406 4.51614 50.6932 4.63508 50.9049 4.84681C51.1167 5.05855 51.2356 5.34574 51.2356 5.64518V7.90324C51.2356 8.20268 51.1167 8.48984 50.9049 8.70157C50.6932 8.91331 50.406 9.03227 50.1066 9.03227Z" fill="black"></path>
    <path d="M5.64515 26.8032C5.34571 26.8032 5.05853 26.6843 4.8468 26.4725C4.63506 26.2608 4.51611 25.9736 4.51611 25.6742V16.6419C4.51611 16.3425 4.63506 16.0553 4.8468 15.8436C5.05853 15.6319 5.34571 15.5129 5.64515 15.5129H10.1613C10.4607 15.5129 10.7479 15.6319 10.9596 15.8436C11.1714 16.0553 11.2903 16.3425 11.2903 16.6419V21.1581C11.2903 21.4575 11.1714 21.7447 10.9596 21.9564C10.7479 22.1681 10.4607 22.2871 10.1613 22.2871C9.86184 22.2871 9.57466 22.1681 9.36293 21.9564C9.15119 21.7447 9.03224 21.4575 9.03224 21.1581V17.771H6.77418V25.6742C6.77418 25.9736 6.65523 26.2608 6.44349 26.4725C6.23176 26.6843 5.94458 26.8032 5.64515 26.8032Z" fill="black"></path>
    <path d="M41.6388 34.7065C40.7044 34.7051 39.8081 34.336 39.1436 33.679L22.5807 17.1048L6.01781 33.679C5.34483 34.2828 4.46602 34.6057 3.56223 34.5812C2.65843 34.5567 1.79839 34.1868 1.15907 33.5474C0.519755 32.9081 0.149797 32.0481 0.12532 31.1443C0.100843 30.2405 0.42371 29.3617 1.02749 28.6887L21.7791 7.93711C21.8841 7.83129 22.0089 7.74728 22.1465 7.68996C22.2841 7.63264 22.4317 7.60313 22.5807 7.60313C22.7298 7.60313 22.8773 7.63264 23.0149 7.68996C23.1525 7.74728 23.2774 7.83129 23.3823 7.93711L44.1339 28.6887C44.6228 29.1835 44.9549 29.8115 45.0884 30.4942C45.222 31.1768 45.1511 31.8836 44.8847 32.5262C44.6183 33.1687 44.1682 33.7183 43.5908 34.1061C43.0134 34.494 42.3343 34.7028 41.6388 34.7065ZM22.5807 14.3839C22.7293 14.383 22.8766 14.4115 23.0142 14.4677C23.1517 14.5239 23.2768 14.6067 23.3823 14.7113L40.7468 32.0758C40.8631 32.1944 41.0019 32.2884 41.1551 32.3524C41.3083 32.4164 41.4727 32.4491 41.6388 32.4484C41.9741 32.4484 42.2958 32.3152 42.5329 32.078C42.7701 31.8409 42.9033 31.5193 42.9033 31.1839C42.904 31.0179 42.8713 30.8534 42.8073 30.7002C42.7434 30.547 42.6493 30.4082 42.5307 30.2919L22.5807 10.3307L2.63071 30.2919C2.51214 30.4082 2.41808 30.547 2.35408 30.7002C2.29009 30.8534 2.25746 31.0179 2.25813 31.1839C2.25813 31.5193 2.39136 31.8409 2.6285 32.078C2.86564 32.3152 3.18728 32.4484 3.52265 32.4484C3.68867 32.4491 3.85315 32.4164 4.00635 32.3524C4.15955 32.2884 4.29836 32.1944 4.41458 32.0758L21.7791 14.7113C21.8846 14.6067 22.0097 14.5239 22.1473 14.4677C22.2848 14.4115 22.4321 14.383 22.5807 14.3839Z" fill="black"></path>
    <path d="M38.3872 51.6419H6.7743C6.47486 51.6419 6.18768 51.523 5.97595 51.3112C5.76421 51.0995 5.64526 50.8123 5.64526 50.5129V31.3194C5.64526 31.0199 5.76421 30.7328 5.97595 30.521C6.18768 30.3093 6.47486 30.1903 6.7743 30.1903C7.07373 30.1903 7.36091 30.3093 7.57264 30.521C7.78438 30.7328 7.90333 31.0199 7.90333 31.3194V49.3839H37.2582V31.3194C37.2582 31.0199 37.3771 30.7328 37.5889 30.521C37.8006 30.3093 38.0878 30.1903 38.3872 30.1903C38.6866 30.1903 38.9738 30.3093 39.1855 30.521C39.3973 30.7328 39.5162 31.0199 39.5162 31.3194V50.5129C39.5162 50.8123 39.3973 51.0995 39.1855 51.3112C38.9738 51.523 38.6866 51.6419 38.3872 51.6419Z" fill="black"></path>
    <path d="M30.4838 47.1258H14.6774C14.3779 47.1258 14.0908 47.0068 13.879 46.7951C13.6673 46.5834 13.5483 46.2962 13.5483 45.9968V32.4484C13.5483 32.1489 13.6673 31.8618 13.879 31.6501C14.0908 31.4383 14.3779 31.3194 14.6774 31.3194H30.4838C30.7833 31.3194 31.0704 31.4383 31.2822 31.6501C31.4939 31.8618 31.6129 32.1489 31.6129 32.4484V45.9968C31.6129 46.2962 31.4939 46.5834 31.2822 46.7951C31.0704 47.0068 30.7833 47.1258 30.4838 47.1258ZM15.8064 44.8677H29.3548V33.5774H15.8064V44.8677Z" fill="black"></path>
    <path d="M50.1064 29.3548C46.8176 29.3508 43.6254 28.2424 41.0418 26.2072C38.4583 24.1721 36.6331 21.3282 35.8591 18.1318C35.085 14.9353 35.407 11.5715 36.7733 8.57989C38.1396 5.58828 40.4711 3.14223 43.3938 1.63411C46.3164 0.125983 49.6609 -0.356838 52.8908 0.263096C56.1207 0.883031 59.0488 2.5698 61.2055 5.05283C63.3621 7.53587 64.6223 10.6713 64.7839 13.9561C64.9455 17.241 63.9992 20.485 62.0967 23.1677C61.9231 23.4118 61.6595 23.5768 61.3642 23.6266C61.0688 23.6763 60.7658 23.6067 60.5217 23.4331C60.2777 23.2594 60.1126 22.9959 60.0629 22.7005C60.0131 22.4051 60.0827 22.1021 60.2564 21.858C61.742 19.7598 62.5318 17.2483 62.5145 14.6774C62.519 11.8926 61.5875 9.18712 59.8695 6.99543C58.1515 4.80373 55.7467 3.25303 53.0414 2.59238C50.3361 1.93173 47.4873 2.19946 44.9525 3.3526C42.4176 4.50574 40.3439 6.47734 39.0644 8.95077C37.7848 11.4242 37.3737 14.2559 37.897 16.9911C38.4204 19.7263 39.8478 22.2062 41.95 24.0326C44.0523 25.8589 46.7073 26.9258 49.4888 27.0617C52.2703 27.1977 55.0167 26.3949 57.287 24.7822C57.5311 24.6086 57.8341 24.5389 58.1295 24.5887C58.2757 24.6133 58.4157 24.6666 58.5414 24.7453C58.6671 24.824 58.7761 24.9267 58.8621 25.0476C58.948 25.1684 59.0094 25.305 59.0426 25.4495C59.0758 25.5941 59.0802 25.7438 59.0556 25.89C59.0309 26.0363 58.9777 26.1762 58.899 26.3019C58.8203 26.4276 58.7176 26.5366 58.5967 26.6226C56.1213 28.3974 53.1524 29.3529 50.1064 29.3548Z" fill="black"></path>
    <path d="M41.0741 58.7097H33.1709C31.9732 58.7097 30.8245 58.2339 29.9775 57.387C29.1306 56.54 28.6548 55.3913 28.6548 54.1936C28.6548 52.9958 29.1306 51.8471 29.9775 51.0002C30.8245 50.1532 31.9732 49.6774 33.1709 49.6774H41.5258C44.2842 49.6754 46.9863 50.4586 49.3161 51.9355H54.6225C54.922 51.9355 55.2091 52.0544 55.4209 52.2662C55.6326 52.4779 55.7516 52.7651 55.7516 53.0645C55.7516 53.364 55.6326 53.6511 55.4209 53.8629C55.2091 54.0746 54.922 54.1936 54.6225 54.1936H48.9774C48.756 54.1918 48.5401 54.1251 48.3564 54.0016C46.3507 52.6616 43.9943 51.9429 41.5822 51.9355H33.2274C32.6285 51.9355 32.0541 52.1734 31.6307 52.5969C31.2072 53.0203 30.9693 53.5947 30.9693 54.1936C30.9693 54.7924 31.2072 55.3668 31.6307 55.7903C32.0541 56.2137 32.6285 56.4516 33.2274 56.4516H41.1306C41.43 56.4516 41.7172 56.5706 41.9289 56.7823C42.1407 56.994 42.2596 57.2812 42.2596 57.5807C42.2596 57.8801 42.1407 58.1673 41.9289 58.379C41.7172 58.5907 41.43 58.7097 41.1306 58.7097H41.0741Z" fill="black"></path>
    <path d="M46.4823 70H20.921C19.2859 70.0002 17.667 69.6749 16.1589 69.0429C14.6509 68.411 13.2837 67.4852 12.1371 66.3194L7.31615 61.5097C6.52504 60.7143 6.07889 59.6395 6.07422 58.5177V58.4161C6.07422 57.2962 6.5191 56.2222 7.31098 55.4303C8.10287 54.6384 9.1769 54.1936 10.2968 54.1936H10.4436C10.9969 54.1928 11.5449 54.3011 12.0564 54.5123C12.5678 54.7234 13.0326 55.0333 13.4242 55.4242L17.9403 59.9403C18.5749 60.5757 19.4359 60.9331 20.3339 60.9339H32.4371C33.3351 60.9331 34.1961 60.5757 34.8307 59.9403L38.0258 56.7452C38.1355 56.6406 38.2648 56.5588 38.4061 56.5042C38.5475 56.4496 38.6982 56.4234 38.8497 56.427C39.0012 56.4307 39.1505 56.4642 39.2891 56.5255C39.4276 56.5869 39.5528 56.675 39.6573 56.7847C39.7618 56.8944 39.8437 57.0236 39.8983 57.165C39.9529 57.3064 39.9791 57.4571 39.9754 57.6086C39.9717 57.7601 39.9383 57.9094 39.8769 58.0479C39.8155 58.1865 39.7275 58.3116 39.6178 58.4161L36.4226 61.6113C35.3665 62.6707 33.933 63.2676 32.4371 63.271H20.3226C19.58 63.2708 18.8447 63.1241 18.1589 62.8393C17.473 62.5545 16.8501 62.1372 16.3258 61.6113L11.8097 57.0951C11.6277 56.9122 11.4113 56.7671 11.173 56.6683C10.9346 56.5695 10.679 56.5189 10.421 56.5194H10.2742C9.76864 56.5249 9.28465 56.7251 8.92295 57.0784C8.56125 57.4317 8.34969 57.9108 8.33228 58.4161V58.5516C8.33495 59.0721 8.5417 59.5707 8.90809 59.9403L13.7291 64.7613C14.6731 65.7065 15.7942 66.4563 17.0282 66.9677C18.2623 67.4792 19.5851 67.7423 20.921 67.7419H46.4823C47.914 67.738 49.3182 67.348 50.5468 66.6129L54.0468 64.5129C54.2987 64.4091 54.5797 64.3998 54.8379 64.4869C55.0961 64.574 55.3141 64.7516 55.4517 64.9868C55.5892 65.222 55.6371 65.4991 55.5864 65.7668C55.5357 66.0345 55.3899 66.2749 55.1758 66.4435L51.7097 68.5774C50.1281 69.5159 48.3214 70.0076 46.4823 70Z" fill="black"></path>
    <path d="M68.1711 70H54.6227C54.3232 70 54.0361 69.881 53.8243 69.6693C53.6126 69.4576 53.4937 69.1704 53.4937 68.871V50.8065C53.4937 50.507 53.6126 50.2198 53.8243 50.0081C54.0361 49.7964 54.3232 49.6774 54.6227 49.6774H68.1711C68.4705 49.6774 68.7577 49.7964 68.9694 50.0081C69.1812 50.2198 69.3001 50.507 69.3001 50.8065V68.871C69.3001 69.1704 69.1812 69.4576 68.9694 69.6693C68.7577 69.881 68.4705 70 68.1711 70ZM55.7517 67.7419H67.042V51.9355H55.7517V67.7419Z" fill="black"></path>
  </g>
  <defs>
    <clipPath id="clip0_1322_1622">
      <rect width="69.3" height="70" fill="white"></rect>
    </clipPath>
  </defs>
</svg>
