<?xml version="1.0" encoding="UTF-8"?>
<svg xmlns="http://www.w3.org/2000/svg" width="70" height="70" viewBox="0 0 70 70" fill="none">
  <g clip-path="url(#clip0_1322_1503)">
    <path d="M64.3547 70H37.258C35.7608 70 34.3249 69.4053 33.2662 68.3466C32.2076 67.2879 31.6128 65.8521 31.6128 64.3549V16.9355C31.6128 15.4383 32.2076 14.0025 33.2662 12.9438C34.3249 11.8851 35.7608 11.2903 37.258 11.2903H39.516C39.8155 11.2903 40.1026 11.4093 40.3143 11.621C40.5261 11.8328 40.6451 12.1199 40.6451 12.4194C40.6451 12.7188 40.5261 13.006 40.3143 13.2177C40.1026 13.4294 39.8155 13.5484 39.516 13.5484H37.258C36.3596 13.5484 35.4981 13.9053 34.8629 14.5405C34.2277 15.1757 33.8709 16.0372 33.8709 16.9355V64.3549C33.8709 65.2532 34.2277 66.1147 34.8629 66.7499C35.4981 67.3851 36.3596 67.742 37.258 67.742H64.3547C65.253 67.742 66.1145 67.3851 66.7498 66.7499C67.385 66.1147 67.7418 65.2532 67.7418 64.3549V16.9355C67.7418 16.0372 67.385 15.1757 66.7498 14.5405C66.1145 13.9053 65.253 13.5484 64.3547 13.5484H62.0967C61.7972 13.5484 61.5101 13.4294 61.2983 13.2177C61.0866 13.006 60.9676 12.7188 60.9676 12.4194C60.9676 12.1199 61.0866 11.8328 61.2983 11.621C61.5101 11.4093 61.7972 11.2903 62.0967 11.2903H64.3547C65.8519 11.2903 67.2878 11.8851 68.3464 12.9438C69.4051 14.0025 69.9999 15.4383 69.9999 16.9355V64.3549C69.9999 65.8521 69.4051 67.2879 68.3464 68.3466C67.2878 69.4053 65.8519 70 64.3547 70Z" fill="black"></path>
    <path d="M62.0969 22.5807H39.5162C39.2168 22.5807 38.9296 22.4617 38.7179 22.25C38.5062 22.0382 38.3872 21.7511 38.3872 21.4516V1.12905C38.3883 0.906148 38.4554 0.688564 38.58 0.503718C38.7045 0.318873 38.881 0.175023 39.0872 0.0903232C39.2928 0.00386253 39.5194 -0.0197504 39.7384 0.0224462C39.9575 0.0646428 40.1591 0.170783 40.3178 0.327445L41.7743 1.79517L43.2308 0.327445C43.3357 0.221622 43.4606 0.137616 43.5982 0.0802967C43.7357 0.0229772 43.8833 -0.00653076 44.0324 -0.00653076C44.1814 -0.00653076 44.329 0.0229772 44.4666 0.0802967C44.6042 0.137616 44.729 0.221622 44.834 0.327445L46.2904 1.79517L47.7469 0.327445C47.8519 0.221622 47.9767 0.137616 48.1143 0.0802967C48.2519 0.0229772 48.3995 -0.00653076 48.5485 -0.00653076C48.6975 -0.00653076 48.8451 0.0229772 48.9827 0.0802967C49.1203 0.137616 49.2451 0.221622 49.3501 0.327445L50.8066 1.79517L52.263 0.327445C52.368 0.221622 52.4928 0.137616 52.6304 0.0802967C52.768 0.0229772 52.9156 -0.00653076 53.0646 -0.00653076C53.2137 -0.00653076 53.3612 0.0229772 53.4988 0.0802967C53.6364 0.137616 53.7613 0.221622 53.8662 0.327445L55.3227 1.79517L56.7792 0.327445C56.8841 0.221622 57.009 0.137616 57.1465 0.0802967C57.2841 0.0229772 57.4317 -0.00653076 57.5808 -0.00653076C57.7298 -0.00653076 57.8774 0.0229772 58.015 0.0802967C58.1525 0.137616 58.2774 0.221622 58.3824 0.327445L59.8388 1.79517L61.2953 0.327445C61.4541 0.170783 61.6557 0.0646428 61.8747 0.0224462C62.0937 -0.0197504 62.3203 0.00386253 62.5259 0.0903232C62.7321 0.175023 62.9086 0.318873 63.0332 0.503718C63.1577 0.688564 63.2248 0.906148 63.2259 1.12905V21.4516C63.2259 21.5999 63.1967 21.7467 63.14 21.8837C63.0832 22.0207 63.0001 22.1451 62.8952 22.25C62.7904 22.3548 62.6659 22.438 62.529 22.4947C62.392 22.5515 62.2452 22.5807 62.0969 22.5807ZM40.6453 20.3226H60.9679V3.85002L60.6404 4.18872C60.5355 4.29454 60.4106 4.37854 60.273 4.43586C60.1354 4.49318 59.9879 4.52269 59.8388 4.52269C59.6898 4.52269 59.5422 4.49318 59.4046 4.43586C59.267 4.37854 59.1422 4.29454 59.0372 4.18872L57.5808 2.72099L56.1243 4.18872C56.0193 4.29454 55.8945 4.37854 55.7569 4.43586C55.6193 4.49318 55.4717 4.52269 55.3227 4.52269C55.1736 4.52269 55.0261 4.49318 54.8885 4.43586C54.7509 4.37854 54.626 4.29454 54.5211 4.18872L53.0646 2.72099L51.6082 4.18872C51.5032 4.29454 51.3784 4.37854 51.2408 4.43586C51.1032 4.49318 50.9556 4.52269 50.8066 4.52269C50.6575 4.52269 50.5099 4.49318 50.3724 4.43586C50.2348 4.37854 50.1099 4.29454 50.005 4.18872L48.5485 2.72099L47.092 4.18872C46.9871 4.29454 46.8622 4.37854 46.7246 4.43586C46.5871 4.49318 46.4395 4.52269 46.2904 4.52269C46.1414 4.52269 45.9938 4.49318 45.8562 4.43586C45.7186 4.37854 45.5938 4.29454 45.4888 4.18872L44.0324 2.72099L42.5759 4.18872C42.4709 4.29454 42.3461 4.37854 42.2085 4.43586C42.0709 4.49318 41.9233 4.52269 41.7743 4.52269C41.6253 4.52269 41.4777 4.49318 41.3401 4.43586C41.2025 4.37854 41.0777 4.29454 40.9727 4.18872L40.6453 3.85002V20.3226Z" fill="black"></path>
    <path d="M64.355 22.5806H37.2582C36.9587 22.5806 36.6716 22.4617 36.4599 22.2499C36.2481 22.0382 36.1292 21.751 36.1292 21.4516C36.1292 21.1522 36.2481 20.865 36.4599 20.6533C36.6716 20.4415 36.9587 20.3226 37.2582 20.3226H64.355C64.6544 20.3226 64.9416 20.4415 65.1533 20.6533C65.365 20.865 65.484 21.1522 65.484 21.4516C65.484 21.751 65.365 22.0382 65.1533 22.2499C64.9416 22.4617 64.6544 22.5806 64.355 22.5806Z" fill="black"></path>
    <path d="M62.0969 38.3871H39.5162C39.2168 38.3871 38.9296 38.2681 38.7179 38.0564C38.5062 37.8446 38.3872 37.5575 38.3872 37.258V25.9677C38.3872 25.6683 38.5062 25.3811 38.7179 25.1694C38.9296 24.9577 39.2168 24.8387 39.5162 24.8387H62.0969C62.3963 24.8387 62.6835 24.9577 62.8952 25.1694C63.1069 25.3811 63.2259 25.6683 63.2259 25.9677V37.258C63.2259 37.5575 63.1069 37.8446 62.8952 38.0564C62.6835 38.2681 62.3963 38.3871 62.0969 38.3871ZM40.6453 36.129H60.9679V27.0967H40.6453V36.129Z" fill="black"></path>
    <path d="M44.0324 65.4839H39.5162C39.2168 65.4839 38.9296 65.3649 38.7179 65.1532C38.5062 64.9414 38.3872 64.6543 38.3872 64.3548V59.8387C38.3872 59.5393 38.5062 59.2521 38.7179 59.0404C38.9296 58.8287 39.2168 58.7097 39.5162 58.7097H44.0324C44.3318 58.7097 44.619 58.8287 44.8307 59.0404C45.0424 59.2521 45.1614 59.5393 45.1614 59.8387V64.3548C45.1614 64.6543 45.0424 64.9414 44.8307 65.1532C44.619 65.3649 44.3318 65.4839 44.0324 65.4839ZM40.6453 63.2258H42.9033V60.9678H40.6453V63.2258Z" fill="black"></path>
    <path d="M53.0646 65.4839H48.5485C48.249 65.4839 47.9619 65.3649 47.7501 65.1532C47.5384 64.9414 47.4194 64.6543 47.4194 64.3548V59.8387C47.4194 59.5393 47.5384 59.2521 47.7501 59.0404C47.9619 58.8287 48.249 58.7097 48.5485 58.7097H53.0646C53.364 58.7097 53.6512 58.8287 53.8629 59.0404C54.0747 59.2521 54.1936 59.5393 54.1936 59.8387V64.3548C54.1936 64.6543 54.0747 64.9414 53.8629 65.1532C53.6512 65.3649 53.364 65.4839 53.0646 65.4839ZM49.6775 63.2258H51.9356V60.9678H49.6775V63.2258Z" fill="black"></path>
    <path d="M62.0968 65.4839H57.5807C57.2813 65.4839 56.9941 65.3649 56.7824 65.1532C56.5706 64.9414 56.4517 64.6543 56.4517 64.3548V59.8387C56.4517 59.5393 56.5706 59.2521 56.7824 59.0404C56.9941 58.8287 57.2813 58.7097 57.5807 58.7097H62.0968C62.3963 58.7097 62.6834 58.8287 62.8952 59.0404C63.1069 59.2521 63.2259 59.5393 63.2259 59.8387V64.3548C63.2259 64.6543 63.1069 64.9414 62.8952 65.1532C62.6834 65.3649 62.3963 65.4839 62.0968 65.4839ZM58.7097 63.2258H60.9678V60.9678H58.7097V63.2258Z" fill="black"></path>
    <path d="M44.0324 56.4516H39.5162C39.2168 56.4516 38.9296 56.3327 38.7179 56.1209C38.5062 55.9092 38.3872 55.622 38.3872 55.3226V50.8065C38.3872 50.507 38.5062 50.2199 38.7179 50.0081C38.9296 49.7964 39.2168 49.6774 39.5162 49.6774H44.0324C44.3318 49.6774 44.619 49.7964 44.8307 50.0081C45.0424 50.2199 45.1614 50.507 45.1614 50.8065V55.3226C45.1614 55.622 45.0424 55.9092 44.8307 56.1209C44.619 56.3327 44.3318 56.4516 44.0324 56.4516ZM40.6453 54.1936H42.9033V51.9355H40.6453V54.1936Z" fill="black"></path>
    <path d="M53.0646 56.4516H48.5485C48.249 56.4516 47.9619 56.3327 47.7501 56.1209C47.5384 55.9092 47.4194 55.622 47.4194 55.3226V50.8065C47.4194 50.507 47.5384 50.2199 47.7501 50.0081C47.9619 49.7964 48.249 49.6774 48.5485 49.6774H53.0646C53.364 49.6774 53.6512 49.7964 53.8629 50.0081C54.0747 50.2199 54.1936 50.507 54.1936 50.8065V55.3226C54.1936 55.622 54.0747 55.9092 53.8629 56.1209C53.6512 56.3327 53.364 56.4516 53.0646 56.4516ZM49.6775 54.1936H51.9356V51.9355H49.6775V54.1936Z" fill="black"></path>
    <path d="M62.0968 56.4516H57.5807C57.2813 56.4516 56.9941 56.3327 56.7824 56.1209C56.5706 55.9092 56.4517 55.622 56.4517 55.3226V50.8065C56.4517 50.507 56.5706 50.2199 56.7824 50.0081C56.9941 49.7964 57.2813 49.6774 57.5807 49.6774H62.0968C62.3963 49.6774 62.6834 49.7964 62.8952 50.0081C63.1069 50.2199 63.2259 50.507 63.2259 50.8065V55.3226C63.2259 55.622 63.1069 55.9092 62.8952 56.1209C62.6834 56.3327 62.3963 56.4516 62.0968 56.4516ZM58.7097 54.1936H60.9678V51.9355H58.7097V54.1936Z" fill="black"></path>
    <path d="M44.0324 47.4194H39.5162C39.2168 47.4194 38.9296 47.3004 38.7179 47.0887C38.5062 46.8769 38.3872 46.5898 38.3872 46.2903V41.7742C38.3872 41.4748 38.5062 41.1876 38.7179 40.9759C38.9296 40.7641 39.2168 40.6452 39.5162 40.6452H44.0324C44.3318 40.6452 44.619 40.7641 44.8307 40.9759C45.0424 41.1876 45.1614 41.4748 45.1614 41.7742V46.2903C45.1614 46.5898 45.0424 46.8769 44.8307 47.0887C44.619 47.3004 44.3318 47.4194 44.0324 47.4194ZM40.6453 45.1613H42.9033V42.9032H40.6453V45.1613Z" fill="black"></path>
    <path d="M53.0646 47.4194H48.5485C48.249 47.4194 47.9619 47.3004 47.7501 47.0887C47.5384 46.8769 47.4194 46.5898 47.4194 46.2903V41.7742C47.4194 41.4748 47.5384 41.1876 47.7501 40.9759C47.9619 40.7641 48.249 40.6452 48.5485 40.6452H53.0646C53.364 40.6452 53.6512 40.7641 53.8629 40.9759C54.0747 41.1876 54.1936 41.4748 54.1936 41.7742V46.2903C54.1936 46.5898 54.0747 46.8769 53.8629 47.0887C53.6512 47.3004 53.364 47.4194 53.0646 47.4194ZM49.6775 45.1613H51.9356V42.9032H49.6775V45.1613Z" fill="black"></path>
    <path d="M62.0968 47.4194H57.5807C57.2813 47.4194 56.9941 47.3004 56.7824 47.0887C56.5706 46.8769 56.4517 46.5898 56.4517 46.2903V41.7742C56.4517 41.4748 56.5706 41.1876 56.7824 40.9759C56.9941 40.7641 57.2813 40.6452 57.5807 40.6452H62.0968C62.3963 40.6452 62.6834 40.7641 62.8952 40.9759C63.1069 41.1876 63.2259 41.4748 63.2259 41.7742V46.2903C63.2259 46.5898 63.1069 46.8769 62.8952 47.0887C62.6834 47.3004 62.3963 47.4194 62.0968 47.4194ZM58.7097 45.1613H60.9678V42.9032H58.7097V45.1613Z" fill="black"></path>
    <path d="M57.5807 9.03223H44.0324C43.7329 9.03223 43.4458 8.91327 43.234 8.70153C43.0223 8.4898 42.9033 8.20264 42.9033 7.9032C42.9033 7.60376 43.0223 7.31661 43.234 7.10487C43.4458 6.89314 43.7329 6.77417 44.0324 6.77417H57.5807C57.8802 6.77417 58.1673 6.89314 58.3791 7.10487C58.5908 7.31661 58.7098 7.60376 58.7098 7.9032C58.7098 8.20264 58.5908 8.4898 58.3791 8.70153C58.1673 8.91327 57.8802 9.03223 57.5807 9.03223Z" fill="black"></path>
    <path d="M57.5807 13.5484H44.0324C43.7329 13.5484 43.4458 13.4294 43.234 13.2177C43.0223 13.006 42.9033 12.7188 42.9033 12.4194C42.9033 12.1199 43.0223 11.8328 43.234 11.621C43.4458 11.4093 43.7329 11.2903 44.0324 11.2903H57.5807C57.8802 11.2903 58.1673 11.4093 58.3791 11.621C58.5908 11.8328 58.7098 12.1199 58.7098 12.4194C58.7098 12.7188 58.5908 13.006 58.3791 13.2177C58.1673 13.4294 57.8802 13.5484 57.5807 13.5484Z" fill="black"></path>
    <path d="M50.8065 18.0645H44.0324C43.7329 18.0645 43.4458 17.9456 43.234 17.7338C43.0223 17.5221 42.9033 17.2349 42.9033 16.9355C42.9033 16.6361 43.0223 16.3489 43.234 16.1372C43.4458 15.9254 43.7329 15.8065 44.0324 15.8065H50.8065C51.106 15.8065 51.3931 15.9254 51.6049 16.1372C51.8166 16.3489 51.9356 16.6361 51.9356 16.9355C51.9356 17.2349 51.8166 17.5221 51.6049 17.7338C51.3931 17.9456 51.106 18.0645 50.8065 18.0645Z" fill="black"></path>
    <path d="M23.7096 29.3549C24.3331 29.3549 24.8386 28.8494 24.8386 28.2258C24.8386 27.6023 24.3331 27.0968 23.7096 27.0968C23.0861 27.0968 22.5806 27.6023 22.5806 28.2258C22.5806 28.8494 23.0861 29.3549 23.7096 29.3549Z" fill="black"></path>
    <path d="M5.64515 29.3549C6.26869 29.3549 6.77418 28.8494 6.77418 28.2258C6.77418 27.6023 6.26869 27.0968 5.64515 27.0968C5.0216 27.0968 4.51611 27.6023 4.51611 28.2258C4.51611 28.8494 5.0216 29.3549 5.64515 29.3549Z" fill="black"></path>
    <path d="M14.6775 36.129C13.4798 36.129 12.3311 35.6532 11.4841 34.8063C10.6372 33.9593 10.1614 32.8106 10.1614 31.6129C10.1614 31.3134 10.2803 31.0263 10.4921 30.8146C10.7038 30.6028 10.991 30.4839 11.2904 30.4839C11.5898 30.4839 11.877 30.6028 12.0887 30.8146C12.3005 31.0263 12.4194 31.3134 12.4194 31.6129C12.4194 32.0595 12.5519 32.4961 12.8 32.8674C13.0481 33.2387 13.4008 33.5281 13.8134 33.6991C14.226 33.87 14.68 33.9147 15.118 33.8276C15.556 33.7404 15.9584 33.5254 16.2742 33.2096C16.59 32.8938 16.8051 32.4914 16.8922 32.0534C16.9793 31.6154 16.9346 31.1614 16.7637 30.7487C16.5928 30.3361 16.3034 29.9835 15.932 29.7354C15.5607 29.4873 15.1241 29.3548 14.6775 29.3548C13.7843 29.3548 12.9111 29.0899 12.1685 28.5937C11.4258 28.0975 10.847 27.3922 10.5051 26.5669C10.1633 25.7417 10.0739 24.8337 10.2482 23.9576C10.4224 23.0816 10.8525 22.2769 11.4841 21.6453C12.1157 21.0137 12.9204 20.5836 13.7964 20.4094C14.6725 20.2351 15.5805 20.3245 16.4058 20.6663C17.231 21.0081 17.9363 21.587 18.4325 22.3297C18.9288 23.0723 19.1936 23.9455 19.1936 24.8387C19.1936 25.1381 19.0747 25.4253 18.8629 25.637C18.6512 25.8488 18.364 25.9677 18.0646 25.9677C17.7652 25.9677 17.478 25.8488 17.2663 25.637C17.0545 25.4253 16.9356 25.1381 16.9356 24.8387C16.9356 24.3921 16.8031 23.9555 16.555 23.5842C16.3069 23.2128 15.9543 22.9234 15.5416 22.7525C15.129 22.5816 14.675 22.5369 14.237 22.624C13.799 22.7111 13.3966 22.9262 13.0808 23.242C12.765 23.5578 12.5499 23.9602 12.4628 24.3982C12.3757 24.8362 12.4204 25.2902 12.5913 25.7028C12.7622 26.1154 13.0517 26.4681 13.423 26.7162C13.7943 26.9643 14.2309 27.0968 14.6775 27.0968C15.8753 27.0968 17.024 27.5726 17.8709 28.4195C18.7178 29.2664 19.1936 30.4151 19.1936 31.6129C19.1936 32.8106 18.7178 33.9593 17.8709 34.8063C17.024 35.6532 15.8753 36.129 14.6775 36.129Z" fill="black"></path>
    <path d="M14.6774 22.5806C14.3779 22.5806 14.0908 22.4617 13.879 22.2499C13.6673 22.0382 13.5483 21.751 13.5483 21.4516V19.1935C13.5483 18.8941 13.6673 18.607 13.879 18.3952C14.0908 18.1835 14.3779 18.0645 14.6774 18.0645C14.9768 18.0645 15.264 18.1835 15.4757 18.3952C15.6874 18.607 15.8064 18.8941 15.8064 19.1935V21.4516C15.8064 21.751 15.6874 22.0382 15.4757 22.2499C15.264 22.4617 14.9768 22.5806 14.6774 22.5806Z" fill="black"></path>
    <path d="M14.6774 38.3871C14.3779 38.3871 14.0908 38.2681 13.879 38.0564C13.6673 37.8447 13.5483 37.5575 13.5483 37.2581V35C13.5483 34.7006 13.6673 34.4134 13.879 34.2017C14.0908 33.9899 14.3779 33.871 14.6774 33.871C14.9768 33.871 15.264 33.9899 15.4757 34.2017C15.6874 34.4134 15.8064 34.7006 15.8064 35V37.2581C15.8064 37.5575 15.6874 37.8447 15.4757 38.0564C15.264 38.2681 14.9768 38.3871 14.6774 38.3871Z" fill="black"></path>
    <path d="M14.6774 42.9032C11.3869 42.9051 8.19118 41.8011 5.6034 39.7686C3.01563 37.7361 1.18589 34.8929 0.407989 31.6957C-0.369912 28.4984 -0.0508549 25.1324 1.31392 22.1383C2.6787 19.1441 5.01004 16.6954 7.93362 15.1853C10.8572 13.6752 14.2034 13.1913 17.435 13.8113C20.6666 14.4314 23.5961 16.1193 25.7532 18.6042C27.9103 21.0891 29.1698 24.2268 29.3295 27.5134C29.4892 30.8001 28.5399 34.0451 26.6339 36.7274C26.5474 36.8487 26.4379 36.9516 26.3115 37.0303C26.1852 37.1091 26.0445 37.162 25.8976 37.1861C25.7507 37.2103 25.6004 37.2051 25.4555 37.1709C25.3106 37.1368 25.1739 37.0743 25.0532 36.9871C24.8116 36.8127 24.6487 36.5499 24.6001 36.256C24.5514 35.962 24.621 35.6607 24.7935 35.4178C26.5983 32.8798 27.3836 29.7564 26.994 26.6667C26.6043 23.5769 25.068 20.7463 22.6897 18.7359C20.3114 16.7255 17.2645 15.6819 14.153 15.8121C11.0415 15.9423 8.0925 17.2367 5.89042 19.4388C3.68833 21.6409 2.39391 24.5899 2.26372 27.7014C2.13353 30.8129 3.17706 33.8598 5.18749 36.2381C7.19793 38.6164 10.0285 40.1527 13.1183 40.5424C16.208 40.932 19.3314 40.1467 21.8694 38.3419C22.1123 38.1694 22.4136 38.0998 22.7075 38.1485C23.0015 38.1971 23.2643 38.36 23.4387 38.6016C23.5259 38.7223 23.5884 38.859 23.6225 39.0039C23.6567 39.1488 23.6619 39.2991 23.6377 39.446C23.6136 39.5929 23.5607 39.7336 23.4819 39.8599C23.4032 39.9863 23.3003 40.0958 23.179 40.1823C20.6995 41.956 17.7261 42.9077 14.6774 42.9032Z" fill="black"></path>
    <path d="M23.7096 56.4516C24.3331 56.4516 24.8386 55.9461 24.8386 55.3226C24.8386 54.699 24.3331 54.1935 23.7096 54.1935C23.0861 54.1935 22.5806 54.699 22.5806 55.3226C22.5806 55.9461 23.0861 56.4516 23.7096 56.4516Z" fill="black"></path>
    <path d="M5.64515 56.4516C6.26869 56.4516 6.77418 55.9461 6.77418 55.3226C6.77418 54.699 6.26869 54.1935 5.64515 54.1935C5.0216 54.1935 4.51611 54.699 4.51611 55.3226C4.51611 55.9461 5.0216 56.4516 5.64515 56.4516Z" fill="black"></path>
    <path d="M14.6775 63.2258C13.4798 63.2258 12.3311 62.75 11.4841 61.903C10.6372 61.0561 10.1614 59.9074 10.1614 58.7097C10.1614 58.4102 10.2803 58.1231 10.4921 57.9113C10.7038 57.6996 10.991 57.5806 11.2904 57.5806C11.5898 57.5806 11.877 57.6996 12.0887 57.9113C12.3005 58.1231 12.4194 58.4102 12.4194 58.7097C12.4194 59.1563 12.5519 59.5928 12.8 59.9642C13.0481 60.3355 13.4008 60.6249 13.8134 60.7958C14.226 60.9667 14.68 61.0115 15.118 60.9243C15.556 60.8372 15.9584 60.6221 16.2742 60.3064C16.59 59.9906 16.8051 59.5882 16.8922 59.1502C16.9793 58.7121 16.9346 58.2581 16.7637 57.8455C16.5928 57.4329 16.3034 57.0803 15.932 56.8322C15.5607 56.584 15.1241 56.4516 14.6775 56.4516C13.7843 56.4516 12.9111 56.1867 12.1685 55.6905C11.4258 55.1942 10.847 54.4889 10.5051 53.6637C10.1633 52.8385 10.0739 51.9304 10.2482 51.0544C10.4224 50.1784 10.8525 49.3737 11.4841 48.7421C12.1157 48.1105 12.9204 47.6804 13.7964 47.5061C14.6725 47.3319 15.5805 47.4213 16.4058 47.7631C17.231 48.1049 17.9363 48.6838 18.4325 49.4264C18.9288 50.1691 19.1936 51.0423 19.1936 51.9355C19.1936 52.2349 19.0747 52.5221 18.8629 52.7338C18.6512 52.9455 18.364 53.0645 18.0646 53.0645C17.7652 53.0645 17.478 52.9455 17.2663 52.7338C17.0545 52.5221 16.9356 52.2349 16.9356 51.9355C16.9356 51.4889 16.8031 51.0523 16.555 50.6809C16.3069 50.3096 15.9543 50.0202 15.5416 49.8493C15.129 49.6784 14.675 49.6336 14.237 49.7208C13.799 49.8079 13.3966 50.023 13.0808 50.3388C12.765 50.6546 12.5499 51.0569 12.4628 51.495C12.3757 51.933 12.4204 52.387 12.5913 52.7996C12.7622 53.2122 13.0517 53.5648 13.423 53.813C13.7943 54.0611 14.2309 54.1935 14.6775 54.1935C15.8753 54.1935 17.024 54.6693 17.8709 55.5163C18.7178 56.3632 19.1936 57.5119 19.1936 58.7097C19.1936 59.9074 18.7178 61.0561 17.8709 61.903C17.024 62.75 15.8753 63.2258 14.6775 63.2258Z" fill="black"></path>
    <path d="M14.6774 49.6774C14.3779 49.6774 14.0908 49.5584 13.879 49.3467C13.6673 49.135 13.5483 48.8478 13.5483 48.5484V46.2903C13.5483 45.9909 13.6673 45.7037 13.879 45.492C14.0908 45.2803 14.3779 45.1613 14.6774 45.1613C14.9768 45.1613 15.264 45.2803 15.4757 45.492C15.6874 45.7037 15.8064 45.9909 15.8064 46.2903V48.5484C15.8064 48.8478 15.6874 49.135 15.4757 49.3467C15.264 49.5584 14.9768 49.6774 14.6774 49.6774Z" fill="black"></path>
    <path d="M14.6774 65.4839C14.3779 65.4839 14.0908 65.3649 13.879 65.1532C13.6673 64.9414 13.5483 64.6543 13.5483 64.3548V62.0968C13.5483 61.7973 13.6673 61.5102 13.879 61.2984C14.0908 61.0867 14.3779 60.9677 14.6774 60.9677C14.9768 60.9677 15.264 61.0867 15.4757 61.2984C15.6874 61.5102 15.8064 61.7973 15.8064 62.0968V64.3548C15.8064 64.6543 15.6874 64.9414 15.4757 65.1532C15.264 65.3649 14.9768 65.4839 14.6774 65.4839Z" fill="black"></path>
    <path d="M14.6774 70C11.3869 70.0018 8.19118 68.8979 5.6034 66.8653C3.01563 64.8328 1.18589 61.9897 0.407989 58.7924C-0.369912 55.5951 -0.0508549 52.2292 1.31392 49.235C2.6787 46.2409 5.01004 43.7921 7.93362 42.282C10.8572 40.7719 14.2034 40.2881 17.435 40.9081C20.6666 41.5281 23.5961 43.2161 25.7532 45.701C27.9103 48.1859 29.1698 51.3235 29.3295 54.6102C29.4892 57.8969 28.5399 61.1419 26.6339 63.8242C26.5474 63.9454 26.4379 64.0484 26.3115 64.1271C26.1852 64.2058 26.0445 64.2588 25.8976 64.2829C25.7507 64.307 25.6004 64.3019 25.4555 64.2677C25.3106 64.2336 25.1739 64.1711 25.0532 64.0839C24.8116 63.9095 24.6487 63.6467 24.6001 63.3527C24.5514 63.0587 24.621 62.7574 24.7935 62.5145C26.5983 59.9765 27.3836 56.8532 26.994 53.7634C26.6043 50.6737 25.068 47.8431 22.6897 45.8327C20.3114 43.8222 17.2645 42.7787 14.153 42.9089C11.0415 43.0391 8.0925 44.3335 5.89042 46.5356C3.68833 48.7377 2.39391 51.6867 2.26372 54.7982C2.13353 57.9097 3.17706 60.9565 5.18749 63.3349C7.19793 65.7132 10.0285 67.2495 13.1183 67.6391C16.208 68.0288 19.3314 67.2434 21.8694 65.4387C22.1123 65.2662 22.4136 65.1966 22.7075 65.2453C23.0015 65.2939 23.2643 65.4568 23.4387 65.6984C23.5259 65.8191 23.5884 65.9558 23.6225 66.1007C23.6567 66.2456 23.6619 66.3959 23.6377 66.5428C23.6136 66.6897 23.5607 66.8304 23.4819 66.9567C23.4032 67.0831 23.3003 67.1926 23.179 67.279C20.6995 69.0528 17.7261 70.0045 14.6774 70Z" fill="black"></path>
    <path d="M57.5807 33.871C58.2042 33.871 58.7097 33.3655 58.7097 32.7419C58.7097 32.1184 58.2042 31.6129 57.5807 31.6129C56.9571 31.6129 56.4517 32.1184 56.4517 32.7419C56.4517 33.3655 56.9571 33.871 57.5807 33.871Z" fill="black"></path>
    <path d="M53.0646 33.871H44.0324C43.7329 33.871 43.4458 33.752 43.234 33.5403C43.0223 33.3285 42.9033 33.0414 42.9033 32.7419C42.9033 32.4425 43.0223 32.1554 43.234 31.9436C43.4458 31.7319 43.7329 31.6129 44.0324 31.6129H53.0646C53.364 31.6129 53.6512 31.7319 53.8629 31.9436C54.0747 32.1554 54.1936 32.4425 54.1936 32.7419C54.1936 33.0414 54.0747 33.3285 53.8629 33.5403C53.6512 33.752 53.364 33.871 53.0646 33.871Z" fill="black"></path>
  </g>
  <defs>
    <clipPath id="clip0_1322_1503">
      <rect width="70" height="70" fill="white"></rect>
    </clipPath>
  </defs>
</svg>
