<?xml version="1.0" encoding="UTF-8"?>
<svg xmlns="http://www.w3.org/2000/svg" width="62" height="62" viewBox="0 0 62 62" fill="none">
  <g clip-path="url(#clip0_1246_880)">
    <path d="M34.16 13.9999C33.9689 13.9999 33.7817 13.9452 33.6207 13.8421C33.4597 13.739 33.3317 13.5919 33.2517 13.4183C33.1717 13.2447 33.1432 13.0517 33.1695 12.8624C33.1958 12.673 33.2758 12.4952 33.4 12.3499L39.56 5.13995C39.833 4.82159 39.9883 4.41913 40 3.99994V3.86993C40.0033 3.507 39.898 3.1514 39.6976 2.84878C39.4972 2.54617 39.2109 2.31037 38.8755 2.17169C38.5401 2.03301 38.1709 1.99778 37.8153 2.07052C37.4597 2.14327 37.134 2.32066 36.88 2.57992L34.27 5.17993C33.9409 5.50773 33.5387 5.75288 33.0965 5.89526C32.6544 6.03764 32.1847 6.07321 31.7261 5.99905C31.2676 5.9249 30.8331 5.74314 30.4583 5.46866C30.0835 5.19417 29.7791 4.83478 29.57 4.41995L29 3.23993C28.8159 2.86664 28.531 2.55233 28.1776 2.33255C27.8241 2.11276 27.4162 1.9963 27 1.9963C26.5838 1.9963 26.1759 2.11276 25.8225 2.33255C25.469 2.55233 25.1841 2.86664 25 3.23993L24.43 4.37994C24.221 4.79478 23.9166 5.15416 23.5418 5.42865C23.167 5.70313 22.7325 5.88489 22.2739 5.95904C21.8153 6.0332 21.3457 5.99763 20.9035 5.85525C20.4613 5.71287 20.0592 5.46775 19.73 5.13995L17.12 2.53994C16.866 2.28068 16.5403 2.10326 16.1848 2.03051C15.8292 1.95777 15.46 1.993 15.1246 2.13168C14.7891 2.27036 14.5029 2.50616 14.3025 2.80877C14.1021 3.11139 13.9968 3.46699 14 3.82992V4.18994C13.996 4.54317 14.0931 4.89017 14.28 5.18994L17 9.46994C17.0811 9.58078 17.1385 9.70714 17.1686 9.84112C17.1987 9.97511 17.2008 10.1139 17.175 10.2487C17.1491 10.3836 17.0957 10.5117 17.0182 10.625C16.9406 10.7383 16.8406 10.8345 16.7242 10.9074C16.6079 10.9804 16.4778 11.0286 16.342 11.0491C16.2062 11.0696 16.0677 11.0619 15.935 11.0265C15.8023 10.991 15.6783 10.9287 15.5708 10.8433C15.4633 10.7578 15.3745 10.6512 15.31 10.5299L12.61 6.21994C12.2357 5.61963 12.0349 4.92738 12.03 4.21994V3.85992C12.0293 3.1019 12.2536 2.36072 12.6744 1.73022C13.0952 1.09973 13.6936 0.60829 14.3939 0.318112C15.0942 0.0279349 15.8648 -0.047921 16.6082 0.100156C17.3516 0.248232 18.0344 0.613575 18.57 1.14993L21.17 3.75995C21.2807 3.85291 21.4102 3.92079 21.5496 3.95889C21.6891 3.99699 21.8351 4.00441 21.9777 3.98065C22.1202 3.95689 22.2559 3.90249 22.3755 3.82123C22.495 3.73996 22.5955 3.63378 22.67 3.50995L23.24 2.36993C23.5927 1.66689 24.1339 1.0758 24.8032 0.662717C25.4725 0.249637 26.2435 0.0308503 27.03 0.0308503C27.8166 0.0308503 28.5876 0.249637 29.2569 0.662717C29.9262 1.0758 30.4674 1.66689 30.82 2.36993L31.39 3.50995C31.4646 3.63378 31.5651 3.73996 31.6846 3.82123C31.8041 3.90249 31.9398 3.95689 32.0824 3.98065C32.225 4.00441 32.371 3.99699 32.5104 3.95889C32.6499 3.92079 32.7794 3.85291 32.89 3.75995L35.49 1.14993C36.0253 0.62545 36.7028 0.269555 37.4384 0.126309C38.174 -0.0169368 38.9354 0.0587631 39.6284 0.344052C40.3214 0.629341 40.9155 1.11167 41.3371 1.73129C41.7586 2.35091 41.9891 3.08058 42 3.82992V3.99994C41.9985 4.90979 41.6723 5.78922 41.08 6.47995L34.92 13.6899C34.8225 13.7924 34.7043 13.8731 34.5733 13.9265C34.4423 13.9799 34.3014 14.005 34.16 13.9999Z" fill="white"></path>
    <path d="M34 26H24C23.2044 26 22.4413 25.6839 21.8787 25.1213C21.3161 24.5587 21 23.7956 21 23C21 22.2044 21.3161 21.4413 21.8787 20.8787C22.4413 20.3161 23.2044 20 24 20H34C34.7956 20 35.5587 20.3161 36.1213 20.8787C36.6839 21.4413 37 22.2044 37 23C37 23.7956 36.6839 24.5587 36.1213 25.1213C35.5587 25.6839 34.7956 26 34 26ZM24 22C23.7348 22 23.4804 22.1054 23.2929 22.2929C23.1054 22.4804 23 22.7348 23 23C23 23.2652 23.1054 23.5196 23.2929 23.7071C23.4804 23.8946 23.7348 24 24 24H34C34.2652 24 34.5196 23.8946 34.7071 23.7071C34.8946 23.5196 35 23.2652 35 23C35 22.7348 34.8946 22.4804 34.7071 22.2929C34.5196 22.1054 34.2652 22 34 22H24Z" fill="white"></path>
    <path d="M34 22H24C23.2044 22 22.4413 21.6839 21.8787 21.1213C21.3161 20.5587 21 19.7956 21 19C21 18.2044 21.3161 17.4413 21.8787 16.8787C22.4413 16.3161 23.2044 16 24 16H28C28.2652 16 28.5196 16.1054 28.7071 16.2929C28.8946 16.4804 29 16.7348 29 17C29 17.2652 28.8946 17.5196 28.7071 17.7071C28.5196 17.8946 28.2652 18 28 18H24C23.7348 18 23.4804 18.1054 23.2929 18.2929C23.1054 18.4804 23 18.7348 23 19C23 19.2652 23.1054 19.5196 23.2929 19.7071C23.4804 19.8946 23.7348 20 24 20H34C34.2652 20 34.5196 19.8946 34.7071 19.7071C34.8946 19.5196 35 19.2652 35 19C35 18.7348 34.8946 18.4804 34.7071 18.2929C34.5196 18.1054 34.2652 18 34 18H32C31.7348 18 31.4804 17.8946 31.2929 17.7071C31.1054 17.5196 31 17.2652 31 17C31 16.7348 31.1054 16.4804 31.2929 16.2929C31.4804 16.1054 31.7348 16 32 16H34C34.7956 16 35.5587 16.3161 36.1213 16.8787C36.6839 17.4413 37 18.2044 37 19C37 19.7956 36.6839 20.5587 36.1213 21.1213C35.5587 21.6839 34.7956 22 34 22Z" fill="white"></path>
    <path d="M28 18H24C23.2044 18 22.4413 17.6839 21.8787 17.1213C21.3161 16.5587 21 15.7956 21 15C21 14.2044 21.3161 13.4413 21.8787 12.8787C22.4413 12.3161 23.2044 12 24 12H28C28.2652 12 28.5196 12.1054 28.7071 12.2929C28.8946 12.4804 29 12.7348 29 13C29 13.2652 28.8946 13.5196 28.7071 13.7071C28.5196 13.8946 28.2652 14 28 14H24C23.7348 14 23.4804 14.1054 23.2929 14.2929C23.1054 14.4804 23 14.7348 23 15C23 15.2652 23.1054 15.5196 23.2929 15.7071C23.4804 15.8946 23.7348 16 24 16H28C28.2652 16 28.5196 16.1054 28.7071 16.2929C28.8946 16.4804 29 16.7348 29 17C29 17.2652 28.8946 17.5196 28.7071 17.7071C28.5196 17.8946 28.2652 18 28 18Z" fill="white"></path>
    <path d="M34 18H32C31.7348 18 31.4804 17.8946 31.2929 17.7071C31.1054 17.5196 31 17.2652 31 17C31 16.7348 31.1054 16.4804 31.2929 16.2929C31.4804 16.1054 31.7348 16 32 16H34C34.2652 16 34.5196 15.8946 34.7071 15.7071C34.8946 15.5196 35 15.2652 35 15C35 14.7348 34.8946 14.4804 34.7071 14.2929C34.5196 14.1054 34.2652 14 34 14H32C31.7348 14 31.4804 13.8946 31.2929 13.7071C31.1054 13.5196 31 13.2652 31 13C31 12.7348 31.1054 12.4804 31.2929 12.2929C31.4804 12.1054 31.7348 12 32 12H34C34.7956 12 35.5587 12.3161 36.1213 12.8787C36.6839 13.4413 37 14.2044 37 15C37 15.7956 36.6839 16.5587 36.1213 17.1213C35.5587 17.6839 34.7956 18 34 18Z" fill="white"></path>
    <path d="M34 30H24C23.2044 30 22.4413 29.6839 21.8787 29.1213C21.3161 28.5587 21 27.7956 21 27C21 26.2044 21.3161 25.4413 21.8787 24.8787C22.4413 24.3161 23.2044 24 24 24H34C34.7956 24 35.5587 24.3161 36.1213 24.8787C36.6839 25.4413 37 26.2044 37 27C37 27.7956 36.6839 28.5587 36.1213 29.1213C35.5587 29.6839 34.7956 30 34 30ZM24 26C23.7348 26 23.4804 26.1054 23.2929 26.2929C23.1054 26.4804 23 26.7348 23 27C23 27.2652 23.1054 27.5196 23.2929 27.7071C23.4804 27.8946 23.7348 28 24 28H34C34.2652 28 34.5196 27.8946 34.7071 27.7071C34.8946 27.5196 35 27.2652 35 27C35 26.7348 34.8946 26.4804 34.7071 26.2929C34.5196 26.1054 34.2652 26 34 26H24Z" fill="white"></path>
    <path d="M26 30H19.5C17.6611 29.9986 15.872 29.4022 14.4 28.3C13.2739 27.4581 11.9061 27.0022 10.5 27H1C0.734784 27 0.480429 26.8946 0.292892 26.7071C0.105356 26.5196 0 26.2652 0 26V13C0 12.7348 0.105356 12.4804 0.292892 12.2929C0.480429 12.1054 0.734784 12 1 12H10.37C11.8443 11.9956 13.2743 11.4955 14.43 10.58L15.32 9.85999C16.8291 8.65799 18.7007 8.00241 20.63 8H30C30.7956 8 31.5587 8.31608 32.1213 8.87869C32.6839 9.4413 33 10.2044 33 11V16C33 16.7956 32.6839 17.5587 32.1213 18.1213C31.5587 18.6839 30.7956 19 30 19C29.2044 19 28.4413 18.6839 27.8787 18.1213C27.3161 17.5587 27 16.7956 27 16V13C27 12.7348 27.1054 12.4804 27.2929 12.2929C27.4804 12.1054 27.7348 12 28 12C28.2652 12 28.5196 12.1054 28.7071 12.2929C28.8946 12.4804 29 12.7348 29 13V16C29 16.2652 29.1054 16.5196 29.2929 16.7071C29.4804 16.8946 29.7348 17 30 17C30.2652 17 30.5196 16.8946 30.7071 16.7071C30.8946 16.5196 31 16.2652 31 16V11C31 10.7348 30.8946 10.4804 30.7071 10.2929C30.5196 10.1054 30.2652 10 30 10H20.63C19.1557 10.0044 17.7257 10.5045 16.57 11.42L15.68 12.14C14.1709 13.342 12.2993 13.9976 10.37 14H2V25H10.5C12.3389 25.0014 14.128 25.5978 15.6 26.7C16.7261 27.5419 18.0939 27.9978 19.5 28H26C26.2652 28 26.5196 28.1054 26.7071 28.2929C26.8946 28.4804 27 28.7348 27 29C27 29.2652 26.8946 29.5196 26.7071 29.7071C26.5196 29.8946 26.2652 30 26 30Z" fill="white"></path>
    <path d="M42.84 47.32H42.71C42.4476 47.2852 42.2097 47.1477 42.0485 46.9378C41.8873 46.7278 41.8159 46.4625 41.85 46.2C42.2995 42.9578 41.7438 39.6557 40.2578 36.7392C38.7719 33.8228 36.4272 31.4322 33.54 29.89C33.3053 29.7667 33.1293 29.5551 33.0505 29.302C32.9718 29.0488 32.9968 28.7748 33.12 28.54C33.1819 28.4234 33.2664 28.3202 33.3684 28.2363C33.4705 28.1525 33.5881 28.0897 33.7146 28.0516C33.841 28.0135 33.9737 28.0008 34.1051 28.0142C34.2365 28.0277 34.3639 28.0671 34.48 28.13C37.355 29.6655 39.7591 31.9528 41.4357 34.7479C43.1124 37.5429 43.9987 40.7407 44 44C43.9985 44.8229 43.9417 45.6447 43.83 46.46C43.7963 46.6986 43.6775 46.9169 43.4957 47.0749C43.3138 47.2329 43.0809 47.32 42.84 47.32Z" fill="white"></path>
    <path d="M9.75 50C9.52814 50.0095 9.30944 49.9448 9.12838 49.8163C8.94732 49.6877 8.81419 49.5026 8.75 49.29C7.52033 45.294 7.72005 40.9946 9.31487 37.1298C10.9097 33.265 13.8001 30.0759 17.49 28.11C17.7247 27.9853 17.9993 27.959 18.2534 28.0369C18.5076 28.1147 18.7203 28.2903 18.845 28.525C18.9697 28.7597 18.996 29.0343 18.9181 29.2884C18.8403 29.5426 18.6647 29.7553 18.43 29.88C15.1586 31.6334 12.5986 34.4697 11.1884 37.9031C9.77817 41.3365 9.60552 45.1533 10.7 48.7C10.7459 48.8311 10.7639 48.9703 10.753 49.1088C10.7421 49.2473 10.7024 49.382 10.6366 49.5043C10.5707 49.6266 10.4801 49.7338 10.3705 49.8192C10.2609 49.9045 10.1347 49.9661 10 50C9.91699 50.0104 9.833 50.0104 9.75 50Z" fill="white"></path>
    <path d="M13.1501 47C12.9089 47.0028 12.6749 46.9182 12.4911 46.762C12.3074 46.6058 12.1862 46.3885 12.1501 46.15C12.0497 45.4378 11.9996 44.7193 12.0001 44C11.9933 41.9481 12.4377 39.9198 13.3017 38.0587C14.1657 36.1976 15.4283 34.5491 17.0001 33.2301C17.1011 33.1459 17.2178 33.0824 17.3434 33.0433C17.469 33.0043 17.6011 32.9904 17.732 33.0025C17.863 33.0146 17.9903 33.0524 18.1067 33.1137C18.223 33.1751 18.3261 33.2588 18.4101 33.36C18.4943 33.4611 18.5577 33.5777 18.5968 33.7034C18.6358 33.829 18.6497 33.961 18.6376 34.092C18.6255 34.223 18.5877 34.3503 18.5264 34.4667C18.465 34.583 18.3813 34.6861 18.2801 34.77C16.9341 35.9011 15.8531 37.314 15.1135 38.909C14.3739 40.504 13.9938 42.242 14.0001 44C14.0016 44.6193 14.0484 45.2376 14.1401 45.8501C14.1804 46.1112 14.1157 46.3776 13.9602 46.5912C13.8047 46.8048 13.571 46.9482 13.3101 46.99L13.1501 47Z" fill="white"></path>
    <path d="M47 36C46.8448 36 46.6916 35.9639 46.5528 35.8945C46.4139 35.825 46.2932 35.7242 46.2 35.6L40.2 27.6C40.0409 27.3878 39.9725 27.1211 40.0101 26.8586C40.0476 26.596 40.1878 26.3592 40.4 26.2C40.6122 26.0409 40.8789 25.9725 41.1414 26.0101C41.404 26.0476 41.6409 26.1878 41.8 26.4L47 33.33L52.2 26.4C52.2788 26.2949 52.3775 26.2064 52.4905 26.1395C52.6035 26.0726 52.7286 26.0286 52.8586 26.0101C52.9886 25.9915 53.121 25.9987 53.2482 26.0313C53.3754 26.0639 53.4949 26.1212 53.6 26.2C53.7051 26.2788 53.7936 26.3775 53.8605 26.4905C53.9274 26.6035 53.9714 26.7286 53.99 26.8586C54.0085 26.9886 54.0013 27.121 53.9687 27.2482C53.9361 27.3754 53.8788 27.495 53.8 27.6L47.8 35.6C47.7069 35.7242 47.5861 35.825 47.4472 35.8945C47.3084 35.9639 47.1553 36 47 36Z" fill="white"></path>
    <path d="M47 35C46.7348 35 46.4804 34.8946 46.2929 34.7071C46.1054 34.5196 46 34.2652 46 34V13C46 12.7348 46.1054 12.4804 46.2929 12.2929C46.4804 12.1054 46.7348 12 47 12C47.2652 12 47.5196 12.1054 47.7071 12.2929C47.8946 12.4804 48 12.7348 48 13V34C48 34.2652 47.8946 34.5196 47.7071 34.7071C47.5196 34.8946 47.2652 35 47 35Z" fill="white"></path>
    <path d="M37 52H30C28.9391 52 27.9217 51.5786 27.1716 50.8284C26.4214 50.0783 26 49.0609 26 48C26 46.9391 26.4214 45.9217 27.1716 45.1716C27.9217 44.4214 28.9391 44 30 44H37.39C39.8365 43.9969 42.2334 44.6906 44.3 46H49C49.2652 46 49.5196 46.1054 49.7071 46.2929C49.8946 46.4805 50 46.7348 50 47C50 47.2652 49.8946 47.5196 49.7071 47.7071C49.5196 47.8946 49.2652 48 49 48H44C43.804 47.9985 43.6127 47.9393 43.45 47.83C41.6555 46.6339 39.5466 45.9971 37.39 46H30C29.4696 46 28.9609 46.2107 28.5858 46.5858C28.2107 46.9609 28 47.4696 28 48C28 48.5304 28.2107 49.0392 28.5858 49.4142C28.9609 49.7893 29.4696 50 30 50H37C37.2652 50 37.5196 50.1054 37.7071 50.2929C37.8946 50.4805 38 50.7348 38 51C38 51.2652 37.8946 51.5196 37.7071 51.7071C37.5196 51.8946 37.2652 52 37 52Z" fill="white"></path>
    <path d="M41.78 62H19.14C17.6946 62.0049 16.2627 61.7228 14.9272 61.17C13.5917 60.6173 12.3792 59.8049 11.36 58.78L7.1 54.51C6.3999 53.8093 6.00461 52.8605 6 51.87V51.74C6.00264 50.7489 6.39752 49.7991 7.09834 49.0983C7.79915 48.3975 8.7489 48.0026 9.74 48H9.87C10.8605 48.0046 11.8092 48.3999 12.51 49.1L16.51 53.1C17.0721 53.6628 17.8346 53.9793 18.63 53.98H29.34C30.1354 53.9793 30.8979 53.6628 31.46 53.1L34.29 50.27C34.4783 50.0817 34.7337 49.9759 35 49.9759C35.2663 49.9759 35.5217 50.0817 35.71 50.27C35.8983 50.4583 36.0041 50.7137 36.0041 50.98C36.0041 51.2463 35.8983 51.5017 35.71 51.69L32.88 54.52C32.4165 54.9876 31.8651 55.3591 31.2576 55.6131C30.6501 55.867 29.9984 55.9985 29.34 56H18.66C18.003 56.0012 17.3521 55.8728 16.7447 55.6223C16.1373 55.3718 15.5852 55.004 15.12 54.54L11.12 50.54C10.7908 50.2182 10.3503 50.0355 9.89 50.03H9.76C9.30022 50.0246 8.85702 50.2015 8.52723 50.5219C8.19745 50.8423 8.0079 51.2802 8 51.74V51.87C8.00551 52.3303 8.18815 52.7708 8.51 53.1L12.78 57.36C13.6129 58.1986 14.6039 58.8638 15.6956 59.3169C16.7873 59.7701 17.958 60.0022 19.14 60H41.78C43.0518 60.0008 44.2999 59.6551 45.39 59L48.49 57.14C48.6032 57.0577 48.7323 57.0001 48.8692 56.9708C49.006 56.9416 49.1474 56.9414 49.2844 56.9702C49.4213 56.9991 49.5506 57.0564 49.664 57.1383C49.7774 57.2203 49.8723 57.3252 49.9427 57.4461C50.013 57.5671 50.0572 57.7015 50.0723 57.8406C50.0874 57.9797 50.0732 58.1204 50.0305 58.2537C49.9879 58.3869 49.9177 58.5098 49.8246 58.6142C49.7315 58.7186 49.6175 58.8024 49.49 58.86L46.39 60.72C44.997 61.5548 43.404 61.9971 41.78 62Z" fill="white"></path>
    <path d="M61 62H49C48.7348 62 48.4804 61.8946 48.2929 61.7071C48.1054 61.5196 48 61.2652 48 61V45C48 44.7348 48.1054 44.4804 48.2929 44.2929C48.4804 44.1054 48.7348 44 49 44H61C61.2652 44 61.5196 44.1054 61.7071 44.2929C61.8946 44.4804 62 44.7348 62 45V61C62 61.2652 61.8946 61.5196 61.7071 61.7071C61.5196 61.8946 61.2652 62 61 62ZM50 60H60V46H50V60Z" fill="white"></path>
  </g>
  <defs>
    <clipPath id="clip0_1246_880">
      <rect width="62" height="62" fill="white"></rect>
    </clipPath>
  </defs>
</svg>
