<?xml version="1.0" encoding="UTF-8"?>
<svg xmlns="http://www.w3.org/2000/svg" width="62" height="62" viewBox="0 0 62 62" fill="none">
  <g clip-path="url(#clip0_1559_1380)">
    <path d="M60.0323 57.2222H1.96774C1.3871 57.2222 1 56.8354 1 56.2551V5.96708C1 5.38683 1.3871 5 1.96774 5H60.0323C60.6129 5 61 5.38683 61 5.96708V56.2551C61 56.8354 60.6129 57.2222 60.0323 57.2222ZM2.93548 55.2881H59.0645V6.93416H2.93548V55.2881Z" fill="white"></path>
    <path d="M5.83859 16.605C5.25795 16.605 4.87085 16.2182 4.87085 15.638V9.83549C4.87085 9.25524 5.25795 8.86841 5.83859 8.86841H11.645C12.2257 8.86841 12.6128 9.25524 12.6128 9.83549C12.6128 10.4157 12.2257 10.8026 11.645 10.8026H6.80633V15.638C6.80633 16.2182 6.41924 16.605 5.83859 16.605Z" fill="white"></path>
    <path d="M11.645 34.0123H5.83859C5.25795 34.0123 4.87085 33.6254 4.87085 33.0452V27.2427C4.87085 26.6625 5.25795 26.2756 5.83859 26.2756C6.41924 26.2756 6.80633 26.6625 6.80633 27.2427V32.0781H11.645C12.2257 32.0781 12.6128 32.4649 12.6128 33.0452C12.6128 33.6254 12.2257 34.0123 11.645 34.0123Z" fill="white"></path>
    <path d="M56.1614 16.605C55.5808 16.605 55.1937 16.2182 55.1937 15.638V10.8026H50.3549C49.7743 10.8026 49.3872 10.4157 49.3872 9.83549C49.3872 9.25524 49.7743 8.86841 50.3549 8.86841H56.1614C56.742 8.86841 57.1291 9.25524 57.1291 9.83549V15.638C57.1291 16.2182 56.742 16.605 56.1614 16.605Z" fill="white"></path>
    <path d="M56.1614 34.0123H50.3549C49.7743 34.0123 49.3872 33.6254 49.3872 33.0452C49.3872 32.4649 49.7743 32.0781 50.3549 32.0781H55.1937V27.2427C55.1937 26.6625 55.5808 26.2756 56.1614 26.2756C56.742 26.2756 57.1291 26.6625 57.1291 27.2427V33.0452C57.1291 33.6254 56.742 34.0123 56.1614 34.0123Z" fill="white"></path>
    <path d="M60.0323 37.8807H1.96774C1.3871 37.8807 1 37.4939 1 36.9136C1 36.3334 1.3871 35.9465 1.96774 35.9465H60.0323C60.6129 35.9465 61 36.3334 61 36.9136C61 37.4939 60.6129 37.8807 60.0323 37.8807Z" fill="white"></path>
    <path d="M60.0323 41.7489H9.70969C9.12904 41.7489 8.74194 41.362 8.74194 40.7818C8.74194 40.2015 9.12904 39.8147 9.70969 39.8147H60.0323C60.6129 39.8147 61 40.2015 61 40.7818C61 41.362 60.6129 41.7489 60.0323 41.7489Z" fill="white"></path>
    <path d="M5.83871 41.7489H1.96774C1.3871 41.7489 1 41.362 1 40.7818C1 40.2015 1.3871 39.8147 1.96774 39.8147H5.83871C6.41935 39.8147 6.80645 40.2015 6.80645 40.7818C6.80645 41.362 6.41935 41.7489 5.83871 41.7489Z" fill="white"></path>
    <path d="M60.0323 45.6173H1.96774C1.3871 45.6173 1 45.2304 1 44.6502C1 44.0699 1.3871 43.6831 1.96774 43.6831H60.0323C60.6129 43.6831 61 44.0699 61 44.6502C61 45.2304 60.6129 45.6173 60.0323 45.6173Z" fill="white"></path>
    <path d="M60.0323 49.4857H56.1613C55.5807 49.4857 55.1936 49.0988 55.1936 48.5186C55.1936 47.9383 55.5807 47.5515 56.1613 47.5515H60.0323C60.613 47.5515 61.0001 47.9383 61.0001 48.5186C61.0001 49.0988 60.613 49.4857 60.0323 49.4857Z" fill="white"></path>
    <path d="M52.2903 49.4857H1.96774C1.3871 49.4857 1 49.0988 1 48.5186C1 47.9383 1.3871 47.5515 1.96774 47.5515H52.2903C52.871 47.5515 53.2581 47.9383 53.2581 48.5186C53.2581 49.0988 52.871 49.4857 52.2903 49.4857Z" fill="white"></path>
    <path d="M60.0323 53.3538H1.96774C1.3871 53.3538 1 52.967 1 52.3868C1 51.8065 1.3871 51.4197 1.96774 51.4197H60.0323C60.6129 51.4197 61 51.8065 61 52.3868C61 52.967 60.6129 53.3538 60.0323 53.3538Z" fill="white"></path>
    <path d="M54.2259 41.749C54.1291 41.749 54.0323 41.749 53.9356 41.6523L42.3227 37.784C41.8388 37.5906 41.5485 37.1071 41.742 36.5268C41.9356 36.0433 42.4194 35.7532 43.0001 35.9466L53.8388 39.5248L55.3872 36.4301C55.5807 35.9466 56.1614 35.7532 56.6452 36.0433C57.1291 36.2367 57.3227 36.8169 57.0323 37.3005L55.0969 41.1688C54.9033 41.5556 54.613 41.749 54.2259 41.749Z" fill="white"></path>
    <path d="M6.80645 53.354C6.41936 53.354 6.12903 53.1606 5.93549 52.7738L4 48.9055C3.80645 48.4219 4 47.8417 4.3871 47.6483C4.87097 47.4548 5.45162 47.6483 5.64516 48.0351L7.19355 51.1297L18.0323 47.5516C18.5161 47.3581 19.0968 47.6483 19.2903 48.1318C19.4839 48.6153 19.1935 49.1956 18.7097 49.389L7.09678 53.2573C7 53.354 6.90323 53.354 6.80645 53.354Z" fill="white"></path>
    <path d="M39.7097 21.4402C39.7097 22.0205 39.3226 22.4073 38.7419 22.4073C38.1613 22.4073 37.7742 22.0205 37.7742 21.4402C37.7742 20.86 38.1613 20.4731 38.7419 20.4731C39.3226 20.4731 39.7097 20.86 39.7097 21.4402Z" fill="white"></path>
    <path d="M24.2258 21.4402C24.2258 22.0205 23.8387 22.4073 23.258 22.4073C22.6774 22.4073 22.2903 22.0205 22.2903 21.4402C22.2903 20.86 22.6774 20.4731 23.258 20.4731C23.8387 20.4731 24.2258 20.86 24.2258 21.4402Z" fill="white"></path>
    <path d="M31.0001 28.21C28.8711 28.21 27.1292 26.4693 27.1292 24.3417C27.1292 23.7614 27.5162 23.3746 28.0969 23.3746C28.6775 23.3746 29.0646 23.7614 29.0646 24.3417C29.0646 25.4055 29.9356 26.2758 31.0001 26.2758C32.0646 26.2758 32.9356 25.4055 32.9356 24.3417C32.9356 23.2779 32.0646 22.4075 31.0001 22.4075C28.8711 22.4075 27.1292 20.6668 27.1292 18.5392C27.1292 16.4116 28.8711 14.6709 31.0001 14.6709C33.1292 14.6709 34.8711 16.4116 34.8711 18.5392C34.8711 19.1195 34.484 19.5063 33.9033 19.5063C33.3227 19.5063 32.9356 19.1195 32.9356 18.5392C32.9356 17.4754 32.0646 16.6051 31.0001 16.6051C29.9356 16.6051 29.0646 17.4754 29.0646 18.5392C29.0646 19.603 29.9356 20.4734 31.0001 20.4734C33.1292 20.4734 34.8711 22.2141 34.8711 24.3417C34.8711 26.4693 33.1292 28.21 31.0001 28.21Z" fill="white"></path>
    <path d="M31 16.6049C30.4193 16.6049 30.0322 16.2181 30.0322 15.6378V13.7037C30.0322 13.1234 30.4193 12.7366 31 12.7366C31.5806 12.7366 31.9677 13.1234 31.9677 13.7037V15.6378C31.9677 16.2181 31.5806 16.6049 31 16.6049Z" fill="white"></path>
    <path d="M31 30.1439C30.4193 30.1439 30.0322 29.7571 30.0322 29.1769V27.2427C30.0322 26.6625 30.4193 26.2756 31 26.2756C31.5806 26.2756 31.9677 26.6625 31.9677 27.2427V29.1769C31.9677 29.7571 31.5806 30.1439 31 30.1439Z" fill="white"></path>
    <path d="M31.0001 34.0124C24.0323 34.0124 18.4194 28.4034 18.4194 21.4404C18.4194 14.4775 24.0323 8.86841 31.0001 8.86841C37.9678 8.86841 43.5807 14.4775 43.5807 21.4404C43.5807 24.0515 42.8065 26.5659 41.2581 28.6935C40.9678 29.177 40.3872 29.2738 39.9033 28.8869C39.5162 28.5968 39.3227 28.0166 39.7098 27.533C40.9678 25.6956 41.6452 23.568 41.6452 21.3437C41.6452 15.4445 36.9033 10.7059 31.0001 10.7059C25.0969 10.7059 20.3549 15.4445 20.3549 21.3437C20.3549 27.2429 25.0969 31.9816 31.0001 31.9816C33.2259 31.9816 35.3549 31.3046 37.1936 30.0474C37.6775 29.7573 38.2581 29.854 38.5485 30.2408C38.8388 30.7244 38.742 31.3046 38.3549 31.5947C36.1291 33.2388 33.613 34.0124 31.0001 34.0124Z" fill="white"></path>
  </g>
  <defs>
    <clipPath id="clip0_1559_1380">
      <rect width="60" height="52.2222" fill="white" transform="translate(1 5)"></rect>
    </clipPath>
  </defs>
</svg>
