<?xml version="1.0" encoding="UTF-8"?>
<svg xmlns="http://www.w3.org/2000/svg" width="62" height="62" viewBox="0 0 62 62" fill="none">
  <g clip-path="url(#clip0_1606_1416)">
    <path d="M61 62H0.999998C0.400003 62 0 61.5408 0 60.8518V1.14815C0 0.459258 0.400003 0 0.999998 0H61C61.6 0 62 0.459258 62 1.14815V60.8518C62 61.5408 61.6 62 61 62ZM2 59.7038H60V2.2963H2V59.7038Z" fill="white"></path>
    <path d="M4.83859 11.605C4.25795 11.605 3.87085 11.2182 3.87085 10.638V4.83549C3.87085 4.25524 4.25795 3.86841 4.83859 3.86841H10.645C11.2257 3.86841 11.6128 4.25524 11.6128 4.83549C11.6128 5.4157 11.2257 5.8026 10.645 5.8026H5.80633V10.638C5.80633 11.2182 5.41924 11.605 4.83859 11.605Z" fill="white"></path>
    <path d="M10.645 29.0123H4.83859C4.25795 29.0123 3.87085 28.6254 3.87085 28.0452V22.2427C3.87085 21.6625 4.25795 21.2756 4.83859 21.2756C5.41924 21.2756 5.80633 21.6625 5.80633 22.2427V27.0781H10.645C11.2257 27.0781 11.6128 27.4649 11.6128 28.0452C11.6128 28.6254 11.2257 29.0123 10.645 29.0123Z" fill="white"></path>
    <path d="M55.1614 11.605C54.5808 11.605 54.1937 11.2182 54.1937 10.638V5.8026H49.3549C48.7743 5.8026 48.3872 5.4157 48.3872 4.83549C48.3872 4.25524 48.7743 3.86841 49.3549 3.86841H55.1614C55.742 3.86841 56.1291 4.25524 56.1291 4.83549V10.638C56.1291 11.2182 55.742 11.605 55.1614 11.605Z" fill="white"></path>
    <path d="M55.1614 29.0123H49.3549C48.7743 29.0123 48.3872 28.6254 48.3872 28.0452C48.3872 27.4649 48.7743 27.0781 49.3549 27.0781H54.1937V22.2427C54.1937 21.6625 54.5808 21.2756 55.1614 21.2756C55.742 21.2756 56.1291 21.6625 56.1291 22.2427V28.0452C56.1291 28.6254 55.742 29.0123 55.1614 29.0123Z" fill="white"></path>
    <path d="M59.0323 32.8807H0.96774C0.3871 32.8807 0 32.4939 0 31.9136C0 31.3334 0.3871 30.9465 0.96774 30.9465H59.0323C59.6129 30.9465 60 31.3334 60 31.9136C60 32.4939 59.6129 32.8807 59.0323 32.8807Z" fill="white"></path>
    <path d="M59.0323 36.7489H8.70969C8.12904 36.7489 7.74194 36.362 7.74194 35.7818C7.74194 35.2015 8.12904 34.8147 8.70969 34.8147H59.0323C59.6129 34.8147 60 35.2015 60 35.7818C60 36.362 59.6129 36.7489 59.0323 36.7489Z" fill="white"></path>
    <path d="M4.83871 36.7489H0.96774C0.3871 36.7489 0 36.362 0 35.7818C0 35.2015 0.3871 34.8147 0.96774 34.8147H4.83871C5.41935 34.8147 5.80645 35.2015 5.80645 35.7818C5.80645 36.362 5.41935 36.7489 4.83871 36.7489Z" fill="white"></path>
    <path d="M59.0323 40.6173H0.96774C0.3871 40.6173 0 40.2304 0 39.6502C0 39.0699 0.3871 38.6831 0.96774 38.6831H59.0323C59.6129 38.6831 60 39.0699 60 39.6502C60 40.2304 59.6129 40.6173 59.0323 40.6173Z" fill="white"></path>
    <path d="M59.0323 44.4857H55.1613C54.5807 44.4857 54.1936 44.0988 54.1936 43.5186C54.1936 42.9383 54.5807 42.5515 55.1613 42.5515H59.0323C59.613 42.5515 60.0001 42.9383 60.0001 43.5186C60.0001 44.0988 59.613 44.4857 59.0323 44.4857Z" fill="white"></path>
    <path d="M51.2903 44.4857H0.96774C0.3871 44.4857 0 44.0988 0 43.5186C0 42.9383 0.3871 42.5515 0.96774 42.5515H51.2903C51.871 42.5515 52.2581 42.9383 52.2581 43.5186C52.2581 44.0988 51.871 44.4857 51.2903 44.4857Z" fill="white"></path>
    <path d="M59.0323 48.3538H0.96774C0.3871 48.3538 0 47.967 0 47.3868C0 46.8065 0.3871 46.4197 0.96774 46.4197H59.0323C59.6129 46.4197 60 46.8065 60 47.3868C60 47.967 59.6129 48.3538 59.0323 48.3538Z" fill="white"></path>
    <path d="M60.0323 51.9341H1.96774C1.3871 51.9341 1 51.5473 1 50.9671C1 50.3868 1.3871 50 1.96774 50H60.0323C60.6129 50 61 50.3868 61 50.9671C61 51.5473 60.6129 51.9341 60.0323 51.9341Z" fill="white"></path>
    <path d="M59.0323 55.5144H0.96774C0.3871 55.5144 0 55.1276 0 54.5474C0 53.9671 0.3871 53.5803 0.96774 53.5803H59.0323C59.6129 53.5803 60 53.9671 60 54.5474C60 55.1276 59.6129 55.5144 59.0323 55.5144Z" fill="white"></path>
    <path d="M60.0323 59.0947H1.96774C1.3871 59.0947 1 58.7079 1 58.1277C1 57.5474 1.3871 57.1606 1.96774 57.1606H60.0323C60.6129 57.1606 61 57.5474 61 58.1277C61 58.7079 60.6129 59.0947 60.0323 59.0947Z" fill="white"></path>
    <path d="M53.2259 36.749C53.1291 36.749 53.0323 36.749 52.9356 36.6523L41.3227 32.784C40.8388 32.5906 40.5485 32.1071 40.742 31.5268C40.9356 31.0433 41.4194 30.7532 42.0001 30.9466L52.8388 34.5248L54.3872 31.4301C54.5807 30.9466 55.1614 30.7532 55.6452 31.0433C56.1291 31.2367 56.3227 31.8169 56.0323 32.3005L54.0969 36.1688C53.9033 36.5556 53.613 36.749 53.2259 36.749Z" fill="white"></path>
    <path d="M5.80645 48.354C5.41936 48.354 5.12903 48.1606 4.93549 47.7738L3 43.9055C2.80645 43.4219 3 42.8417 3.3871 42.6483C3.87097 42.4548 4.45162 42.6483 4.64516 43.0351L6.19355 46.1297L17.0323 42.5516C17.5161 42.3581 18.0968 42.6483 18.2903 43.1318C18.4839 43.6153 18.1935 44.1956 17.7097 44.389L6.09678 48.2573C6 48.354 5.90323 48.354 5.80645 48.354Z" fill="white"></path>
    <path d="M38.7097 16.4402C38.7097 17.0205 38.3226 17.4073 37.7419 17.4073C37.1613 17.4073 36.7742 17.0205 36.7742 16.4402C36.7742 15.86 37.1613 15.4731 37.7419 15.4731C38.3226 15.4731 38.7097 15.86 38.7097 16.4402Z" fill="white"></path>
    <path d="M23.2258 16.4402C23.2258 17.0205 22.8387 17.4073 22.258 17.4073C21.6774 17.4073 21.2903 17.0205 21.2903 16.4402C21.2903 15.86 21.6774 15.4731 22.258 15.4731C22.8387 15.4731 23.2258 15.86 23.2258 16.4402Z" fill="white"></path>
    <path d="M30.0001 23.21C27.8711 23.21 26.1292 21.4693 26.1292 19.3417C26.1292 18.7614 26.5162 18.3746 27.0969 18.3746C27.6775 18.3746 28.0646 18.7614 28.0646 19.3417C28.0646 20.4055 28.9356 21.2758 30.0001 21.2758C31.0646 21.2758 31.9356 20.4055 31.9356 19.3417C31.9356 18.2779 31.0646 17.4075 30.0001 17.4075C27.8711 17.4075 26.1292 15.6668 26.1292 13.5392C26.1292 11.4116 27.8711 9.6709 30.0001 9.6709C32.1292 9.6709 33.8711 11.4116 33.8711 13.5392C33.8711 14.1195 33.484 14.5063 32.9033 14.5063C32.3227 14.5063 31.9356 14.1195 31.9356 13.5392C31.9356 12.4754 31.0646 11.6051 30.0001 11.6051C28.9356 11.6051 28.0646 12.4754 28.0646 13.5392C28.0646 14.603 28.9356 15.4734 30.0001 15.4734C32.1292 15.4734 33.8711 17.2141 33.8711 19.3417C33.8711 21.4693 32.1292 23.21 30.0001 23.21Z" fill="white"></path>
    <path d="M30 11.6049C29.4193 11.6049 29.0322 11.2181 29.0322 10.6378V8.7037C29.0322 8.1234 29.4193 7.7366 30 7.7366C30.5806 7.7366 30.9677 8.1234 30.9677 8.7037V10.6378C30.9677 11.2181 30.5806 11.6049 30 11.6049Z" fill="white"></path>
    <path d="M30 25.1439C29.4193 25.1439 29.0322 24.7571 29.0322 24.1769V22.2427C29.0322 21.6625 29.4193 21.2756 30 21.2756C30.5806 21.2756 30.9677 21.6625 30.9677 22.2427V24.1769C30.9677 24.7571 30.5806 25.1439 30 25.1439Z" fill="white"></path>
    <path d="M30.0001 29.0124C23.0323 29.0124 17.4194 23.4034 17.4194 16.4404C17.4194 9.4775 23.0323 3.86841 30.0001 3.86841C36.9678 3.86841 42.5807 9.4775 42.5807 16.4404C42.5807 19.0515 41.8065 21.5659 40.2581 23.6935C39.9678 24.177 39.3872 24.2738 38.9033 23.8869C38.5162 23.5968 38.3227 23.0166 38.7098 22.533C39.9678 20.6956 40.6452 18.568 40.6452 16.3437C40.6452 10.4445 35.9033 5.7059 30.0001 5.7059C24.0969 5.7059 19.3549 10.4445 19.3549 16.3437C19.3549 22.2429 24.0969 26.9816 30.0001 26.9816C32.2259 26.9816 34.3549 26.3046 36.1936 25.0474C36.6775 24.7573 37.2581 24.854 37.5485 25.2408C37.8388 25.7244 37.742 26.3046 37.3549 26.5947C35.1291 28.2388 32.613 29.0124 30.0001 29.0124Z" fill="white"></path>
  </g>
  <defs>
    <clipPath id="clip0_1606_1416">
      <rect width="62" height="62" fill="white"></rect>
    </clipPath>
  </defs>
</svg>
