<?xml version="1.0" encoding="UTF-8"?>
<svg xmlns="http://www.w3.org/2000/svg" width="62" height="62" viewBox="0 0 62 62" fill="none">
  <path d="M38.3333 48H30.1667C29.8573 48 29.5605 47.8814 29.3417 47.6705C29.123 47.4596 29 47.1734 29 46.875C29 46.5767 29.123 46.2906 29.3417 46.0795C29.5605 45.8686 29.8573 45.75 30.1667 45.75H38.3333C38.9521 45.75 39.5456 45.513 39.9832 45.091C40.4208 44.6691 40.6667 44.0967 40.6667 43.5C40.6667 42.9033 40.4208 42.331 39.9832 41.909C39.5456 41.487 38.9521 41.25 38.3333 41.25H29.7117C27.1956 41.2467 24.7352 41.9631 22.6417 43.3088C22.4518 43.4317 22.2287 43.4983 22 43.5H16.1667C15.8573 43.5 15.5605 43.3814 15.3417 43.1705C15.123 42.9596 15 42.6734 15 42.375C15 42.0767 15.123 41.7906 15.3417 41.5795C15.5605 41.3686 15.8573 41.25 16.1667 41.25H21.65C24.0612 39.7769 26.8574 38.9965 29.7117 39H38.3333C39.571 39 40.758 39.4741 41.6331 40.3181C42.5084 41.1619 43 42.3065 43 43.5C43 44.6935 42.5084 45.8381 41.6331 46.682C40.758 47.5259 39.571 48 38.3333 48Z" fill="white"></path>
  <path d="M47.6629 62H22.9038C21.1204 62.0009 19.3703 61.4325 17.8406 60.3555L14.4503 57.9657C14.2314 57.7787 14.0794 57.5028 14.0235 57.1915C13.9677 56.8803 14.0121 56.5559 14.1481 56.2809C14.2843 56.0059 14.5023 55.8001 14.7601 55.7031C15.018 55.6061 15.2972 55.625 15.5439 55.7559L18.9342 58.1456C20.1263 58.9873 21.4911 59.4314 22.8821 59.4304H47.6412C48.9338 59.4332 50.214 59.135 51.4078 58.5528C52.6017 57.9706 53.6855 57.116 54.5964 56.0385L59.266 50.5653C59.618 50.1424 59.8177 49.5764 59.8237 48.985V48.818C59.8237 48.2251 59.6233 47.6565 59.2664 47.2372C58.9096 46.8179 58.4256 46.5824 57.9209 46.5824H57.7787C57.2753 46.5895 56.7936 46.8242 56.4337 47.2377L52.0593 52.3769C51.5506 52.973 50.9468 53.4456 50.2825 53.7674C49.6182 54.0893 48.9064 54.2542 48.188 54.2527H36.5082C35.7897 54.2542 35.078 54.0893 34.4136 53.7674C33.7494 53.4456 33.1456 52.973 32.6369 52.3769L29.542 48.7409C29.3361 48.499 29.2205 48.1708 29.2205 47.8287C29.2205 47.4866 29.3361 47.1584 29.542 46.9165C29.7479 46.6746 30.0272 46.5386 30.3184 46.5386C30.6097 46.5386 30.8891 46.6746 31.095 46.9165L34.1898 50.5525C34.8045 51.2755 35.6384 51.6822 36.5082 51.6831H48.188C49.0578 51.6822 49.8917 51.2755 50.5064 50.5525L54.8808 45.4133C55.6471 44.5138 56.6846 44.0059 57.7678 44H57.9099C58.9938 44.0033 60.0325 44.5107 60.7989 45.4111C61.5653 46.3116 61.9972 47.5318 62 48.8051V48.9722C61.995 50.2448 61.5627 51.4636 60.797 52.364L56.1383 57.8501C55.0285 59.1646 53.7083 60.208 52.2537 60.9203C50.7991 61.6325 49.2389 61.9995 47.6629 62Z" fill="white"></path>
  <path d="M14.8571 62H1.14286C0.839753 62 0.549079 61.8595 0.334752 61.6095C0.120424 61.3595 0 61.0203 0 60.6667V39.3333C0 38.9797 0.120424 38.6405 0.334752 38.3905C0.549079 38.1405 0.839753 38 1.14286 38H14.8571C15.1602 38 15.451 38.1405 15.6653 38.3905C15.8795 38.6405 16 38.9797 16 39.3333V60.6667C16 61.0203 15.8795 61.3595 15.6653 61.6095C15.451 61.8595 15.1602 62 14.8571 62ZM2.28571 59.3333H13.7143V40.6667H2.28571V59.3333Z" fill="white"></path>
  <path d="M42.0833 53C41.8763 53 41.6735 52.9389 41.4991 52.8238C41.3247 52.7087 41.186 52.5445 41.0994 52.3506C41.0127 52.1568 40.9818 51.9413 41.0103 51.73C41.0388 51.5185 41.1255 51.32 41.26 51.1577L46.8717 44.4586C47.4102 43.811 48.1282 43.3488 48.9292 43.1342C49.7302 42.9198 50.5757 42.9631 51.352 43.2586C52.1283 43.554 52.7983 44.0874 53.2717 44.787C53.7451 45.4866 53.9992 46.3189 54 47.1718V48.5339C54 48.8301 53.8859 49.1141 53.6827 49.3234C53.4796 49.5329 53.2041 49.6505 52.9167 49.6505C52.6294 49.6505 52.3539 49.5329 52.1508 49.3234C51.9475 49.1141 51.8333 48.8301 51.8333 48.5339V47.1271C51.8333 46.6118 51.6348 46.1178 51.2813 45.7535C50.9278 45.3892 50.4483 45.1844 49.9484 45.1844C49.6762 45.1834 49.4071 45.2439 49.1601 45.3616C48.913 45.4793 48.6941 45.6512 48.5183 45.8655L42.9068 52.5646C42.8092 52.6953 42.6848 52.8022 42.5425 52.8775C42.4001 52.9528 42.2434 52.9946 42.0833 53Z" fill="white"></path>
  <path d="M14 25.5V3.32609C14 2.44395 14.3161 1.59796 14.8787 0.974203C15.4413 0.35044 16.2044 0 17 0H49C49.7957 0 50.5587 0.35044 51.1213 0.974203C51.6839 1.59796 52 2.44395 52 3.32609V25.5C52 26.3821 51.6839 27.2281 51.1213 27.8519C50.5587 28.4756 49.7957 28.8261 49 28.8261H17C16.2044 28.8261 15.4413 28.4756 14.8787 27.8519C14.3161 27.2281 14 26.3821 14 25.5ZM50 3.32609C50 3.03204 49.8946 2.75005 49.7071 2.54214C49.5196 2.33421 49.2652 2.21739 49 2.21739H17C16.7348 2.21739 16.4804 2.33421 16.2929 2.54214C16.1054 2.75005 16 3.03204 16 3.32609V25.5C16 25.794 16.1054 26.0761 16.2929 26.284C16.4804 26.4918 16.7348 26.6087 17 26.6087H49C49.2652 26.6087 49.5196 26.4918 49.7071 26.284C49.8946 26.0761 50 25.794 50 25.5V3.32609Z" fill="white"></path>
  <path d="M18.0001 19.9565C17.9959 19.098 18.2165 18.2566 18.6353 17.5344C19.0541 16.8122 19.653 16.2402 20.3593 15.8881C21.0655 15.5358 21.8487 15.4185 22.614 15.5503C23.3792 15.6822 24.0934 16.0574 24.67 16.6304C24.7736 16.7341 24.8566 16.8606 24.9134 17.002C24.9702 17.1432 24.9997 17.2962 25.0001 17.4509C24.9997 17.6055 24.9702 17.7585 24.9134 17.8998C24.8566 18.0411 24.7736 18.1676 24.67 18.2713C24.4572 18.4794 24.2868 18.7353 24.17 19.022C24.0533 19.3088 23.9929 19.6198 23.9929 19.9344C23.9929 20.249 24.0533 20.56 24.17 20.8467C24.2868 21.1334 24.4572 21.3893 24.67 21.5974C24.7736 21.7011 24.8566 21.8277 24.9134 21.9689C24.9702 22.1102 24.9997 22.2632 25.0001 22.4178C24.9997 22.5726 24.9702 22.7255 24.9134 22.8667C24.8566 23.0081 24.7736 23.1346 24.67 23.2383C24.0934 23.8113 23.3792 24.1866 22.614 24.3184C21.8487 24.4502 21.0655 24.3329 20.3593 23.9806C19.653 23.6285 19.0541 23.0565 18.6353 22.3343C18.2165 21.6121 17.9959 20.7707 18.0001 19.9122V19.9565ZM22.5101 17.8167C22.3443 17.7637 22.1725 17.7376 22.0001 17.7391C21.4696 17.7391 20.9609 17.9727 20.5859 18.3886C20.2108 18.8045 20.0001 19.3685 20.0001 19.9565C20.0001 20.5446 20.2108 21.1087 20.5859 21.5244C20.9609 21.9403 21.4696 22.1739 22.0001 22.1739C22.1725 22.1755 22.3443 22.1493 22.5101 22.0963C22.1844 21.441 22.0137 20.7048 22.0137 19.9565C22.0137 19.2083 22.1844 18.4722 22.5101 17.8167Z" fill="white"></path>
  <path d="M23 22.4178C23.0007 22.143 23.0933 21.8782 23.26 21.675C23.438 21.4578 23.6863 21.3278 23.9506 21.3132C24.2149 21.2986 24.4735 21.4008 24.67 21.5974C24.9587 21.8797 25.3147 22.0635 25.6953 22.127C26.0759 22.1905 26.465 22.1309 26.8158 21.9553C27.1666 21.7798 27.4643 21.4956 27.6731 21.1372C27.8819 20.7787 27.9929 20.3611 27.9929 19.9343C27.9929 19.5076 27.8819 19.09 27.6731 18.7314C27.4643 18.373 27.1666 18.0889 26.8158 17.9133C26.465 17.7377 26.0759 17.678 25.6953 17.7416C25.3147 17.8051 24.9587 17.989 24.67 18.2713C24.5746 18.3792 24.4602 18.4642 24.334 18.5213C24.2078 18.5784 24.0725 18.6063 23.9362 18.6034C23.7999 18.6003 23.6656 18.5664 23.5416 18.5038C23.4176 18.441 23.3064 18.351 23.2149 18.239C23.1234 18.127 23.0535 17.9953 23.0095 17.8523C22.9656 17.7093 22.9485 17.5577 22.9593 17.4072C22.9701 17.2565 23.0085 17.1098 23.0723 16.9762C23.136 16.8427 23.2238 16.725 23.33 16.6304C23.9035 16.0526 24.6159 15.6717 25.3808 15.5344C26.1457 15.397 26.9302 15.5089 27.6388 15.8566C28.3475 16.2041 28.9498 16.7725 29.3726 17.4924C29.7954 18.2124 30.0205 19.053 30.0205 19.9122C30.0205 20.7712 29.7954 21.6119 29.3726 22.3318C28.9498 23.0518 28.3475 23.6201 27.6388 23.9677C26.9302 24.3154 26.1457 24.4272 25.3808 24.2899C24.6159 24.1525 23.9035 23.7718 23.33 23.1939C23.2313 23.0953 23.1512 22.9759 23.0946 22.8427C23.0379 22.7094 23.0058 22.5649 23 22.4178Z" fill="white"></path>
  <path d="M34 23.2826C34 22.9886 34.1054 22.7065 34.2929 22.4986C34.4804 22.2908 34.7348 22.1739 35 22.1739H47C47.2652 22.1739 47.5196 22.2908 47.7071 22.4986C47.8946 22.7065 48 22.9886 48 23.2826C48 23.5766 47.8946 23.8587 47.7071 24.0666C47.5196 24.2744 47.2652 24.3913 47 24.3913H35C34.7348 24.3913 34.4804 24.2744 34.2929 24.0666C34.1054 23.8587 34 23.5766 34 23.2826Z" fill="white"></path>
  <path d="M34 15.5217C34 15.2277 34.1054 14.9457 34.2929 14.7378C34.4804 14.5299 34.7348 14.413 35 14.413H47C47.2652 14.413 47.5196 14.5299 47.7071 14.7378C47.8946 14.9457 48 15.2277 48 15.5217C48 15.8158 47.8946 16.0978 47.7071 16.3057C47.5196 16.5136 47.2652 16.6304 47 16.6304H35C34.7348 16.6304 34.4804 16.5136 34.2929 16.3057C34.1054 16.0978 34 15.8158 34 15.5217Z" fill="white"></path>
  <path d="M40 18.8478C40 18.5538 40.1054 18.2717 40.2929 18.0639C40.4804 17.856 40.7348 17.7391 41 17.7391H47C47.2652 17.7391 47.5196 17.856 47.7071 18.0639C47.8946 18.2717 48 18.5538 48 18.8478C48 19.1418 47.8946 19.4239 47.7071 19.6318C47.5196 19.8397 47.2652 19.9565 47 19.9565H41C40.7348 19.9565 40.4804 19.8397 40.2929 19.6318C40.1054 19.4239 40 19.1418 40 18.8478Z" fill="white"></path>
</svg>
