<?xml version="1.0" encoding="UTF-8"?>
<svg xmlns="http://www.w3.org/2000/svg" width="396" height="310" viewBox="0 0 396 310" fill="none">
  <path d="M55.5328 222.289V251.989H74.25V261.425H44.3953V222.289H55.5328Z" fill="#00A651"></path>
  <path d="M99.1547 262.353C86.3156 262.353 77.3438 254.928 77.3438 241.78C77.3438 228.941 86.3156 221.206 99.1547 221.206C111.994 221.206 120.966 228.631 120.966 241.78C120.811 254.928 111.994 262.353 99.1547 262.353ZM99.1547 230.797C92.8125 230.797 88.4812 235.438 88.4812 241.934C88.4812 248.431 92.9672 253.072 99.1547 253.072C105.652 253.072 109.828 248.431 109.828 241.934C109.828 235.128 105.497 230.797 99.1547 230.797Z" fill="#00A651"></path>
  <path d="M168.145 261.425H159.173L152.212 242.708L145.561 261.425H136.589L122.048 222.289H134.114L139.219 236.056C140.147 238.995 140.766 242.244 141.23 245.183L148.5 222.289H156.234L163.659 245.183C164.278 242.244 164.897 239.15 165.825 235.902L170.466 222.444H182.531L168.145 261.425Z" fill="#00A651"></path>
  <path d="M234.042 261.425H221.822L212.695 248.741H208.828V261.425H197.691V222.289H216.872C226.926 222.289 232.031 228.786 232.031 235.747C232.031 240.542 230.33 244.564 223.678 247.503L233.887 260.652V261.425H234.042ZM208.828 231.106V240.542H217.026C219.966 240.542 221.203 238.377 221.203 236.056C221.203 233.581 219.811 231.261 216.872 231.261H208.828V231.106Z" fill="#00A651"></path>
  <path d="M266.836 255.083H249.356L246.726 261.58H234.97L252.605 222.444H263.742L281.222 261.58H269.311L266.836 255.083ZM258.173 233.272L253.069 245.802H263.123L258.173 233.272Z" fill="#00A651"></path>
  <path d="M289.884 231.416H278.438V222.289H312.314V231.416H300.867V261.425H289.884V231.416Z" fill="#00A651"></path>
  <path d="M349.284 261.425H317.883V222.289H348.356V231.57H328.711V237.139H347.273V246.111H328.711V251.989H349.13V261.425H349.284Z" fill="#00A651"></path>
  <path d="M157.317 158.867C158.555 162.116 160.411 165.055 162.577 167.685C168.145 174.336 176.034 176.347 183.923 177.894C192.122 179.595 200.32 178.822 208.519 178.667C212.85 178.513 217.181 178.203 221.513 177.894C226.617 177.585 230.794 174.491 232.495 169.386C234.197 164.281 233.269 159.177 229.247 155.928C226.927 154.072 224.142 152.68 221.358 150.978C221.513 150.824 221.822 150.514 222.131 150.36C227.855 147.266 233.424 144.017 239.302 141.388C241.931 140.15 245.18 139.995 248.119 139.995C250.439 139.841 252.45 141.078 253.224 143.708C253.533 144.945 254.306 144.636 255.234 144.327C257.245 143.708 259.256 142.625 261.267 142.47C263.123 142.316 264.98 142.625 266.836 143.244C267.764 143.553 268.692 144.945 269.156 146.028C269.62 147.42 270.084 147.575 271.322 147.111C273.797 146.183 276.117 144.945 278.592 144.481C281.067 144.017 283.697 143.708 286.017 144.327C290.503 145.41 292.05 149.895 289.575 153.763C288.647 155.31 287.409 156.856 285.863 157.785C269.62 167.839 253.688 178.667 235.589 185.474C225.844 189.031 215.789 192.28 205.889 195.528C203.569 196.302 200.784 196.611 198.464 196.302C188.409 195.219 178.355 193.981 168.3 192.589C158.864 191.197 150.356 187.175 141.694 183.308C139.992 182.534 138.291 181.761 136.744 181.142C132.413 179.131 128.081 179.131 123.595 180.678C118.8 182.38 114.005 183.927 109.209 185.474C108.127 185.783 106.889 186.092 105.497 186.402C105.342 182.689 105.033 179.131 104.878 175.728C104.259 166.447 103.795 157.011 103.331 147.73C103.331 146.956 103.641 145.719 104.259 145.41C114.933 138.913 126.225 134.117 138.755 132.725C153.605 131.024 166.753 135.664 178.664 144.327C182.067 146.802 185.316 149.586 188.719 151.906C193.823 155.155 199.856 155.464 205.734 156.238C210.375 157.011 215.17 157.785 219.811 159.022C223.059 159.795 224.916 162.116 225.225 165.519C225.38 168.303 223.833 170.469 221.048 170.624C209.447 171.088 197.691 172.635 186.089 170.624C178.664 169.386 171.858 166.292 165.206 162.735C162.731 161.497 160.256 160.105 157.781 158.713C157.627 158.558 157.472 158.713 157.317 158.867Z" fill="#FFD086"></path>
  <path d="M142.627 44.1925L133.361 44.7324L137.969 123.798L147.235 123.258L142.627 44.1925Z" fill="black"></path>
  <path d="M246.569 123.319L255.834 123.859L260.442 44.7935L251.176 44.2536L246.569 123.319Z" fill="black"></path>
  <path d="M201.094 2.7876C198.464 1.24072 195.216 1.24072 192.586 2.7876L118.491 48.4204V69.922L196.917 19.6485L275.344 69.922V48.4204L201.094 2.7876Z" fill="black"></path>
  <path d="M162.886 1.55005H143.705V35.736H162.886V1.55005Z" fill="black"></path>
  <path d="M221.743 67.6569C218.089 60.1866 211.756 57.5882 204.854 56.5326V49.4683H194.542V56.5326C185.122 57.6694 175.703 62.5413 175.703 73.1785C175.703 86.6575 187.071 88.6875 198.683 89.9867C206.234 90.8799 212.974 92.8287 212.974 98.1879C212.974 104.521 206.234 107.039 198.926 107.039C192.187 107.039 184.96 103.709 182.768 98.5127L173.186 102.573C177.002 111.505 185.447 115.646 194.542 116.458V124.172H204.854V116.052C214.923 115.321 224.098 109.15 224.098 98.1879C224.098 83.8968 211.431 81.7856 199.576 80.324C192.755 79.512 186.34 78.5376 186.34 73.1785C186.34 67.4945 192.512 65.5457 199.251 65.5457C204.854 65.5457 210.863 68.2253 212.974 71.7169L221.743 67.6569Z" fill="#00A651"></path>
  <path d="M67.1344 306.748V292.827H50.2735V306.748H43.7766V272.408H50.2735V286.948H67.1344V272.408H73.6313V306.748H67.1344Z" fill="black"></path>
  <path d="M115.706 289.733C115.552 298.705 110.137 307.522 98.0719 307.522C86.0062 307.522 80.4375 298.859 80.4375 289.733C80.4375 278.905 88.3266 271.634 98.2266 271.634C109.983 271.634 115.861 280.761 115.706 289.733ZM98.0719 301.489C106.116 301.489 109.209 295.456 109.364 289.733C109.519 284.009 106.116 277.667 98.2266 277.513C90.9563 277.513 86.625 283.081 86.7797 289.888C86.9344 295.456 90.0281 301.489 98.0719 301.489Z" fill="black"></path>
  <path d="M152.522 281.844L141.384 296.848H140.147L129.164 281.844V306.903H122.667V272.562H130.092L140.92 287.413L151.748 272.562H159.173V306.903H152.677V281.844H152.522Z" fill="black"></path>
  <path d="M193.514 306.748H167.681C167.681 295.302 167.681 283.855 167.681 272.408H193.514V278.75H174.178V286.639H192.741V292.672H174.178V300.406H193.514V306.748Z" fill="black"></path>
  <path d="M219.502 272.253V300.716H237.136V306.749H213.005V272.408H219.502V272.253Z" fill="black"></path>
  <path d="M275.499 289.733C275.344 298.705 269.93 307.522 257.864 307.522C245.799 307.522 240.23 298.859 240.23 289.733C240.23 278.905 248.119 271.634 258.019 271.634C269.775 271.634 275.653 280.761 275.499 289.733ZM257.864 301.489C265.908 301.489 269.002 295.456 269.156 289.733C269.311 284.009 265.908 277.667 258.019 277.513C250.748 277.513 246.417 283.081 246.572 289.888C246.727 295.456 249.82 301.489 257.864 301.489Z" fill="black"></path>
  <path d="M305.044 300.252H287.1L284.161 306.748H277.2L292.669 272.408H299.784L315.253 306.748H308.138L305.044 300.252ZM296.072 279.523L289.73 294.219H302.569L296.072 279.523Z" fill="black"></path>
  <path d="M343.561 295.456V272.253H350.058V306.594H344.798L326.545 283.7V306.594H320.048V272.253H325.308L343.561 295.456Z" fill="black"></path>
  <path d="M393.989 270.397L393.061 270.861C390.741 272.253 388.266 273.8 385.945 275.656C382.697 278.131 379.603 280.916 376.509 284.319C372.952 288.031 369.548 292.053 366.3 296.539L365.991 297.003L356.709 291.744L355.936 291.589L355.472 292.208C355.162 292.517 355.008 292.827 355.008 293.136C355.008 293.755 355.317 294.064 355.472 294.219C355.936 294.837 356.555 295.456 357.019 296.075L367.228 307.831C367.537 308.141 367.847 308.295 368.311 308.295H368.466C368.93 308.295 369.239 307.986 369.548 307.522L370.941 304.737C373.57 299.633 376.2 295.147 379.139 290.97C383.47 284.628 388.575 278.905 394.144 273.645L395.691 272.253L393.989 270.397Z" fill="#00A651"></path>
</svg>
